<?xml version="1.0" ?><!DOCTYPE svg  PUBLIC '-//W3C//DTD SVG 1.1//EN'  'http://www.w3.org/Graphics/SVG/1.1/DTD/svg11.dtd'><svg height="2048px" style="shape-rendering:geometricPrecision; text-rendering:geometricPrecision; image-rendering:optimizeQuality; fill-rule:evenodd; clip-rule:evenodd" viewBox="0 0 2048 2048" width="2048px" xml:space="preserve" xmlns="http://www.w3.org/2000/svg" xmlns:xlink="http://www.w3.org/1999/xlink"><defs><style type="text/css">
   <![CDATA[
    .fil2 {fill:none}
    .fil0 {fill:#424242}
    .fil1 {fill:#FFFFFE;fill-rule:nonzero}
   ]]>
  </style></defs><rect class="fil0" height="2048" width="2048"/><g id="Layer_x0020_1"><path class="fil1" d="M288 416l1472 0 32 0 0 32 0 1262c0,23 -9,43 -24,58 -15,15 -35,24 -58,24l-1372 0c-23,0 -43,-9 -58,-24 -15,-15 -24,-35 -24,-58l0 -1262 0 -32 32 0zm1440 64l-1408 0 0 1230c0,5 2,9 5,13 3,3 8,5 13,5l1372 0c5,0 9,-2 13,-5 3,-3 5,-8 5,-13l0 -1230z"/><path class="fil1" d="M624 298c0,-18 14,-32 32,-32 18,0 32,14 32,32l0 320c0,18 -14,32 -32,32 -18,0 -32,-14 -32,-32l0 -320z"/><polygon class="fil1" points="288,768 1760,768 1760,832 288,832 "/><path class="fil1" d="M992 298c0,-18 14,-32 32,-32 18,0 32,14 32,32l0 320c0,18 -14,32 -32,32 -18,0 -32,-14 -32,-32l0 -320z"/><path class="fil1" d="M1360 298c0,-18 14,-32 32,-32 18,0 32,14 32,32l0 320c0,18 -14,32 -32,32 -18,0 -32,-14 -32,-32l0 -320z"/><path class="fil1" d="M1002 1504l0 69 -388 0c-1,-17 2,-34 8,-50 10,-26 26,-52 47,-78 22,-26 53,-55 94,-89 64,-52 107,-94 129,-124 22,-30 34,-59 34,-87 0,-29 -10,-53 -31,-72 -20,-20 -47,-29 -80,-29 -35,0 -62,10 -83,31 -21,21 -31,50 -32,86l-74 -8c5,-55 24,-97 57,-126 33,-29 78,-43 133,-43 56,0 101,16 133,47 33,31 49,70 49,116 0,23 -5,47 -14,69 -10,23 -26,47 -48,72 -22,25 -59,60 -111,103 -43,36 -71,61 -83,74 -12,13 -22,26 -30,39l288 0zm456 0l0 69 -388 0c-1,-17 2,-34 8,-50 10,-26 26,-52 47,-78 22,-26 53,-55 94,-89 64,-52 107,-94 129,-124 22,-30 34,-59 34,-87 0,-29 -10,-53 -31,-72 -20,-20 -47,-29 -80,-29 -35,0 -62,10 -83,31 -21,21 -31,50 -32,86l-74 -8c5,-55 24,-97 57,-126 33,-29 78,-43 133,-43 56,0 101,16 133,47 33,31 49,70 49,116 0,23 -5,47 -14,69 -10,23 -26,47 -48,72 -22,25 -59,60 -111,103 -43,36 -71,61 -83,74 -12,13 -22,26 -30,39l288 0z"/><rect class="fil2" height="2048" width="2048"/></g></svg>