<?xml version="1.0" ?><!DOCTYPE svg  PUBLIC '-//W3C//DTD SVG 1.1//EN'  'http://www.w3.org/Graphics/SVG/1.1/DTD/svg11.dtd'><svg height="2048px" style="shape-rendering:geometricPrecision; text-rendering:geometricPrecision; image-rendering:optimizeQuality; fill-rule:evenodd; clip-rule:evenodd" viewBox="0 0 2048 2048" width="2048px" xml:space="preserve" xmlns="http://www.w3.org/2000/svg" xmlns:xlink="http://www.w3.org/1999/xlink"><defs><style type="text/css">
   <![CDATA[
    .fil3 {fill:none}
    .fil0 {fill:#424242}
    .fil2 {fill:#FFFFFE}
    .fil1 {fill:#FFFFFE;fill-rule:nonzero}
   ]]>
  </style></defs><rect class="fil0" height="2048" width="2048"/><g id="Layer_x0020_1"><path class="fil1" d="M1632 1300c0,7 0,15 -1,25 0,8 -1,16 -2,25 -13,125 -72,236 -161,316 -88,79 -205,127 -332,127 -327,0 -395,-178 -478,-397 -34,-91 -72,-189 -134,-284l-56 -86c-33,-50 -27,-101 -1,-139 10,-14 23,-27 38,-36 15,-10 31,-17 48,-20 46,-9 95,5 129,56l117 175 0 -447c0,-62 33,-101 75,-118 16,-7 34,-10 51,-10 17,0 35,3 51,10 5,2 9,4 14,7l0 -120c0,-61 33,-100 76,-117 16,-6 33,-10 51,-10 17,0 35,3 51,10 43,17 77,57 77,117l0 3c4,-2 9,-4 13,-6 16,-6 34,-10 51,-10 18,0 35,3 51,10 43,17 77,56 77,117l0 134c5,-2 9,-5 14,-7 16,-7 34,-10 51,-10 18,0 35,3 51,10 43,17 76,56 76,117l0 488 0 71zm-768 -117c0,0 0,1 0,1 0,18 -14,32 -32,32 -11,0 -21,-6 -27,-15 -58,-93 -114,-187 -175,-280 -17,-26 -42,-33 -64,-29 -9,2 -18,6 -26,11 -8,5 -15,12 -20,19 -12,18 -15,42 2,67l56 86c65,100 104,202 140,296 74,197 135,356 418,356 112,0 213,-42 290,-110 77,-69 129,-166 140,-274 1,-7 1,-14 2,-21 0,-6 0,-13 0,-22l0 -71 0 -488c0,-30 -16,-50 -36,-58 -9,-3 -18,-5 -27,-5 -9,0 -19,2 -28,5 -21,9 -38,29 -38,61l0 0 -64 0 0 0c0,-2 0,-5 0,-7l1 -241c0,-30 -16,-49 -37,-58 -9,-3 -18,-5 -28,-5 -10,0 -19,2 -28,5 -21,8 -37,27 -37,58l-64 0 0 -114c0,-30 -16,-49 -37,-58 -9,-3 -18,-5 -27,-5 -9,0 -19,2 -27,5 -20,8 -36,27 -36,58l0 230 -64 0c0,-30 -17,-49 -38,-58 -9,-4 -18,-5 -28,-5 -9,0 -18,2 -27,5 -20,8 -35,27 -35,59l0 569z"/><path class="fil1" d="M1440 695l0 389c0,1 0,2 0,4 0,1 0,2 0,4l0 0 0 0c-2,16 -15,28 -32,28 -16,0 -30,-12 -32,-28l0 0 0 -396 64 0z"/><path class="fil1" d="M1248 483l0 604 0 1 0 1 0 3 0 0c-2,16 -15,28 -32,28 -16,0 -30,-12 -32,-28l0 0 0 -608 64 0z"/><path class="fil1" d="M1056 574l0 517 0 0c-2,16 -15,28 -32,28 -16,0 -30,-12 -32,-28l0 0 0 -3c0,0 0,-1 0,-1 0,0 0,-1 0,-1l0 -513 64 0z"/><circle class="fil2" cx="1216" cy="1088" r="32"/><rect class="fil3" height="2048" width="2048"/></g></svg>