<?xml version="1.0" ?><!DOCTYPE svg  PUBLIC '-//W3C//DTD SVG 1.1//EN'  'http://www.w3.org/Graphics/SVG/1.1/DTD/svg11.dtd'><svg height="2048px" style="shape-rendering:geometricPrecision; text-rendering:geometricPrecision; image-rendering:optimizeQuality; fill-rule:evenodd; clip-rule:evenodd" viewBox="0 0 2048 2048" width="2048px" xml:space="preserve" xmlns="http://www.w3.org/2000/svg" xmlns:xlink="http://www.w3.org/1999/xlink"><defs><style type="text/css">
   <![CDATA[
    .fil3 {fill:none}
    .fil0 {fill:#424242}
    .fil2 {fill:#FFFFFE}
    .fil1 {fill:#FFFFFE;fill-rule:nonzero}
   ]]>
  </style></defs><rect class="fil0" height="2048" width="2048"/><g id="Layer_x0020_1"><path class="fil1" d="M345 456l89 0 155 -124 52 -42 0 67 0 523 0 67 -52 -42 -155 -124 -89 0c-17,0 -33,-7 -44,-18 -11,-11 -18,-27 -18,-44l0 -200c0,-17 7,-33 18,-44 11,-11 27,-18 44,-18zm100 64l-99 0 0 198 99 0 20 7 111 89 0 -390 -111 89 -20 7z"/><path class="fil1" d="M883 971c-12,13 -32,14 -45,3 -13,-12 -14,-32 -3,-45 37,-42 66,-89 85,-140 19,-51 30,-106 30,-161 0,-59 -12,-117 -34,-171 -22,-54 -54,-104 -96,-146 -12,-13 -12,-33 1,-45 13,-12 33,-12 45,1 47,48 84,105 109,166 25,61 38,128 38,195 0,63 -12,125 -34,184 -22,58 -55,113 -97,160z"/><path class="fil1" d="M784 858c-11,14 -31,16 -45,5 -14,-11 -16,-31 -5,-45 21,-27 38,-57 49,-89 11,-32 17,-65 17,-100 0,-39 -7,-77 -21,-113 -14,-35 -35,-68 -62,-96 -12,-13 -12,-33 1,-45 13,-12 33,-12 45,1 32,34 58,74 75,117 17,43 26,89 26,136 0,41 -7,82 -20,121 -13,38 -33,75 -59,107z"/><path class="fil1" d="M1163 1266l89 0 155 -124 52 -42 0 67 0 523 0 67 -52 -42 -155 -124 -89 0c-17,0 -33,-7 -44,-18 -11,-11 -18,-27 -18,-44l0 -200c0,-17 7,-33 18,-44 11,-11 27,-18 44,-18zm100 64l-99 0 0 198 99 0 20 7 111 89 0 -390 -111 89 -20 7z"/><path class="fil1" d="M1502 1359c-12,-12 -12,-33 0,-45 12,-12 33,-12 45,0l185 185c12,12 12,33 0,45 -12,12 -33,12 -45,0l-185 -185z"/><path class="fil1" d="M1547 1544c-12,12 -33,12 -45,0 -12,-12 -12,-33 0,-45l185 -185c12,-12 33,-12 45,0 12,12 12,33 0,45l-185 185z"/><path class="fil1" d="M345 1266l89 0 155 -124 52 -42 0 67 0 523 0 67 -52 -42 -155 -124 -89 0c-17,0 -33,-7 -44,-18 -11,-11 -18,-27 -18,-44l0 -200c0,-17 7,-33 18,-44 11,-11 27,-18 44,-18zm100 64l-99 0 0 198 99 0 20 7 111 89 0 -390 -111 89 -20 7z"/><path class="fil1" d="M935 1781c-12,13 -32,14 -45,3 -13,-12 -14,-32 -3,-45 37,-42 66,-89 85,-140 19,-51 30,-106 30,-161 0,-59 -12,-117 -34,-171 -22,-54 -54,-104 -96,-146 -12,-13 -12,-33 1,-45 13,-12 33,-12 45,1 47,48 84,105 109,166 25,61 38,128 38,195 0,63 -12,125 -34,184 -22,58 -55,113 -97,160z"/><path class="fil1" d="M836 1668c-11,14 -31,16 -45,5 -14,-11 -16,-31 -5,-45 21,-27 38,-57 49,-89 11,-32 17,-65 17,-100 0,-39 -7,-77 -21,-113 -14,-35 -35,-68 -62,-96 -12,-13 -12,-33 1,-45 13,-12 33,-12 45,1 32,34 58,74 75,117 17,43 26,89 26,136 0,41 -7,82 -20,121 -13,38 -33,75 -59,107z"/><path class="fil1" d="M756 1541c-11,14 -31,16 -45,5 -14,-11 -16,-31 -5,-45 8,-10 14,-21 18,-32 4,-11 6,-23 6,-36 0,-14 -3,-28 -8,-41 -5,-13 -13,-25 -22,-35 -12,-13 -12,-33 1,-45 13,-12 33,-12 45,1 15,16 27,35 35,55 8,20 12,42 12,64 0,19 -3,39 -10,57 -6,18 -16,35 -28,51z"/><path class="fil1" d="M1438 296l231 150c9,6 15,15 17,25 2,10 0,21 -6,30l-280 430c-6,9 -15,15 -25,17 -10,2 -21,0 -30,-6l-231 -150c-9,-6 -15,-15 -17,-25 -2,-10 0,-21 6,-30l280 -430c6,-9 15,-15 25,-17 10,-2 21,0 30,6zm176 190l-191 -124 -253 390 191 124 253 -390z"/><polygon class="fil1" points="1216,624 1460,783 1425,836 1181,678 "/><rect class="fil2" height="32" transform="matrix(0.692903 0.449976 -0.449977 0.692903 1280.36 767.387)" width="32"/><path class="fil1" d="M1281 767l22 14 1 1 -1 1 -14 22 -1 1 -1 -1 -22 -14 -1 -1 1 -1 14 -22 1 -1 1 1zm20 16l-20 -13 -13 20 20 13 13 -20z"/><path class="fil1" d="M1278 324c10,-15 29,-19 44,-9 15,10 19,29 9,44l-144 222c-10,15 -29,19 -44,9 -15,-10 -19,-29 -9,-44l144 -222z"/><path class="fil1" d="M1197 303c10,-15 29,-19 44,-9 15,10 19,29 9,44l-115 177c-10,15 -29,19 -44,9 -15,-10 -19,-29 -9,-44l115 -177z"/><path class="fil1" d="M1655 569c10,-15 29,-19 44,-9 15,10 19,29 9,44l-144 222c-10,15 -29,19 -44,9 -15,-10 -19,-29 -9,-44l144 -222z"/><path class="fil1" d="M1707 635c10,-15 29,-19 44,-9 15,10 19,29 9,44l-115 177c-10,15 -29,19 -44,9 -15,-10 -19,-29 -9,-44l115 -177z"/><rect class="fil3" height="2048" width="2048"/></g></svg>