<?xml version="1.0" ?><!DOCTYPE svg  PUBLIC '-//W3C//DTD SVG 1.1//EN'  'http://www.w3.org/Graphics/SVG/1.1/DTD/svg11.dtd'><svg height="2048px" style="shape-rendering:geometricPrecision; text-rendering:geometricPrecision; image-rendering:optimizeQuality; fill-rule:evenodd; clip-rule:evenodd" viewBox="0 0 2048 2048" width="2048px" xml:space="preserve" xmlns="http://www.w3.org/2000/svg" xmlns:xlink="http://www.w3.org/1999/xlink"><defs><style type="text/css">
   <![CDATA[
    .fil1 {fill:none}
    .fil0 {fill:#424242}
    .fil2 {fill:#FFFFFE;fill-rule:nonzero}
   ]]>
  </style></defs><rect class="fil0" height="2048" width="2048"/><g id="Layer_x0020_1"><rect class="fil1" height="2048" width="2048"/><path class="fil2" d="M1009 1729l93 -67 12 -9 14 4 215 54 0 -42 -237 -110 -19 -9 0 -20 0 -131 0 -2 31 -462 2 -37 36 8 561 118 -21 -102 -559 -238 -20 -8 0 -21 0 -178c0,-36 -10,-75 -26,-110 -17,-36 -39,-68 -65,-90 -3,-3 -10,-8 -18,-13 -1,-1 -2,-1 -2,-2 -7,5 -14,10 -16,11l0 0c-27,21 -51,53 -68,90 -17,36 -27,77 -27,114l0 178 0 21 -20 8 -561 239 -21 102 560 -119 36 -8 3 37 33 462 0 2 0 131 0 20 -19 9 -237 110 0 42 215 -54 14 -4 12 9 93 67zm118 -7l-100 72 -19 13 -19 -13 -100 -72 -241 60 -40 10 0 -41 0 -103 0 -20 19 -9 237 -110 0 -110 -31 -424 -572 122 -48 10 10 -48 34 -166 3 -16 15 -7 557 -238 0 -157c0,-46 13,-96 34,-141 21,-45 52,-86 86,-113l0 0c2,-2 17,-12 28,-19 14,-8 29,-12 41,-6l0 0c7,3 15,8 23,13 9,6 18,12 23,17 33,28 62,68 82,112 20,44 32,92 32,137l0 157 555 236 15 7 3 16 34 166 10 48 -47 -10 -572 -120 -29 424 0 110 237 110 19 9 0 20 0 103 0 41 -40 -10 -241 -60z"/><rect class="fil1" height="2048" width="2048"/></g></svg>