<?xml version="1.0" ?><!DOCTYPE svg  PUBLIC '-//W3C//DTD SVG 1.1//EN'  'http://www.w3.org/Graphics/SVG/1.1/DTD/svg11.dtd'><svg height="2048px" style="shape-rendering:geometricPrecision; text-rendering:geometricPrecision; image-rendering:optimizeQuality; fill-rule:evenodd; clip-rule:evenodd" viewBox="0 0 2048 2048" width="2048px" xml:space="preserve" xmlns="http://www.w3.org/2000/svg" xmlns:xlink="http://www.w3.org/1999/xlink"><defs><style type="text/css">
   <![CDATA[
    .fil2 {fill:none}
    .fil0 {fill:#424242}
    .fil1 {fill:#FFFFFE;fill-rule:nonzero}
   ]]>
  </style></defs><rect class="fil0" height="2048" width="2048"/><g id="Layer_x0020_1"><g id="_487316136"><path class="fil1" d="M606 1600l738 0c114,0 218,-47 294,-122 75,-75 122,-179 122,-294 0,-114 -47,-218 -122,-294 -75,-75 -179,-122 -294,-122l-1028 0 0 -64 1028 0c132,0 252,54 339,141 87,87 141,207 141,339 0,132 -54,252 -141,339 -87,87 -207,141 -339,141l-738 0 0 -64z"/><polygon class="fil1" points="641,439 347,733 641,1027 595,1072 279,755 256,733 279,710 595,393 "/></g><rect class="fil2" height="2048" width="2048"/></g></svg>