<?xml version="1.0" ?><!DOCTYPE svg  PUBLIC '-//W3C//DTD SVG 1.1//EN'  'http://www.w3.org/Graphics/SVG/1.1/DTD/svg11.dtd'><svg height="2048px" style="shape-rendering:geometricPrecision; text-rendering:geometricPrecision; image-rendering:optimizeQuality; fill-rule:evenodd; clip-rule:evenodd" viewBox="0 0 2048 2048" width="2048px" xml:space="preserve" xmlns="http://www.w3.org/2000/svg" xmlns:xlink="http://www.w3.org/1999/xlink"><defs><style type="text/css">
   <![CDATA[
    .fil1 {fill:none}
    .fil0 {fill:#424242}
    .fil2 {fill:#FFFFFE;fill-rule:nonzero}
   ]]>
  </style></defs><rect class="fil0" height="2048" width="2048"/><g id="Layer_x0020_1"><rect class="fil1" height="2048" width="2048"/><path class="fil2" d="M1162 1327c26,-47 73,-57 126,-68 -1,0 -1,0 10,-2 17,-4 30,0 41,8 13,10 19,24 20,41 0,11 -1,23 -5,36 -10,40 -39,91 -59,103l0 0c-17,10 -55,28 -89,39 -28,9 -55,13 -72,6l-1 0c-32,-13 -32,-43 -17,-78 9,-21 23,-45 35,-66 5,-8 9,-15 11,-19l0 0zm131 -4c-34,7 -64,15 -75,35l0 0c-4,8 -8,14 -12,20 -9,15 -19,32 -26,46 2,-1 4,-1 6,-2 29,-9 62,-25 76,-33l0 0c9,-6 24,-37 30,-64 0,-1 1,-2 1,-3zm-136 108c0,0 0,0 1,0 -4,-1 -5,-2 -1,0z"/><path class="fil2" d="M1736 1104c-5,-4 -9,-10 -14,-16 -4,-6 -10,-13 -16,-22l-1 -1c0,0 -4,-6 -8,-13 -7,-11 -17,-26 -26,-41 -15,17 -35,43 -50,62 -12,15 -20,26 -25,30l-1 0c-17,14 -33,12 -46,-5 -14,-17 -13,-143 -13,-186 0,-7 0,15 0,-11 0,-1 -2,-5 -6,-9 -8,-11 -21,-23 -29,-30l0 0c-1,-1 -7,-6 -14,-12 -6,-5 -13,-12 -21,-19 0,7 -3,14 -10,21l-1 1c-7,7 -30,15 -55,23 -26,8 -56,15 -73,18l0 0c-53,10 -82,-46 -96,-71l0 0c-3,-5 -7,-13 -11,-22 -2,19 -4,37 -3,40l0 0c4,5 4,6 4,7 15,23 34,51 34,77 0,18 9,-17 18,-16 15,1 31,3 44,7l0 0c34,10 40,30 33,53 -4,14 -14,23 -23,32 -2,2 -4,4 -5,5l0 0c-7,8 -21,18 -39,29 -19,11 -42,24 -65,35l0 0c-13,6 -27,20 -40,36 -22,26 -40,57 -49,74l0 0c-10,18 -26,45 -44,68 -14,19 -30,37 -45,50l0 0c-19,16 -79,41 -136,56 -46,13 -94,20 -122,13l0 0c-34,-8 -54,-47 -66,-95 -16,-64 -18,-150 -15,-174 2,-17 7,-36 13,-56 7,-24 14,-49 13,-63 -1,-17 1,-38 4,-58 5,-25 12,-50 18,-60l0 0c2,-4 5,-8 8,-11 -1,0 -1,-1 -2,-1l0 0c-10,-5 -15,-12 -22,-20 -8,-9 -19,-23 -38,-28l0 0c-60,-14 -71,-71 -78,-108 -1,-3 -1,-6 -2,-9l0 0c-8,-37 29,-112 38,-131l1 -2 0 0c10,-20 104,-102 104,-102l6 -5c0,0 55,-28 77,-27 44,3 85,37 96,47 12,8 65,45 100,102l0 0c19,30 56,40 68,42 7,-1 13,-4 18,-7 7,-5 10,-7 10,-7l0 0c0,-2 0,-3 0,-5 0,-4 -2,-7 -4,-10 -2,-2 -4,-4 -8,-5 -7,7 -16,13 -32,13 -34,0 -42,-41 -50,-76 -1,-4 -2,-7 -2,-10 -23,-11 -64,-35 -71,-65 -6,-29 9,-54 67,-66l0 0c15,-3 39,-5 64,-6 14,-1 27,-1 39,0 -1,-1 -1,-2 -2,-3 -11,-17 -15,-38 -1,-64l1 -1c3,-5 7,-10 13,-14 4,-3 9,-6 15,-8l17 47 8 4 1 -1 0 0c0,0 0,-1 0,0l-1 1 3 2c0,0 -1,-2 -2,-3 2,2 7,5 11,8l0 0c33,19 38,40 26,61 -15,26 -72,30 -123,33 -23,1 -44,3 -55,5l0 0c-2,0 -3,0 -5,0 12,6 28,14 33,16l0 0c9,4 13,6 18,18l0 0c3,8 5,19 8,32 1,5 -6,11 -12,16 5,-3 10,-5 18,-5 7,0 14,0 21,1 18,3 34,13 46,26 12,13 19,30 20,49 0,6 0,13 -1,20l0 0c-2,12 -16,33 -38,48 -14,9 -31,17 -52,18l-7 0c0,0 -78,-11 -117,-72l0 0c-32,-52 -82,-83 -83,-83l-5 -4c0,0 -30,-30 -58,-31 -4,0 -32,14 -42,19 -16,14 -82,72 -85,79l-1 1c-8,15 -37,75 -33,90l0 0c1,3 1,7 2,10 4,21 10,53 29,58l0 0c41,10 61,34 74,50 2,3 -1,2 1,3 4,2 7,4 11,6 6,3 4,9 9,8l2 0c15,-2 42,18 54,37 3,5 5,9 7,14 3,8 4,16 2,24 -4,16 -14,26 -32,27l0 0c-10,1 -20,-1 -31,-3 -4,-1 6,-25 -1,-13l0 0c-3,5 -7,21 -11,40 -3,15 -4,30 -3,42 2,25 -7,56 -15,85 -5,17 -9,34 -11,47 -2,20 0,95 14,151 6,26 13,46 19,48l0 0c17,4 53,-2 90,-12 50,-14 99,-33 113,-44l0 0c11,-9 23,-23 35,-39 16,-21 30,-44 38,-60l0 0c10,-19 31,-55 56,-85 18,-22 39,-42 61,-53l0 0c23,-12 45,-23 61,-32 4,-3 8,-5 12,-7 -37,-3 -72,-8 -72,-47 0,-7 -13,-26 -23,-42 -3,-4 -4,-6 -5,-7l0 0c-14,-22 -9,-61 -5,-93 2,-13 3,-24 3,-27l0 0c-3,-17 6,-46 15,-61 3,-5 7,-10 11,-14l0 0c11,-9 23,-12 37,-7 10,4 18,12 22,24 3,8 11,29 20,50 8,19 17,38 21,46l0 0c6,12 21,39 28,38l0 0c15,-3 41,-9 63,-15 -15,-16 -31,-34 -37,-50 -9,-25 -4,-45 24,-56l0 0c42,-16 126,59 163,92 5,4 8,7 12,10l0 0c11,10 28,25 40,42 11,15 18,31 18,47 0,22 0,-6 0,11 0,18 -1,54 -1,85 24,-29 51,-59 67,-65 22,-8 101,87 110,109m-365 -235c7,-7 4,-5 -2,1 1,0 1,0 2,-1zm-597 61l0 2c2,-1 3,-2 1,-2l0 0 -1 0zm0 2l0 -2c-2,0 -3,0 -5,0 0,1 0,3 0,4 1,-1 3,-2 5,-3zm220 -448c0,1 3,3 7,6 -5,-4 -8,-10 -7,-6zm152 -94l0 0 3 4c1,-1 3,-4 4,-5l-3 -2 -4 3 0 0 0 1zm3 4c0,0 0,0 0,0m1 -7l-6 -4 2 6m0 1l2 5c0,0 1,-1 1,-1"/><path class="fil2" d="M1024 1728c194,0 370,-79 498,-206 127,-127 206,-303 206,-498 0,-194 -79,-370 -206,-498 -127,-127 -303,-206 -498,-206 -194,0 -370,79 -498,206 -127,127 -206,303 -206,498 0,194 79,370 206,498 127,127 303,206 498,206zm543 -161c-139,139 -331,225 -543,225 -212,0 -404,-86 -543,-225 -139,-139 -225,-331 -225,-543 0,-212 86,-404 225,-543 139,-139 331,-225 543,-225 212,0 404,86 543,225 139,139 225,331 225,543 0,212 -86,404 -225,543z"/><path class="fil2" d="M537 1537c15,-3 -20,3 -20,2 -3,-14 -8,-32 -14,-52 -24,-82 -57,-200 -21,-291 10,-25 12,-41 15,-58 4,-28 8,-58 36,-119 19,-41 22,-67 15,-79 -1,-1 -2,-2 -3,-3 -3,-1 -7,-1 -13,1 -25,7 -56,36 -77,87l-3 6c-8,11 -3,36 2,63 8,45 17,93 -14,138l-8 12 -14 2c-28,4 -56,-28 -86,-62 -18,-21 -16,-56 -27,-49l-34 -55c35,-22 73,21 109,62 8,9 13,17 17,25 2,-19 -2,-40 -6,-60 -7,-39 -14,-76 7,-108 29,-69 76,-109 116,-121 18,-5 35,-5 50,0 17,6 31,17 40,34 15,28 14,74 -14,135 -24,53 -28,78 -31,102 -3,21 -6,41 -19,73 -28,71 2,177 23,250 6,22 12,42 15,57 8,40 3,66 -29,73l-13 -62z"/><rect class="fil1" height="2048" width="2048"/></g></svg>