<?xml version="1.0" ?><!DOCTYPE svg  PUBLIC '-//W3C//DTD SVG 1.1//EN'  'http://www.w3.org/Graphics/SVG/1.1/DTD/svg11.dtd'><svg height="2048px" style="shape-rendering:geometricPrecision; text-rendering:geometricPrecision; image-rendering:optimizeQuality; fill-rule:evenodd; clip-rule:evenodd" viewBox="0 0 2048 2048" width="2048px" xml:space="preserve" xmlns="http://www.w3.org/2000/svg" xmlns:xlink="http://www.w3.org/1999/xlink"><defs><style type="text/css">
   <![CDATA[
    .fil3 {fill:none}
    .fil0 {fill:#424242}
    .fil2 {fill:#FFFFFE}
    .fil1 {fill:#FFFFFE;fill-rule:nonzero}
   ]]>
  </style></defs><rect class="fil0" height="2048" width="2048"/><g id="Layer_x0020_1"><path class="fil1" d="M1260 800l424 0c12,0 23,5 31,13l0 0c8,8 13,19 13,31l0 0 0 776 0 0c0,12 -5,23 -13,31l0 0c-8,8 -19,13 -31,13l-424 0c-12,0 -23,-5 -31,-13 -8,-8 -13,-19 -13,-31l0 -776c0,-12 5,-23 13,-31 8,-8 19,-13 31,-13zm404 64l-384 0 0 736 384 0 0 -736z"/><polygon class="fil1" points="1248,1408 1696,1408 1696,1472 1248,1472 "/><rect class="fil2" height="40" width="41" x="1452" y="1512"/><path class="fil1" d="M1452 1511l41 0 1 0 0 1 0 40 0 1 -1 0 -41 0 -1 0 0 -1 0 -40 0 -1 1 0zm40 2l-39 0 0 38 39 0 0 -38z"/><path class="fil1" d="M320 1620l0 -424c0,-12 5,-23 13,-31l0 0c8,-8 19,-13 31,-13l0 0 776 0 0 0c12,0 23,5 31,13l0 0c8,8 13,19 13,31l0 424c0,12 -5,23 -13,31 -8,8 -19,13 -31,13l-776 0c-12,0 -23,-5 -31,-13 -8,-8 -13,-19 -13,-31zm64 -404l0 384 736 0 0 -384 -736 0z"/><polygon class="fil1" points="928,1632 928,1184 992,1184 992,1632 "/><rect class="fil2" height="32" transform="matrix(-8.88031E-009 -1.27218 1.25 7.19557E-007 1032 1428.35)" width="32"/><path class="fil1" d="M1031 1428l0 -41 0 -1 1 0 40 0 1 0 0 1 0 41 0 1 -1 0 -40 0 -1 0 0 -1zm2 -40l0 39 38 0 0 -39 -38 0z"/><path class="fil1" d="M1225 512c18,-1 33,13 34,30 1,18 -13,33 -30,34 -49,3 -97,12 -143,28 -46,16 -90,38 -130,66 -57,40 -106,90 -143,147 -37,57 -64,122 -77,190 -3,17 -20,29 -37,25 -17,-3 -29,-20 -25,-37 15,-77 44,-149 86,-213 42,-64 96,-121 160,-165 45,-31 94,-56 146,-74 52,-18 106,-29 160,-32z"/><path class="fil1" d="M1306 512c14,10 18,30 7,45 -10,14 -30,18 -45,7l-183 -132c-14,-10 -18,-30 -7,-45 10,-14 30,-18 45,-7l183 132z"/><path class="fil1" d="M1269 512c14,-10 34,-7 45,7 10,14 7,34 -7,45l-183 132c-14,10 -34,7 -45,-7 -10,-14 -7,-34 7,-45l183 -132z"/><path class="fil1" d="M734 1108c-10,14 -30,18 -45,7 -14,-10 -18,-30 -7,-45l132 -183c10,-14 30,-18 45,-7 14,10 18,30 7,45l-132 183z"/><path class="fil1" d="M734 1070c10,14 7,34 -7,45 -14,10 -34,7 -45,-7l-132 -183c-10,-14 -7,-34 7,-45 14,-10 34,-7 45,7l132 183z"/><rect class="fil3" height="2048" width="2048"/></g></svg>