<?xml version="1.0" ?><!DOCTYPE svg  PUBLIC '-//W3C//DTD SVG 1.1//EN'  'http://www.w3.org/Graphics/SVG/1.1/DTD/svg11.dtd'><svg height="2048px" style="shape-rendering:geometricPrecision; text-rendering:geometricPrecision; image-rendering:optimizeQuality; fill-rule:evenodd; clip-rule:evenodd" viewBox="0 0 2048 2048" width="2048px" xml:space="preserve" xmlns="http://www.w3.org/2000/svg" xmlns:xlink="http://www.w3.org/1999/xlink"><defs><style type="text/css">
   <![CDATA[
    .fil2 {fill:none}
    .fil0 {fill:#424242}
    .fil1 {fill:#FFFFFE;fill-rule:nonzero}
   ]]>
  </style></defs><rect class="fil0" height="2048" width="2048"/><g id="Layer_x0020_1"><path class="fil1" d="M365 256l1319 0c30,0 57,12 77,32 20,20 32,47 32,77l0 1319c0,30 -12,57 -32,77 -20,20 -47,32 -77,32l-1319 0c-30,0 -57,-12 -77,-32 -20,-20 -32,-47 -32,-77l0 -1319c0,-30 12,-57 32,-77 20,-20 47,-32 77,-32zm1319 64l-1319 0c-12,0 -23,5 -32,13 -8,8 -13,19 -13,32l0 1319c0,12 5,23 13,32 8,8 19,13 32,13l1319 0c12,0 23,-5 32,-13 8,-8 13,-19 13,-32l0 -1319c0,-12 -5,-23 -13,-32 -8,-8 -19,-13 -32,-13z"/><path class="fil1" d="M418 384l1213 0 32 0 0 32 0 288 0 32 -32 0 -1213 0 -32 0 0 -32 0 -288 0 -32 32 0zm1181 64l-1149 0 0 224 1149 0 0 -224z"/><path class="fil1" d="M418 832l542 0 32 0 0 32 0 320 0 32 -32 0 -542 0 -32 0 0 -32 0 -320 0 -32 32 0zm510 64l-478 0 0 256 478 0 0 -256z"/><path class="fil1" d="M418 1280l542 0 32 0 0 32 0 320 0 32 -32 0 -542 0 -32 0 0 -32 0 -320 0 -32 32 0zm510 64l-478 0 0 256 478 0 0 -256z"/><path class="fil1" d="M1088 832l542 0 32 0 0 32 0 320 0 32 -32 0 -542 0 -32 0 0 -32 0 -320 0 -32 32 0zm510 64l-478 0 0 256 478 0 0 -256z"/><path class="fil1" d="M1088 1280l542 0 32 0 0 32 0 320 0 32 -32 0 -542 0 -32 0 0 -32 0 -320 0 -32 32 0zm510 64l-478 0 0 256 478 0 0 -256z"/><polygon class="fil1" points="576,992 768,992 768,1056 576,1056 "/><polygon class="fil1" points="640,1120 640,928 704,928 704,1120 "/><polygon class="fil1" points="581,1517 717,1381 763,1427 627,1563 "/><polygon class="fil1" points="717,1563 581,1427 627,1381 763,1517 "/><polygon class="fil1" points="1247,992 1471,992 1471,1056 1247,1056 "/><polygon class="fil1" points="1247,1488 1471,1488 1471,1552 1247,1552 "/><polygon class="fil1" points="1247,1392 1471,1392 1471,1456 1247,1456 "/><rect class="fil2" height="2048" width="2048"/></g></svg>