<?xml version="1.0" ?><!DOCTYPE svg  PUBLIC '-//W3C//DTD SVG 1.1//EN'  'http://www.w3.org/Graphics/SVG/1.1/DTD/svg11.dtd'><svg height="2048px" style="shape-rendering:geometricPrecision; text-rendering:geometricPrecision; image-rendering:optimizeQuality; fill-rule:evenodd; clip-rule:evenodd" viewBox="0 0 2048 2048" width="2048px" xml:space="preserve" xmlns="http://www.w3.org/2000/svg" xmlns:xlink="http://www.w3.org/1999/xlink"><defs><style type="text/css">
   <![CDATA[
    .fil2 {fill:none}
    .fil0 {fill:#424242}
    .fil1 {fill:#FFFFFE;fill-rule:nonzero}
   ]]>
  </style></defs><rect class="fil0" height="2048" width="2048"/><g id="Layer_x0020_1"><path class="fil1" d="M338 704l302 0 0 -70c0,-42 17,-81 45,-109 28,-28 66,-45 109,-45l459 0c42,0 81,17 109,45 28,28 45,66 45,109l0 70 302 0c23,0 43,9 58,24 15,15 24,35 24,58l0 828c0,23 -9,43 -24,58 -15,15 -35,24 -58,24l-1372 0c-23,0 -43,-9 -58,-24 -15,-15 -24,-35 -24,-58l0 -828c0,-23 9,-43 24,-58 15,-15 35,-24 58,-24zm334 64l-334 0c-5,0 -9,2 -13,5 -3,3 -5,8 -5,13l0 828c0,5 2,9 5,13 3,3 8,5 13,5l1372 0c5,0 9,-2 13,-5 3,-3 5,-8 5,-13l0 -828c0,-5 -2,-9 -5,-13 -3,-3 -8,-5 -13,-5l-334 0 -32 0 0 -32 0 -102c0,-25 -10,-47 -26,-64 -16,-16 -39,-26 -64,-26l-459 0c-25,0 -47,10 -64,26 -16,16 -26,39 -26,64l0 102 0 32 -32 0z"/><path class="fil1" d="M1024 768c115,0 219,47 294,122 75,75 122,179 122,294 0,115 -47,219 -122,294 -75,75 -179,122 -294,122 -115,0 -219,-47 -294,-122 -75,-75 -122,-179 -122,-294 0,-115 47,-219 122,-294 75,-75 179,-122 294,-122zm249 167c-64,-64 -152,-103 -249,-103 -97,0 -185,39 -249,103 -64,64 -103,152 -103,249 0,97 39,185 103,249 64,64 152,103 249,103 97,0 185,-39 249,-103 64,-64 103,-152 103,-249 0,-97 -39,-185 -103,-249z"/><rect class="fil2" height="2048" width="2048"/></g></svg>