<?xml version="1.0" ?><!DOCTYPE svg  PUBLIC '-//W3C//DTD SVG 1.1//EN'  'http://www.w3.org/Graphics/SVG/1.1/DTD/svg11.dtd'><svg height="2048px" style="shape-rendering:geometricPrecision; text-rendering:geometricPrecision; image-rendering:optimizeQuality; fill-rule:evenodd; clip-rule:evenodd" viewBox="0 0 2048 2048" width="2048px" xml:space="preserve" xmlns="http://www.w3.org/2000/svg" xmlns:xlink="http://www.w3.org/1999/xlink"><defs><style type="text/css">
   <![CDATA[
    .fil2 {fill:none}
    .fil0 {fill:#424242}
    .fil3 {fill:#FFFFFE}
    .fil1 {fill:#FFFFFE;fill-rule:nonzero}
   ]]>
  </style></defs><rect class="fil0" height="2048" width="2048"/><g id="Layer_x0020_1"><polygon class="fil1" points="768,1312 288,1312 256,1312 256,1280 256,514 256,482 288,482 1248,482 1280,482 1280,514 1280,769 1216,769 1216,546 320,546 320,1248 768,1248 "/><polygon class="fil1" points="288,705 1248,705 1248,769 288,769 "/><line class="fil2" x1="576" x2="576" y1="385" y2="641"/><path class="fil1" d="M544 385c0,-18 14,-32 32,-32 18,0 32,14 32,32l0 256c0,18 -14,32 -32,32 -18,0 -32,-14 -32,-32l0 -256z"/><line class="fil2" x1="960" x2="960" y1="385" y2="641"/><path class="fil1" d="M928 385c0,-18 14,-32 32,-32 18,0 32,14 32,32l0 256c0,18 -14,32 -32,32 -18,0 -32,-14 -32,-32l0 -256z"/><path class="fil1" d="M1328 800c137,0 261,56 351,145 90,90 145,214 145,351 0,137 -56,261 -145,351 -90,90 -214,145 -351,145 -137,0 -261,-56 -351,-145 -90,-90 -145,-214 -145,-351 0,-137 56,-261 145,-351 90,-90 214,-145 351,-145zm305 191c-78,-78 -186,-127 -305,-127 -119,0 -227,48 -305,127 -78,78 -127,186 -127,305 0,119 48,227 127,305 78,78 186,127 305,127 119,0 227,-48 305,-127 78,-78 127,-186 127,-305 0,-119 -48,-227 -127,-305z"/><circle class="fil3" cx="1328" cy="1296" r="40"/><path class="fil1" d="M1463 1037c10,-15 30,-19 44,-9 15,10 19,30 9,44l-150 225c-10,15 -30,19 -44,9 -15,-10 -19,-30 -9,-44l150 -225z"/><path class="fil1" d="M971 1164c-16,-8 -23,-27 -15,-43 8,-16 27,-23 43,-15l325 153c16,8 23,27 15,43 -8,16 -27,23 -43,15l-325 -153z"/><path class="fil1" d="M952 926c1,-4 1,-8 1,-12 0,-20 -7,-37 -22,-51 -14,-14 -33,-21 -56,-21 -25,0 -44,7 -59,22 -15,15 -22,35 -22,61l-52 -5c4,-39 17,-69 40,-89 23,-20 55,-31 94,-31 40,0 71,11 94,33 15,14 25,31 30,49 -16,13 -31,26 -46,41 -1,1 -2,2 -3,3z"/><path class="fil1" d="M806 1216l-75 0c0,-12 2,-24 6,-35 7,-19 18,-37 33,-55 15,-18 38,-39 67,-63 11,-9 21,-17 30,-26 -18,32 -33,67 -44,102 -9,9 -16,18 -21,27l14 0c-4,16 -7,32 -10,49z"/><path class="fil1" d="M608 1216l-51 0 0 -324c-12,12 -28,23 -48,35 -20,12 -38,20 -54,26l0 -49c28,-13 53,-30 75,-49 21,-19 36,-38 45,-55l33 0 0 416z"/><rect class="fil2" height="2048" width="2048"/></g></svg>