<?xml version="1.0" ?><!DOCTYPE svg  PUBLIC '-//W3C//DTD SVG 1.1//EN'  'http://www.w3.org/Graphics/SVG/1.1/DTD/svg11.dtd'><svg height="2048px" style="shape-rendering:geometricPrecision; text-rendering:geometricPrecision; image-rendering:optimizeQuality; fill-rule:evenodd; clip-rule:evenodd" viewBox="0 0 2048 2048" width="2048px" xml:space="preserve" xmlns="http://www.w3.org/2000/svg" xmlns:xlink="http://www.w3.org/1999/xlink"><defs><style type="text/css">
   <![CDATA[
    .fil2 {fill:none}
    .fil0 {fill:#424242}
    .fil1 {fill:#FFFFFE;fill-rule:nonzero}
   ]]>
  </style></defs><rect class="fil0" height="2048" width="2048"/><g id="Layer_x0020_1"><path class="fil1" d="M768 1720l0 -686 -165 -248 -33 -50 60 0 756 0 60 0 -33 50 -165 248 0 686c0,20 -8,38 -21,51 -13,13 -31,21 -51,21l-336 0c-20,0 -38,-8 -51,-21 -13,-13 -21,-31 -21,-51zm64 -696l0 696c0,2 1,4 2,6 1,1 3,2 6,2l336 0c2,0 4,-1 6,-2 1,-1 2,-3 2,-6l0 -696 5 -18 137 -206 -637 0 137 206 5 18z"/><polygon class="fil1" points="807,992 1209,992 1209,1056 807,1056 "/><path class="fil1" d="M976 256c0,-18 14,-32 32,-32 18,0 32,14 32,32l0 333c0,18 -14,32 -32,32 -18,0 -32,-14 -32,-32l0 -333z"/><path class="fil1" d="M662 321c-7,-16 1,-35 18,-42 16,-7 35,1 42,18l109 269c7,16 -1,35 -18,42 -16,7 -35,-1 -42,-18l-109 -269z"/><path class="fil1" d="M1295 297c7,-16 25,-24 42,-18 16,7 24,25 18,42l-109 269c-7,16 -25,24 -42,18 -16,-7 -24,-25 -18,-42l109 -269z"/><path class="fil1" d="M427 417c-10,-15 -5,-35 9,-44 15,-10 35,-5 44,9l112 173c10,15 5,35 -9,44 -15,10 -35,5 -44,-9l-112 -173z"/><path class="fil1" d="M1535 382c10,-15 29,-19 44,-9 15,10 19,29 9,44l-112 173c-10,15 -29,19 -44,9 -15,-10 -19,-29 -9,-44l112 -173z"/><rect class="fil2" height="2048" width="2048"/></g></svg>