<?xml version="1.0" ?><!DOCTYPE svg  PUBLIC '-//W3C//DTD SVG 1.1//EN'  'http://www.w3.org/Graphics/SVG/1.1/DTD/svg11.dtd'><svg height="2048px" style="shape-rendering:geometricPrecision; text-rendering:geometricPrecision; image-rendering:optimizeQuality; fill-rule:evenodd; clip-rule:evenodd" viewBox="0 0 2048 2048" width="2048px" xml:space="preserve" xmlns="http://www.w3.org/2000/svg" xmlns:xlink="http://www.w3.org/1999/xlink"><defs><style type="text/css">
   <![CDATA[
    .fil2 {fill:none}
    .fil0 {fill:#424242}
    .fil1 {fill:#FFFFFE;fill-rule:nonzero}
   ]]>
  </style></defs><rect class="fil0" height="2048" width="2048"/><g id="Layer_x0020_1"><path class="fil1" d="M517 728c23,0 46,3 68,9 7,2 14,4 21,7 16,-95 63,-179 131,-242 78,-73 182,-117 296,-117 80,0 154,22 218,59 60,35 110,84 147,142 6,-1 11,-2 17,-3 14,-2 27,-3 41,-3 93,0 176,38 237,98 61,61 98,144 98,237 0,29 -4,57 -12,83 -8,26 -18,50 -31,73l-9 17 -19 0 -633 0 0 -64 614 0c7,-14 13,-29 17,-44 6,-20 9,-42 9,-65 0,-75 -30,-143 -79,-192 -49,-49 -117,-79 -192,-79 -11,0 -23,1 -33,2 -11,1 -22,3 -33,6l-24 6 -12 -21c-32,-57 -79,-105 -136,-138 -55,-32 -118,-50 -186,-50 -98,0 -186,38 -252,100 -66,62 -110,149 -116,245l-3 52 -45 -26c-15,-9 -31,-15 -48,-20 -16,-4 -34,-7 -52,-7 -54,0 -104,22 -139,58 -36,36 -58,85 -58,139 0,11 1,21 2,30 0,2 1,3 1,5l637 0 0 64 -662 0 -23 0 -7 -22c-4,-13 -7,-26 -9,-38 -2,-13 -3,-25 -3,-39 0,-72 29,-137 77,-185 47,-47 113,-77 185,-77z"/><polygon class="fil1" points="1057,705 1057,1587 993,1587 993,705 "/><polygon class="fil1" points="1452,1204 1047,1609 1025,1632 1002,1609 597,1204 642,1159 1025,1541 1407,1159 "/><rect class="fil2" height="2048" width="2048"/></g></svg>