<?xml version="1.0" ?><!DOCTYPE svg  PUBLIC '-//W3C//DTD SVG 1.1//EN'  'http://www.w3.org/Graphics/SVG/1.1/DTD/svg11.dtd'><svg height="2048px" style="shape-rendering:geometricPrecision; text-rendering:geometricPrecision; image-rendering:optimizeQuality; fill-rule:evenodd; clip-rule:evenodd" viewBox="0 0 2048 2048" width="2048px" xml:space="preserve" xmlns="http://www.w3.org/2000/svg" xmlns:xlink="http://www.w3.org/1999/xlink"><defs><style type="text/css">
   <![CDATA[
    .fil1 {fill:none}
    .fil0 {fill:#424242}
    .fil2 {fill:#FFFFFE;fill-rule:nonzero}
   ]]>
  </style></defs><rect class="fil0" height="2048" width="2048"/><g id="Layer_x0020_1"><rect class="fil1" height="2048" width="2048"/><path class="fil2" d="M992 256c0,-18 14,-32 32,-32 18,0 32,14 32,32l0 320c0,18 -14,32 -32,32 -18,0 -32,-14 -32,-32l0 -320z"/><path class="fil2" d="M457 504c-12,-12 -12,-33 0,-45 12,-12 33,-12 45,0l226 226c12,12 12,33 0,45 -12,12 -33,12 -45,0l-226 -226z"/><path class="fil2" d="M1545 459c12,-12 33,-12 45,0 12,12 12,33 0,45l-226 226c-12,12 -33,12 -45,0 -12,-12 -12,-33 0,-45l226 -226z"/><path class="fil2" d="M255 1057c-18,0 -32,-14 -32,-32 0,-18 14,-32 32,-32l320 0c18,0 32,14 32,32 0,18 -14,32 -32,32l-320 0z"/><path class="fil2" d="M992 1475c0,-18 14,-32 32,-32 18,0 32,14 32,32l0 320c0,18 -14,32 -32,32 -18,0 -32,-14 -32,-32l0 -320z"/><path class="fil2" d="M1319 1366c-12,-12 -12,-33 0,-45 12,-12 33,-12 45,0l226 226c12,12 12,33 0,45 -12,12 -33,12 -45,0l-226 -226z"/><path class="fil2" d="M684 1321c12,-12 33,-12 45,0 12,12 12,33 0,45l-226 226c-12,12 -33,12 -45,0 -12,-12 -12,-33 0,-45l226 -226z"/><path class="fil2" d="M1473 1057c-18,0 -32,-14 -32,-32 0,-18 14,-32 32,-32l320 0c18,0 32,14 32,32 0,18 -14,32 -32,32l-320 0z"/><path class="fil2" d="M1170 670c23,10 46,22 67,35 21,14 41,30 58,48 17,17 33,37 48,58 14,21 26,43 36,67 10,23 17,47 22,72 5,24 7,49 7,75 0,25 -3,50 -7,75 -5,25 -12,49 -22,72 -10,23 -22,46 -36,67 -14,21 -30,41 -48,58 -17,17 -37,33 -58,48 -21,14 -43,26 -67,35 -23,10 -47,17 -72,22 -24,5 -49,7 -75,7 -25,0 -50,-3 -75,-7 -25,-5 -49,-12 -72,-22 -23,-10 -46,-22 -67,-35 -21,-14 -41,-30 -58,-48 -17,-17 -33,-37 -48,-58 -14,-21 -26,-43 -36,-67 -10,-23 -17,-47 -22,-72 -5,-24 -7,-49 -7,-75 0,-52 10,-101 29,-147 20,-47 48,-89 83,-125 17,-17 37,-33 58,-48 21,-14 43,-26 67,-35 23,-10 47,-17 72,-22 24,-5 49,-7 75,-7 25,0 50,3 75,7 25,5 49,12 72,22zm31 88c-17,-12 -36,-21 -55,-29 -19,-8 -39,-14 -60,-18 -20,-4 -41,-6 -62,-6 -21,0 -42,2 -62,6 -21,4 -41,10 -60,18 -19,8 -38,18 -55,29 -17,11 -33,25 -48,40 -30,30 -53,65 -69,104 -16,38 -24,79 -24,122 0,21 2,42 6,62 4,21 10,41 18,60 8,20 18,38 30,55 11,17 25,33 40,48 15,15 31,28 48,40 17,12 36,21 55,29 19,8 39,14 60,18 20,4 41,6 62,6 21,0 42,-2 62,-6 21,-4 41,-10 60,-18 19,-8 38,-18 55,-29 17,-11 33,-25 48,-40 15,-15 28,-31 40,-48 12,-17 21,-36 30,-55 8,-19 14,-39 18,-60 4,-20 6,-41 6,-62 0,-21 -2,-42 -6,-62 -4,-21 -10,-41 -18,-60 -8,-20 -18,-38 -30,-55 -11,-17 -25,-33 -40,-48 -15,-15 -31,-28 -48,-40z"/><path class="fil2" d="M1056 1024l0 255 0 32 -32 0c-79,0 -151,-32 -203,-84 -52,-52 -84,-123 -84,-203 0,-79 32,-151 84,-203 52,-52 123,-84 203,-84l32 0 0 32 0 255 0 0zm-64 220l0 -220 0 0 0 -220c-49,7 -92,30 -125,63 -40,40 -65,96 -65,157 0,61 25,117 65,157 33,33 77,56 125,63z"/></g></svg>