<?xml version="1.0" ?><!DOCTYPE svg  PUBLIC '-//W3C//DTD SVG 1.1//EN'  'http://www.w3.org/Graphics/SVG/1.1/DTD/svg11.dtd'><svg height="2048px" style="shape-rendering:geometricPrecision; text-rendering:geometricPrecision; image-rendering:optimizeQuality; fill-rule:evenodd; clip-rule:evenodd" viewBox="0 0 2048 2048" width="2048px" xml:space="preserve" xmlns="http://www.w3.org/2000/svg" xmlns:xlink="http://www.w3.org/1999/xlink"><defs><style type="text/css">
   <![CDATA[
    .fil2 {fill:none}
    .fil0 {fill:#424242}
    .fil1 {fill:#FFFFFE;fill-rule:nonzero}
   ]]>
  </style></defs><rect class="fil0" height="2048" width="2048"/><g id="Layer_x0020_1"><path class="fil1" d="M992 256c0,-18 14,-32 32,-32 18,0 32,14 32,32l0 1536c0,18 -14,32 -32,32 -18,0 -32,-14 -32,-32l0 -1536z"/><path class="fil1" d="M256 1056c-18,0 -32,-14 -32,-32 0,-18 14,-32 32,-32l1536 0c18,0 32,14 32,32 0,18 -14,32 -32,32l-1536 0z"/><rect class="fil2" height="2048" width="2048"/></g></svg>