<?xml version="1.0" ?><!DOCTYPE svg  PUBLIC '-//W3C//DTD SVG 1.1//EN'  'http://www.w3.org/Graphics/SVG/1.1/DTD/svg11.dtd'><svg height="2048px" style="shape-rendering:geometricPrecision; text-rendering:geometricPrecision; image-rendering:optimizeQuality; fill-rule:evenodd; clip-rule:evenodd" viewBox="0 0 2048 2048" width="2048px" xml:space="preserve" xmlns="http://www.w3.org/2000/svg" xmlns:xlink="http://www.w3.org/1999/xlink"><defs><style type="text/css">
   <![CDATA[
    .fil0 {fill:none}
    .fil1 {fill:#212121;fill-rule:nonzero}
   ]]>
  </style></defs><g id="Layer_x0020_1"><g id="_270952464"><rect class="fil0" height="2048" id="_270952776" width="2048"/><rect class="fil0" height="1536" id="_270953568" width="1536" x="255.999" y="255.999"/></g><g id="_270954000"><path class="fil1" d="M384 351.998l1280 0 32.0008 0 0 32.0008 0 1280 0 32.0008 -32.0008 0 -1280 0 -32.0008 0 0 -32.0008 0 -1280 0 -32.0008 32.0008 0zm1248 64.0016l-1216 0 0 1216 1216 0 0 -1216z" id="_270946776"/><polygon class="fil1" id="_270953592" points="704,607.998 1312,607.998 1312,671.999 736.001,671.999 736.001,1472 671.999,1472 671.999,607.999 704,607.999 "/><polygon class="fil1" id="_270954336" points="704,1408 1312,1408 1312,1472 704,1472 "/><polygon class="fil1" id="_270948240" points="704,992 1088,992 1088,1056 704,1056 "/></g></g></svg>