<?xml version="1.0" ?><!DOCTYPE svg  PUBLIC '-//W3C//DTD SVG 1.1//EN'  'http://www.w3.org/Graphics/SVG/1.1/DTD/svg11.dtd'><svg height="2048px" style="shape-rendering:geometricPrecision; text-rendering:geometricPrecision; image-rendering:optimizeQuality; fill-rule:evenodd; clip-rule:evenodd" viewBox="0 0 2048 2048" width="2048px" xml:space="preserve" xmlns="http://www.w3.org/2000/svg" xmlns:xlink="http://www.w3.org/1999/xlink"><defs><style type="text/css">
   <![CDATA[
    .fil0 {fill:none}
    .fil1 {fill:#212121;fill-rule:nonzero}
   ]]>
  </style></defs><g id="Layer_x0020_1"><g id="_269423920"><rect class="fil0" height="2048" id="_269419096" width="2048"/><rect class="fil0" height="1536" id="_269419936" width="1536" x="255.999" y="255.999"/></g><path class="fil1" d="M1056 351.999c0,-17.6728 -14.328,-32.0008 -32.0008,-32.0008 -17.6728,0 -32.0008,14.328 -32.0008,32.0008l0 192c0,17.6728 14.328,32.0008 32.0008,32.0008 17.6728,0 32.0008,-14.328 32.0008,-32.0008l0 -192zm0 1152c0,-17.6728 -14.328,-32.0008 -32.0008,-32.0008 -17.6728,0 -32.0008,14.328 -32.0008,32.0008l0 192c0,17.6728 14.328,32.0008 32.0008,32.0008 17.6728,0 32.0008,-14.328 32.0008,-32.0008l0 -192zm465.8 -932.551c12.4949,-12.4949 12.4949,-32.7555 0,-45.2504 -12.4949,-12.4949 -32.7555,-12.4949 -45.2504,0l-135.764 135.764c-12.4949,12.4949 -12.4949,32.7555 0,45.2504 12.4949,12.4949 32.7555,12.4949 45.2504,0l135.764 -135.764zm-814.587 814.587c12.4949,-12.4949 12.4949,-32.7555 0,-45.2504 -12.4949,-12.4949 -32.7555,-12.4949 -45.2504,0l-135.764 135.764c-12.4949,12.4949 -12.4949,32.7555 0,45.2504 12.4949,12.4949 32.7555,12.4949 45.2504,0l135.764 -135.764zm988.787 -330.036c17.6728,0 32.0008,-14.328 32.0008,-32.0008 0,-17.6728 -14.328,-32.0008 -32.0008,-32.0008l-192 0c-17.6728,0 -32.0008,14.328 -32.0008,32.0008 0,17.6728 14.328,32.0008 32.0008,32.0008l192 0zm-1152 0c17.6728,0 32.0008,-14.328 32.0008,-32.0008 0,-17.6728 -14.328,-32.0008 -32.0008,-32.0008l-192 0c-17.6728,0 -32.0008,14.328 -32.0008,32.0008 0,17.6728 14.328,32.0008 32.0008,32.0008l192 0zm932.551 465.8c12.4949,12.4949 32.7555,12.4949 45.2504,0 12.4949,-12.4949 12.4949,-32.7555 0,-45.2504l-135.764 -135.764c-12.4949,-12.4949 -32.7555,-12.4949 -45.2504,0 -12.4949,12.4949 -12.4949,32.7555 0,45.2504l135.764 135.764zm-814.587 -814.587c12.4949,12.4949 32.7555,12.4949 45.2504,0 12.4949,-12.4949 12.4949,-32.7555 0,-45.2504l-135.764 -135.764c-12.4949,-12.4949 -32.7555,-12.4949 -45.2504,0 -12.4949,12.4949 -12.4949,32.7555 0,45.2504l135.764 135.764z"/></g></svg>