<?xml version="1.0" ?><!DOCTYPE svg  PUBLIC '-//W3C//DTD SVG 1.1//EN'  'http://www.w3.org/Graphics/SVG/1.1/DTD/svg11.dtd'><svg height="2048px" style="shape-rendering:geometricPrecision; text-rendering:geometricPrecision; image-rendering:optimizeQuality; fill-rule:evenodd; clip-rule:evenodd" viewBox="0 0 2048 2048" width="2048px" xml:space="preserve" xmlns="http://www.w3.org/2000/svg" xmlns:xlink="http://www.w3.org/1999/xlink"><defs><style type="text/css">
   <![CDATA[
    .fil0 {fill:none}
    .fil1 {fill:#212121;fill-rule:nonzero}
   ]]>
  </style></defs><g id="Layer_x0020_1"><g id="_189721024"><rect class="fil0" height="2048" id="_189710344" width="2048"/><rect class="fil0" height="1536" id="_189718048" width="1536" x="255.999" y="255.999"/></g><path class="fil1" d="M1437.59 1312c80.0445,0 152.675,-33.6485 205.31,-87.9638 52.7233,-54.4063 85.3855,-129.532 85.3855,-212.369 0,-76.0406 -25.5225,-142.251 -68.4331,-193.154 -44.9504,-53.3221 -109.153,-90.241 -183.341,-104.516l5.75788 -31.3748 -5.81103 31.4457c-10.4067,-2.00197 -18.6354,-9.03898 -22.7256,-18.1736 -33.9945,-61.852 -75.2693,-103.737 -124.408,-127.152 -49.8922,-23.7732 -109.219,-29.1756 -178.511,-17.7343l0.0165354 0.103937c-14.8075,2.44843 -28.8709,-6.11693 -34.1705,-19.7882 -44.5548,-95.1863 -114.304,-150.206 -188.434,-170.38 -44.3032,-12.0579 -90.2068,-11.8512 -133.224,-0.485433 -43.0252,11.3681 -83.2241,33.8717 -116.102,66.3957 -56.4532,55.8473 -91.506,141.751 -82.8379,252.441l0.0271654 -0.00236221c1.30748,16.6843 -10.1728,31.402 -26.0575,34.1091 -125.289,30.0331 -200.092,104.805 -231.949,191.651 -16.7138,45.5622 -21.7866,94.7198 -16.2721,142.684 5.50985,47.915 21.6154,94.382 47.2583,134.63 48.2433,75.7205 130.807,129.633 240.647,129.633l158.288 0 0 63.9993 -158.288 0c-133.326,0 -233.948,-66.078 -293.077,-158.882 -31.0004,-48.6579 -50.4449,-104.613 -57.0591,-162.131 -6.60709,-57.4666 -0.381496,-116.767 19.9477,-172.184 36.6225,-99.8339 118.46,-186.191 252.689,-225.332 -2.86299,-118.795 38.817,-212.798 103.074,-276.365 40.8154,-40.376 90.6816,-68.302 144.031,-82.3973 53.3599,-14.0976 110.158,-14.3941 164.83,0.485433 85.6654,23.3138 166.031,83.452 219.547,185.565 72.2646,-8.72245 136.102,-0.441733 192.085,26.2347 58.3878,27.8197 107.058,75.0709 146.597,143.286 82.2544,18.8717 153.717,61.8969 205.002,122.734 52.4339,62.2004 83.6221,142.665 83.6221,234.653 0,100.364 -39.5977,191.412 -103.515,257.369 -64.004,66.0461 -152.401,106.963 -249.899,106.963l-541.585 0 0 -63.9993 541.585 0z"/><polygon class="fil1" points="585.376,1558.63 809.376,1782.62 832.001,1805.25 854.626,1782.62 1078.63,1558.63 1033.38,1513.37 864.002,1682.75 864.002,1024 800,1024 800,1682.75 630.626,1513.37 "/></g></svg>