<?xml version="1.0" ?><!DOCTYPE svg  PUBLIC '-//W3C//DTD SVG 1.1//EN'  'http://www.w3.org/Graphics/SVG/1.1/DTD/svg11.dtd'><svg height="2048px" style="shape-rendering:geometricPrecision; text-rendering:geometricPrecision; image-rendering:optimizeQuality; fill-rule:evenodd; clip-rule:evenodd" viewBox="0 0 2048 2048" width="2048px" xml:space="preserve" xmlns="http://www.w3.org/2000/svg" xmlns:xlink="http://www.w3.org/1999/xlink"><defs><style type="text/css">
   <![CDATA[
    .fil0 {fill:none}
    .fil1 {fill:#212121;fill-rule:nonzero}
   ]]>
  </style></defs><g id="Layer_x0020_1"><g id="_271281328"><rect class="fil0" height="2048" id="_271277776" width="2048"/><rect class="fil0" height="1536" id="_271269376" width="1536" x="255.999" y="255.999"/></g><path class="fil1" d="M451.31 783.748c-0.93189,46.9973 17.6421,88.5048 47.9339,118.794 31.5154,31.5118 75.5717,50.9552 123.62,52.0666 23.8406,-0.551575 46.0819,-5.07402 66.6001,-13.6878 20.2772,-8.51339 38.8441,-21.0638 55.5886,-37.7717 16.4197,-16.4539 28.7835,-34.6359 36.952,-54.5315 8.06339,-19.6417 12.1571,-41.4721 12.1571,-65.4945 0,-48.815 -18.6142,-92.1013 -49.3583,-123.017 -30.5587,-30.7299 -73.3477,-49.4622 -121.978,-49.4622 -5.13307,0 -0.6,-0.141732 -3.50906,-0.0850394l-0.125197 0c-46.3559,0.903544 -88.402,19.8307 -118.872,50.2229 -30.2918,30.2114 -49.0477,71.8253 -49.0477,118.312l0.125197 0c0,5.3315 -0.142913,0.551575 -0.0862205,3.52914l0 1.12441zm2.68347 164.045c-41.8524,-41.85 -67.5615,-99.3438 -66.443,-164.641 -0.102756,-4.98426 -0.155906,-1.48228 -0.155906,-4.05709l0.125197 0c-0.0011811,-64.2721 25.9264,-121.8 67.7989,-163.563 41.6646,-41.5571 99.2221,-67.4481 162.748,-68.7201l0 -0.00354331c5.65985,-0.111024 2.38701,-0.165354 4.75867,-0.165354 66.2375,0 124.931,25.9288 167.229,68.4638 42.424,42.6615 68.1095,101.81 68.1095,168.017 0,32.1047 -5.77678,62.0245 -17.1579,89.745 -11.4343,27.8492 -28.4126,52.9642 -50.7567,75.3367l-0.125197 0.125197c-22.8402,22.813 -48.1973,39.9567 -75.9083,51.5918 -27.8811,11.7059 -58.193,17.8028 -90.7654,18.4536l-1.24961 0c-65.3445,-1.30748 -125.321,-27.7016 -168.207,-70.5827z"/><path class="fil1" d="M1344.6 1449.7l0 -3.77008 0 -55.48 48.0012 27.8551 271.52 157.56 0 -520.76 -271.07 165.839 -46.9252 28.7079 -1.57559 -55.0831c-1.66417,-58.1894 -17.2583,-101.157 -46.8827,-128.762 -29.8677,-27.8315 -75.7276,-41.8087 -137.693,-41.8087l0 -0.125197 -591.36 0.0165354 0 0.125197c-13.1055,0 6.36497,-0.18189 -3.18898,-0.113386l0 0.0011811c-62.0599,0.491339 -107.965,15.3095 -137.475,44.3386 -29.2158,28.7374 -43.9382,73.3465 -43.9382,133.713 0,12.3532 -0.183071,-6.17953 -0.112205,3.07914l0 0.125197 -0.00826772 244.542 0 0.125197 -0.0011811 0.22441c-0.451181,61.7859 14.3256,107.36 44.0977,136.725 30.0532,29.6433 77.0174,44.7213 140.633,45.2197l0.243307 0.00236221 591.109 0.0153543 0 -0.125197c63.7146,0 110.105,-15.0449 139.819,-43.9831 30.0614,-29.2748 44.8063,-74.7095 44.8063,-134.975l0 -3.22796zm61.1847 50.0752c-7.05591,55.7977 -27.4146,100.694 -61.4918,133.879 -42.0449,40.9465 -103.265,62.2335 -184.318,62.2335l0 -0.125197 -591.36 -0.0153543 -0.250394 0 -0.243307 -0.00236221c-80.8949,-0.634252 -142.631,-21.7961 -184.882,-63.4701 -42.5351,-41.9528 -63.6815,-102.788 -63.0993,-182.476l0.0011811 -0.22441 0.00826772 -244.292c-0.0129921,-1.71969 -0.0259843,-2.76024 -0.0366142,-3.32835l-0.0472441 0c-0.0354331,1.71024 -0.0543308,6.34371 -0.0543308,0 0,-78.0863 21.1713,-137.883 63.1902,-179.214 41.7237,-41.0422 102.405,-61.9619 181.723,-62.589l0.125197 0c1.84725,-0.0129921 2.96221,-0.0248032 3.56457,-0.0366142l0 0.0236221 591.36 -0.0165354 0 -0.125197c78.6461,0 139.002,19.7445 181.193,59.0599 32.1461,29.9551 52.7457,70.2922 61.8674,120.936l261.131 -159.757 15.3307 -9.36969 48.626 -29.7177 0 56.9682 0 615.997 0 17.237 0 55.4965 -48.0012 -27.8717 -15.1394 -8.79095 -259.198 -150.409zm-1085.67 -297.821c-0.0177165,-0.862205 -0.034252,-0.630709 -0.0472441,0l0.0472441 0zm248.502 -241.839c0.89882,-0.0165354 0.659056,-0.034252 0,-0.0472441l0 0.0472441zm0 -0.0472441c-1.80473,-0.0366142 -6.74646,-0.0543308 0,-0.0543308l0 0.0543308z"/><path class="fil1" d="M1112.07 440.432c-27.6355,0 -53.1414,3.41457 -76.643,10.2354 -23.4047,6.79371 -45.3615,17.0669 -65.9882,30.8103l-0.0188977 -0.0295276c-7.0004,4.68662 -14.0669,10.0819 -21.1406,16.0158 -7.21654,6.05315 -14.0008,12.3106 -20.3894,18.6756 -51.8185,51.7902 -75.7016,115.354 -76.539,177.944 -0.47126,35.1756 6.35788,70.2355 19.6158,102.894 13.2272,32.5843 32.8181,62.563 57.8953,87.6544 44.8595,44.8831 107.575,74.3764 183.21,75.4843 73.9146,-1.08425 139.231,-29.3941 185.877,-76.0347 46.0288,-46.0217 73.9229,-110.183 73.9229,-183.848 0,-73.4823 -28.3607,-138.346 -74.8347,-184.819 -46.6867,-46.6867 -111.806,-74.9823 -184.968,-74.9823zm-94.3926 -51.0142c29.8205,-8.65512 61.2355,-12.9874 94.3926,-12.9874 90.7902,0 171.855,35.3705 230.218,93.7335 58.1197,58.1185 93.5859,138.884 93.5859,230.069 0,91.4257 -34.9689,171.402 -92.6741,229.099 -58.0997,58.0937 -139.21,93.3154 -230.755,94.5426l-0.751182 0c-93.8599,-1.25787 -171.979,-38.1095 -228.083,-94.2426 -31.2331,-31.2496 -55.5579,-68.406 -71.8961,-108.654 -16.3087,-40.1764 -24.704,-83.6611 -24.1158,-127.645 1.05118,-78.482 30.7843,-157.973 95.2902,-222.443 7.98898,-7.95945 16.1327,-15.4996 24.3886,-22.4244 8.34804,-7.00394 17.2583,-13.7469 26.7851,-20.113l0.124016 -0.125197c25.7918,-17.1851 53.5689,-30.124 83.4898,-38.8087z"/></g></svg>