<?xml version="1.0" ?><!DOCTYPE svg  PUBLIC '-//W3C//DTD SVG 1.1//EN'  'http://www.w3.org/Graphics/SVG/1.1/DTD/svg11.dtd'><svg height="2048px" style="shape-rendering:geometricPrecision; text-rendering:geometricPrecision; image-rendering:optimizeQuality; fill-rule:evenodd; clip-rule:evenodd" viewBox="0 0 2048 2048" width="2048px" xml:space="preserve" xmlns="http://www.w3.org/2000/svg" xmlns:xlink="http://www.w3.org/1999/xlink"><defs><style type="text/css">
   <![CDATA[
    .fil0 {fill:none}
    .fil1 {fill:#212121;fill-rule:nonzero}
   ]]>
  </style></defs><g id="Layer_x0020_1"><g id="_189803616"><rect class="fil0" height="2048" id="_189797448" width="2048"/><rect class="fil0" height="1536" id="_189797808" width="1536" x="255.999" y="255.999"/></g><g id="_189799152"><path class="fil1" d="M1369.4 351.998c48.1063,0 91.6631,19.5024 123.193,51.0307 31.5284,31.5296 51.0307,75.0863 51.0307,123.193 0,48.1063 -19.5036,91.6642 -51.0307,123.191 -31.5296,31.5296 -75.0863,51.0319 -123.193,51.0319 -48.1063,0 -91.6631,-19.5024 -123.191,-51.0319 -31.5296,-31.5284 -51.0319,-75.0851 -51.0319,-123.191 0,-48.1063 19.5024,-91.6631 51.0319,-123.193 31.5272,-31.5272 75.0851,-51.0307 123.191,-51.0307zm77.9422 96.2812c-19.9441,-19.9429 -47.5016,-32.2796 -77.9422,-32.2796 -30.4406,0 -57.9981,12.3366 -77.941,32.2796 -19.9441,19.9441 -32.2807,47.5016 -32.2807,77.9422 0,30.4406 12.3366,57.9981 32.2807,77.941 19.9429,19.9441 47.5004,32.2807 77.941,32.2807 30.4406,0 57.9981,-12.3366 77.9422,-32.2807 19.9429,-19.9429 32.2796,-47.5004 32.2796,-77.941 0,-30.4406 -12.3366,-57.9981 -32.2796,-77.9422z" id="_189799488"/><path class="fil1" d="M678.603 880.254c48.1063,0 91.6642,19.5036 123.191,51.0307 31.5296,31.5296 51.0319,75.0863 51.0319,123.193 0,48.1063 -19.5024,91.6631 -51.0319,123.193 -31.5272,31.5272 -75.0851,51.0307 -123.191,51.0307 -48.1063,0 -91.6631,-19.5024 -123.193,-51.0307 -31.5284,-31.5296 -51.0307,-75.0863 -51.0307,-123.193 0,-48.1063 19.5024,-91.6631 51.0307,-123.193 31.5296,-31.5284 75.0863,-51.0307 123.193,-51.0307zm77.941 96.2812c-19.9429,-19.9429 -47.5004,-32.2796 -77.941,-32.2796 -30.4406,0 -57.9981,12.3366 -77.9422,32.2796 -19.9429,19.9441 -32.2796,47.5016 -32.2796,77.9422 0,30.4406 12.3366,57.9981 32.2796,77.9422 19.9441,19.9429 47.5016,32.2796 77.9422,32.2796 30.4406,0 57.9981,-12.3366 77.941,-32.2796 19.9441,-19.9441 32.2807,-47.5016 32.2807,-77.9422 0,-30.4406 -12.3366,-57.9981 -32.2807,-77.9422z" id="_189802608"/><path class="fil1" d="M1369.4 1347.55c48.1063,0 91.6631,19.5024 123.193,51.0319 31.5272,31.5272 51.0307,75.0851 51.0307,123.191 0,48.1063 -19.5024,91.6631 -51.0307,123.193 -31.5296,31.5284 -75.0863,51.0307 -123.193,51.0307 -48.1063,0 -91.6642,-19.5036 -123.191,-51.0307 -31.5296,-31.5296 -51.0319,-75.0863 -51.0319,-123.193 0,-48.1063 19.5024,-91.6631 51.0319,-123.191 31.5284,-31.5296 75.0851,-51.0319 123.191,-51.0319zm77.9422 96.2824c-19.9441,-19.9441 -47.5016,-32.2807 -77.9422,-32.2807 -30.4406,0 -57.9981,12.3366 -77.941,32.2807 -19.9441,19.9429 -32.2807,47.5004 -32.2807,77.941 0,30.4406 12.3366,57.9981 32.2807,77.9422 19.9429,19.9429 47.5004,32.2796 77.941,32.2796 30.4406,0 57.9981,-12.3366 77.9422,-32.2796 19.9429,-19.9441 32.2796,-47.5016 32.2796,-77.9422 0,-30.4406 -12.3366,-57.9981 -32.2796,-77.941z" id="_189796800"/><polygon class="fil1" id="_189800904" points="1270.18,629.312 810.144,991.67 770.643,941.418 1230.68,579.061 "/><polygon class="fil1" id="_189801960" points="1229.25,1477.58 762.064,1182.15 796.064,1128.15 1263.25,1423.58 "/></g></g></svg>