<?xml version="1.0" ?><!DOCTYPE svg  PUBLIC '-//W3C//DTD SVG 1.1//EN'  'http://www.w3.org/Graphics/SVG/1.1/DTD/svg11.dtd'><svg height="2048px" style="shape-rendering:geometricPrecision; text-rendering:geometricPrecision; image-rendering:optimizeQuality; fill-rule:evenodd; clip-rule:evenodd" viewBox="0 0 2048 2048" width="2048px" xml:space="preserve" xmlns="http://www.w3.org/2000/svg" xmlns:xlink="http://www.w3.org/1999/xlink"><defs><style type="text/css">
   <![CDATA[
    .fil0 {fill:none}
    .fil1 {fill:#212121;fill-rule:nonzero}
   ]]>
  </style></defs><g id="Layer_x0020_1"><g id="_271271512"><rect class="fil0" height="2048" id="_271281424" width="2048"/><rect class="fil0" height="1536" id="_271277560" width="1536" x="255.999" y="255.999"/></g><path class="fil1" d="M1504 463.468c0,-22.1528 -8.66457,-42.1441 -22.65,-56.5311 -13.7681,-14.1626 -32.7685,-22.937 -53.7071,-22.937l-807.286 0c-20.9433,0 -39.9437,8.77205 -53.7083,22.9335 -13.9854,14.387 -22.6488,34.3784 -22.6488,56.5347l0 1185.06c0,22.161 8.66103,42.1524 22.6441,56.5371 13.7658,14.1614 32.7662,22.9311 53.713,22.9311l807.286 0c20.941,0 39.9426,-8.77205 53.7107,-22.9347 13.9831,-14.3847 22.6465,-34.3748 22.6465,-56.5335l0 -1185.06zm23.1012 -101.03c25.2555,25.9807 40.9004,61.7268 40.9004,101.03l0 1185.06c0,39.3095 -15.6437,75.0544 -40.8969,101.033 -25.4764,26.2063 -60.6591,42.437 -99.4619,42.437l-807.286 0c-38.8087,0 -73.9902,-16.2284 -99.4642,-42.4335 -25.2544,-25.9795 -40.8945,-61.7245 -40.8945,-101.036l0 -1185.06c0,-39.3048 15.6437,-75.0532 40.8992,-101.034 25.4717,-26.2051 60.6532,-42.4359 99.4595,-42.4359l807.286 0c38.8004,0 73.9831,16.2343 99.4583,42.4394z"/><path class="fil1" d="M671.999 447.998l704.003 0c17.6327,0 33.6402,7.19174 45.2256,18.7748 11.5831,11.5854 18.7748,27.5929 18.7748,45.2256l0 224.001c0,17.6315 -7.19174,33.6402 -18.7748,45.2256 -11.5854,11.5831 -27.5929,18.7748 -45.2256,18.7748l-704.003 0c-17.6327,0 -33.6402,-7.19174 -45.2256,-18.7748 -11.5831,-11.5854 -18.7748,-27.5941 -18.7748,-45.2256l0 -224.001c0,-17.6327 7.19174,-33.6402 18.7748,-45.2256 11.5854,-11.5831 27.5929,-18.7748 45.2256,-18.7748zm704.003 64.0016l-0.0011811 0 0 -0.0011811c0,-0.0141732 -0.0011811,-0.00826772 -0.00472441,0.0011811l-703.991 0c-0.00354331,-0.00944883 -0.00472441,-0.0153543 -0.00472441,-0.0011811l0 0.0011811 -0.0011811 0c-0.0141732,0 -0.00826772,0.0011811 0.0011811,0.00472441l0 223.988c-0.00944883,0.00354331 -0.0153543,0.00590552 -0.0011811,0.00590552l0.0011811 0 0 0.0011811c0,0.0129921 0.0011811,0.00826772 0.00472441,-0.0011811l703.991 0c0.00236221,0.00826772 0.00472441,0.0141732 0.00472441,0.0011811l0 -0.0011811 0.0011811 0c0.0141732,0 0.00826772,-0.00236221 -0.0011811,-0.00590552l0 -223.988c0.00826772,-0.00236221 0.0153543,-0.00472441 0.0011811,-0.00472441zm-0.0011811 0l-0.00472441 0 -0.00354331 0.00826772c-0.00354331,0.0106299 -0.00944883,0.0212599 -0.0153543,0.0153543 -0.00590552,-0.00590552 0.00354331,-0.011811 0.0153543,-0.0153543l0.00826772 -0.00354331 0 -0.00472441zm-703.995 0l-0.00472441 0 0 0.00472441 0.00826772 0.00354331c0.0106299,0.00354331 0.0212599,0.00944883 0.0153543,0.0153543 -0.00590552,0.00590552 -0.011811,-0.00472441 -0.0153543,-0.0153543l-0.00354331 -0.00826772zm703.995 223.999l0 -0.00590552 -0.00826772 -0.00354331 0.0011811 0.00236221 -0.00236221 -0.00236221c-0.0106299,-0.00354331 -0.0200788,-0.00826772 -0.0141732,-0.0141732 0.00708662,-0.00708662 0.011811,0.00354331 0.0153543,0.0141732l-0.0011811 0 0.00236221 0.00236221 0.00236221 0.00708662 0.00472441 0zm-704 0l0.00472441 0 0.00236221 -0.00708662 0.00236221 -0.00236221 -0.0011811 0c0.00354331,-0.00944883 0.00826772,-0.0212599 0.0153543,-0.0141732 0.00590552,0.00590552 -0.00472441,0.00944883 -0.0141732,0.0141732l-0.00236221 0.00236221 0.0011811 -0.00236221 -0.00826772 0.00354331 0 0.00590552z"/><path class="fil1" d="M671.999 863.998l96.0013 0c17.6315,0 33.6402,7.19174 45.2256,18.7748 11.5831,11.5854 18.7748,27.5929 18.7748,45.2256l0 96.0013c0,17.6327 -7.19174,33.6402 -18.7748,45.2256 -11.5854,11.5831 -27.5941,18.7748 -45.2256,18.7748l-96.0013 0c-17.6327,0 -33.6402,-7.19174 -45.2256,-18.7748 -11.5831,-11.5854 -18.7748,-27.5929 -18.7748,-45.2256l0 -96.0013c0,-17.6327 7.19174,-33.6402 18.7748,-45.2256 11.5854,-11.5831 27.5929,-18.7748 45.2256,-18.7748zm96.0013 64.0016l-0.0011811 0 0 -0.0011811c0,-0.0141732 -0.00236221,-0.00826772 -0.00590552,0.0011811l-95.9883 0c-0.00354331,-0.00944883 -0.00472441,-0.0153543 -0.00472441,-0.0011811l0 0.0011811 -0.0011811 0c-0.0141732,0 -0.00826772,0.0011811 0.0011811,0.00472441l0 95.9883c-0.00944883,0.00354331 -0.0153543,0.00590552 -0.0011811,0.00590552l0.0011811 0 0 0.0011811c0,0.0129921 0.0011811,0.00826772 0.00472441,-0.0011811l95.9894 0c0.00354331,0.00944883 0.00472441,0.0141732 0.00472441,0.0011811l0 -0.0011811 0.0011811 0c0.0129921,0 0.00826772,-0.0011811 -0.0011811,-0.00472441l0 -95.9894c0.00826772,-0.00236221 0.0141732,-0.00472441 0.0011811,-0.00472441zm-0.0011811 0l-0.00590552 0 -0.00354331 0.00826772 0.00236221 -0.0011811 -0.00236221 0.00236221c-0.00354331,0.0106299 -0.00826772,0.0200788 -0.0141732,0.0141732 -0.00708662,-0.00708662 0.00354331,-0.011811 0.0141732,-0.0153543l0 0.0011811 0.00236221 -0.00236221 0.00708662 -0.00236221 0 -0.00472441zm-95.9942 0l-0.00472441 0 0 0.00472441 0.00826772 0.00354331c0.0106299,0.00354331 0.0212599,0.00944883 0.0153543,0.0153543 -0.00590552,0.00590552 -0.011811,-0.00472441 -0.0153543,-0.0153543l-0.00354331 -0.00826772zm95.9942 95.9989l0 -0.00472441 -0.00944883 -0.00472441c-0.00944883,-0.00354331 -0.0200788,-0.00826772 -0.0141732,-0.0141732 0.00590552,-0.00590552 0.0106299,0.00354331 0.0141732,0.0141732l0.00472441 0.00944883 0.00472441 0zm-95.9989 0l0.00472441 0 0.00236221 -0.00708662 0.00236221 -0.00236221 -0.0011811 0c0.00354331,-0.00944883 0.00826772,-0.0212599 0.0153543,-0.0141732 0.00590552,0.00590552 -0.00472441,0.00944883 -0.0141732,0.0141732l-0.00236221 0.00236221 0.0011811 -0.00236221 -0.00826772 0.00354331 0 0.00590552zm308.866 -160.001l96.0013 0c17.6327,0 33.6402,7.19174 45.2256,18.7748 11.5831,11.5854 18.7748,27.5929 18.7748,45.2256l0 96.0013c0,17.6327 -7.19174,33.6402 -18.7748,45.2256 -11.5854,11.5831 -27.5929,18.7748 -45.2256,18.7748l-96.0013 0c-17.6327,0 -33.6402,-7.19174 -45.2256,-18.7748 -11.5831,-11.5854 -18.7748,-27.5929 -18.7748,-45.2256l0 -96.0013c0,-17.6327 7.19174,-33.6402 18.7748,-45.2256 11.5854,-11.5831 27.5929,-18.7748 45.2256,-18.7748zm96.0013 64.0016l-0.0011811 0 0 -0.0011811c0,-0.0141732 -0.0011811,-0.00826772 -0.00472441,0.0011811l-95.9894 0c-0.00354331,-0.00944883 -0.00472441,-0.0153543 -0.00472441,-0.0011811l0 0.0011811 -0.0011811 0c-0.0141732,0 -0.00826772,0.0011811 0.0011811,0.00472441l0 95.9883c-0.00944883,0.00354331 -0.0153543,0.00590552 -0.0011811,0.00590552l0.0011811 0 0 0.0011811c0,0.0129921 0.0011811,0.00826772 0.00472441,-0.0011811l95.9894 0c0.00236221,0.00826772 0.00472441,0.0141732 0.00472441,0.0011811l0 -0.0011811 0.0011811 0c0.0141732,0 0.00826772,-0.00236221 -0.0011811,-0.00590552l0 -95.9883c0.00826772,-0.00236221 0.0153543,-0.00472441 0.0011811,-0.00472441zm-0.0011811 0l-0.00472441 0 -0.00354331 0.00826772c-0.00354331,0.0106299 -0.00944883,0.0212599 -0.0153543,0.0153543 -0.00590552,-0.00590552 0.00354331,-0.011811 0.0153543,-0.0153543l0.00826772 -0.00354331 0 -0.00472441zm-95.9942 0l-0.00472441 0 0 0.00472441 0.00826772 0.00354331c0.0106299,0.00354331 0.0212599,0.00944883 0.0153543,0.0153543 -0.00590552,0.00590552 -0.011811,-0.00472441 -0.0153543,-0.0153543l-0.00354331 -0.00826772zm95.9942 95.9989l0 -0.00590552 -0.00826772 -0.00354331 0.0011811 0.00236221 -0.00236221 -0.00236221c-0.0106299,-0.00354331 -0.0200788,-0.00826772 -0.0141732,-0.0141732 0.00708662,-0.00708662 0.011811,0.00354331 0.0153543,0.0141732l-0.0011811 0 0.00236221 0.00236221 0.00236221 0.00708662 0.00472441 0zm-95.9989 0l0.00472441 0 0.00236221 -0.00708662 0.00236221 -0.00236221 -0.0011811 0c0.00354331,-0.00944883 0.00826772,-0.0212599 0.0153543,-0.0141732 0.00590552,0.00590552 -0.00472441,0.00944883 -0.0141732,0.0141732l-0.00236221 0.00236221 0.0011811 -0.00236221 -0.00826772 0.00354331 0 0.00590552zm-308.868 128l96.0013 0c17.6315,0 33.6402,7.19174 45.2256,18.7748 11.5831,11.5854 18.7748,27.5941 18.7748,45.2256l0 96.0013c0,17.6327 -7.19174,33.6402 -18.7748,45.2256 -11.5854,11.5831 -27.5941,18.7748 -45.2256,18.7748l-96.0013 0c-17.6327,0 -33.6402,-7.19174 -45.2256,-18.7748 -11.5831,-11.5854 -18.7748,-27.5929 -18.7748,-45.2256l0 -96.0013c0,-17.6315 7.19174,-33.6402 18.7748,-45.2256 11.5854,-11.5831 27.5929,-18.7748 45.2256,-18.7748zm96.0013 64.0016l-0.0011811 0 0 -0.0011811c0,-0.0129921 -0.0011811,-0.00826772 -0.00472441,0.0011811l-95.9894 0c-0.00354331,-0.00944883 -0.00472441,-0.0141732 -0.00472441,-0.0011811l0 0.0011811 -0.0011811 0c-0.0141732,0 -0.00826772,0.00236221 0.0011811,0.00590552l0 95.9883c-0.00826772,0.00236221 -0.0153543,0.00472441 -0.0011811,0.00472441l0.0011811 0 0 0.0011811c0,0.0141732 0.0011811,0.00826772 0.00472441,-0.0011811l95.9883 0c0.00354331,0.00944883 0.00590552,0.0153543 0.00590552,0.0011811l0 -0.0011811 0.0011811 0c0.0129921,0 0.00826772,-0.0011811 -0.0011811,-0.00472441l0 -95.9894c0.00944883,-0.00354331 0.0141732,-0.00472441 0.0011811,-0.00472441zm-0.0011811 0l-0.00472441 0 -0.00472441 0.00944883c-0.00354331,0.00944883 -0.00826772,0.0200788 -0.0141732,0.0141732 -0.00590552,-0.00590552 0.00354331,-0.0106299 0.0141732,-0.0141732l0.00944883 -0.00472441 0 -0.00472441zm-95.9942 0l-0.00472441 0 0 0.00590552 0.00826772 0.00354331 -0.0011811 -0.00236221 0.00236221 0.00236221c0.0106299,0.00354331 0.0200788,0.00826772 0.0141732,0.0141732 -0.00708662,0.00708662 -0.011811,-0.00472441 -0.0153543,-0.0141732l0.0011811 0 -0.00236221 -0.00236221 -0.00236221 -0.00708662zm95.9942 95.9989l0 -0.00472441 -0.00708662 -0.00236221 -0.00236221 -0.00236221 0 0.0011811c-0.00944883,-0.00354331 -0.0212599,-0.00826772 -0.0141732,-0.0153543 0.00590552,-0.00590552 0.00944883,0.00472441 0.0141732,0.0141732l0.00236221 0.00236221 -0.00236221 -0.0011811 0.00354331 0.00826772 0.00590552 0zm-95.9989 0l0.00472441 0 0.00354331 -0.00826772c0.00354331,-0.0106299 0.00944883,-0.0212599 0.0153543,-0.0153543 0.00590552,0.00590552 -0.00354331,0.011811 -0.0153543,0.0153543l-0.00826772 0.00354331 0 0.00472441zm308.866 -160.001l96.0013 0c17.6327,0 33.6402,7.19174 45.2256,18.7748 11.5831,11.5854 18.7748,27.5941 18.7748,45.2256l0 96.0013c0,17.6327 -7.19174,33.6402 -18.7748,45.2256 -11.5854,11.5831 -27.5929,18.7748 -45.2256,18.7748l-96.0013 0c-17.6327,0 -33.6402,-7.19174 -45.2256,-18.7748 -11.5831,-11.5854 -18.7748,-27.5929 -18.7748,-45.2256l0 -96.0013c0,-17.6315 7.19174,-33.6402 18.7748,-45.2256 11.5854,-11.5831 27.5929,-18.7748 45.2256,-18.7748zm96.0013 64.0016l-0.0011811 0 0 -0.0011811c0,-0.0129921 -0.0011811,-0.00826772 -0.00472441,0.0011811l-95.9894 0c-0.00354331,-0.00944883 -0.00472441,-0.0141732 -0.00472441,-0.0011811l0 0.0011811 -0.0011811 0c-0.0141732,0 -0.00826772,0.00236221 0.0011811,0.00590552l0 95.9883c-0.00826772,0.00236221 -0.0153543,0.00472441 -0.0011811,0.00472441l0.0011811 0 0 0.0011811c0,0.0141732 0.0011811,0.00826772 0.00472441,-0.0011811l95.9894 0c0.00236221,0.00826772 0.00472441,0.0153543 0.00472441,0.0011811l0 -0.0011811 0.0011811 0c0.0141732,0 0.00826772,-0.0011811 -0.0011811,-0.00472441l0 -95.9883c0.00944883,-0.00354331 0.0153543,-0.00590552 0.0011811,-0.00590552zm-0.0011811 0l-0.00472441 0 -0.00236221 0.00708662 -0.00236221 0.00236221 0.0011811 0c-0.00354331,0.00944883 -0.00826772,0.0212599 -0.0153543,0.0141732 -0.00590552,-0.00590552 0.00472441,-0.00944883 0.0141732,-0.0141732l0.00236221 -0.00236221 -0.0011811 0.00236221 0.00826772 -0.00354331 0 -0.00590552zm-95.9942 0l-0.00472441 0 0 0.00590552 0.00826772 0.00354331 -0.0011811 -0.00236221 0.00236221 0.00236221c0.0106299,0.00354331 0.0200788,0.00826772 0.0141732,0.0141732 -0.00708662,0.00708662 -0.011811,-0.00472441 -0.0153543,-0.0141732l0.0011811 0 -0.00236221 -0.00236221 -0.00236221 -0.00708662zm95.9942 95.9989l0 -0.00472441 -0.00826772 -0.00354331c-0.0106299,-0.00354331 -0.0212599,-0.00944883 -0.0153543,-0.0153543 0.00590552,-0.00590552 0.011811,0.00354331 0.0153543,0.0153543l0.00354331 0.00826772 0.00472441 0zm-95.9989 0l0.00472441 0 0.00354331 -0.00826772c0.00354331,-0.0106299 0.00944883,-0.0212599 0.0153543,-0.0153543 0.00590552,0.00590552 -0.00354331,0.011811 -0.0153543,0.0153543l-0.00826772 0.00354331 0 0.00472441zm-308.868 128l96.0013 0c17.6315,0 33.6402,7.19174 45.2256,18.7748 11.5831,11.5854 18.7748,27.5941 18.7748,45.2256l0 96.0013c0,17.6327 -7.19174,33.6402 -18.7748,45.2256 -11.5854,11.5831 -27.5941,18.7748 -45.2256,18.7748l-96.0013 0c-17.6327,0 -33.6402,-7.19174 -45.2256,-18.7748 -11.5831,-11.5854 -18.7748,-27.5929 -18.7748,-45.2256l0 -96.0013c0,-17.6315 7.19174,-33.6402 18.7748,-45.2256 11.5854,-11.5831 27.5929,-18.7748 45.2256,-18.7748zm96.0013 64.0016l-0.0011811 0 0 -0.0011811c0,-0.0129921 -0.0011811,-0.00826772 -0.00472441,0.0011811l-95.9894 0c-0.00354331,-0.00944883 -0.00472441,-0.0141732 -0.00472441,-0.0011811l0 0.0011811 -0.0011811 0c-0.0141732,0 -0.00826772,0.00236221 0.0011811,0.00590552l0 95.9883c-0.00826772,0.00236221 -0.0153543,0.00472441 -0.0011811,0.00472441l0.0011811 0 0 0.0011811c0,0.0141732 0.0011811,0.00826772 0.00472441,-0.0011811l95.9883 0c0.00354331,0.00944883 0.00590552,0.0153543 0.00590552,0.0011811l0 -0.0011811 0.0011811 0c0.0129921,0 0.00826772,-0.0011811 -0.0011811,-0.00472441l0 -95.9894c0.00944883,-0.00354331 0.0141732,-0.00472441 0.0011811,-0.00472441zm-0.0011811 0l-0.00472441 0 -0.00472441 0.00944883c-0.00354331,0.00944883 -0.00826772,0.0200788 -0.0141732,0.0141732 -0.00590552,-0.00590552 0.00354331,-0.0106299 0.0141732,-0.0141732l0.00944883 -0.00472441 0 -0.00472441zm-95.9942 0l-0.00472441 0 0 0.00590552 0.00826772 0.00354331 -0.0011811 -0.00236221 0.00236221 0.00236221c0.0106299,0.00354331 0.0200788,0.00826772 0.0141732,0.0141732 -0.00708662,0.00708662 -0.011811,-0.00472441 -0.0153543,-0.0141732l0.0011811 0 -0.00236221 -0.00236221 -0.00236221 -0.00708662zm95.9942 95.9989l0 -0.00472441 -0.00708662 -0.00236221 -0.00236221 -0.00236221 0 0.0011811c-0.00944883,-0.00354331 -0.0212599,-0.00826772 -0.0141732,-0.0153543 0.00590552,-0.00590552 0.00944883,0.00472441 0.0141732,0.0141732l0.00236221 0.00236221 -0.00236221 -0.0011811 0.00354331 0.00826772 0.00590552 0zm-95.9989 0l0.00472441 0 0.00354331 -0.00826772c0.00354331,-0.0106299 0.00944883,-0.0212599 0.0153543,-0.0153543 0.00590552,0.00590552 -0.00354331,0.011811 -0.0153543,0.0153543l-0.00826772 0.00354331 0 0.00472441zm308.866 -160.001l96.0013 0c17.6327,0 33.6402,7.19174 45.2256,18.7748 11.5831,11.5854 18.7748,27.5941 18.7748,45.2256l0 96.0013c0,17.6327 -7.19174,33.6402 -18.7748,45.2256 -11.5854,11.5831 -27.5929,18.7748 -45.2256,18.7748l-96.0013 0c-17.6327,0 -33.6402,-7.19174 -45.2256,-18.7748 -11.5831,-11.5854 -18.7748,-27.5929 -18.7748,-45.2256l0 -96.0013c0,-17.6315 7.19174,-33.6402 18.7748,-45.2256 11.5854,-11.5831 27.5929,-18.7748 45.2256,-18.7748zm96.0013 64.0016l-0.0011811 0 0 -0.0011811c0,-0.0129921 -0.0011811,-0.00826772 -0.00472441,0.0011811l-95.9894 0c-0.00354331,-0.00944883 -0.00472441,-0.0141732 -0.00472441,-0.0011811l0 0.0011811 -0.0011811 0c-0.0141732,0 -0.00826772,0.00236221 0.0011811,0.00590552l0 95.9883c-0.00826772,0.00236221 -0.0153543,0.00472441 -0.0011811,0.00472441l0.0011811 0 0 0.0011811c0,0.0141732 0.0011811,0.00826772 0.00472441,-0.0011811l95.9894 0c0.00236221,0.00826772 0.00472441,0.0153543 0.00472441,0.0011811l0 -0.0011811 0.0011811 0c0.0141732,0 0.00826772,-0.0011811 -0.0011811,-0.00472441l0 -95.9883c0.00944883,-0.00354331 0.0153543,-0.00590552 0.0011811,-0.00590552zm-0.0011811 0l-0.00472441 0 -0.00236221 0.00708662 -0.00236221 0.00236221 0.0011811 0c-0.00354331,0.00944883 -0.00826772,0.0212599 -0.0153543,0.0141732 -0.00590552,-0.00590552 0.00472441,-0.00944883 0.0141732,-0.0141732l0.00236221 -0.00236221 -0.0011811 0.00236221 0.00826772 -0.00354331 0 -0.00590552zm-95.9942 0l-0.00472441 0 0 0.00590552 0.00826772 0.00354331 -0.0011811 -0.00236221 0.00236221 0.00236221c0.0106299,0.00354331 0.0200788,0.00826772 0.0141732,0.0141732 -0.00708662,0.00708662 -0.011811,-0.00472441 -0.0153543,-0.0141732l0.0011811 0 -0.00236221 -0.00236221 -0.00236221 -0.00708662zm95.9942 95.9989l0 -0.00472441 -0.00826772 -0.00354331c-0.0106299,-0.00354331 -0.0212599,-0.00944883 -0.0153543,-0.0153543 0.00590552,-0.00590552 0.011811,0.00354331 0.0153543,0.0153543l0.00354331 0.00826772 0.00472441 0zm-95.9989 0l0.00472441 0 0.00354331 -0.00826772c0.00354331,-0.0106299 0.00944883,-0.0212599 0.0153543,-0.0153543 0.00590552,0.00590552 -0.00354331,0.011811 -0.0153543,0.0153543l-0.00826772 0.00354331 0 0.00472441z"/><path class="fil1" d="M1280 863.998l96.0013 0c17.6327,0 33.6402,7.19174 45.2256,18.7748 11.5831,11.5854 18.7748,27.5929 18.7748,45.2256l0 96.0013c0,17.6327 -7.19174,33.6402 -18.7748,45.2256 -11.5854,11.5831 -27.5929,18.7748 -45.2256,18.7748l-96.0013 0c-17.6315,0 -33.6402,-7.19174 -45.2256,-18.7748 -11.5831,-11.5854 -18.7748,-27.5929 -18.7748,-45.2256l0 -96.0013c0,-17.6327 7.19174,-33.6402 18.7748,-45.2256 11.5854,-11.5831 27.5941,-18.7748 45.2256,-18.7748zm96.0013 64.0016l-0.0011811 0 0 -0.0011811c0,-0.0141732 -0.0011811,-0.00826772 -0.00472441,0.0011811l-95.9883 0c-0.00354331,-0.00944883 -0.00590552,-0.0153543 -0.00590552,-0.0011811l0 0.0011811 -0.0011811 0c-0.0129921,0 -0.00826772,0.0011811 0.0011811,0.00472441l0 95.9894c-0.00944883,0.00354331 -0.0141732,0.00472441 -0.0011811,0.00472441l0.0011811 0 0 0.0011811c0,0.0129921 0.0011811,0.00826772 0.00472441,-0.0011811l95.9894 0c0.00236221,0.00826772 0.00472441,0.0141732 0.00472441,0.0011811l0 -0.0011811 0.0011811 0c0.0141732,0 0.00826772,-0.00236221 -0.0011811,-0.00590552l0 -95.9883c0.00826772,-0.00236221 0.0153543,-0.00472441 0.0011811,-0.00472441zm-0.0011811 0l-0.00472441 0 -0.00354331 0.00826772c-0.00354331,0.0106299 -0.00944883,0.0212599 -0.0153543,0.0153543 -0.00590552,-0.00590552 0.00354331,-0.011811 0.0153543,-0.0153543l0.00826772 -0.00354331 0 -0.00472441zm-95.993 0l-0.00590552 0 0 0.00472441 0.00708662 0.00236221 0.00236221 0.00236221 0 -0.0011811c0.00944883,0.00354331 0.0212599,0.00826772 0.0141732,0.0153543 -0.00590552,0.00590552 -0.0106299,-0.00354331 -0.0141732,-0.0141732l-0.00236221 -0.00236221 0.00236221 0.0011811 -0.00354331 -0.00826772zm95.993 95.9989l0 -0.00590552 -0.00826772 -0.00354331 0.0011811 0.00236221 -0.00236221 -0.00236221c-0.0106299,-0.00354331 -0.0200788,-0.00826772 -0.0141732,-0.0141732 0.00708662,-0.00708662 0.011811,0.00354331 0.0153543,0.0141732l-0.0011811 0 0.00236221 0.00236221 0.00236221 0.00708662 0.00472441 0zm-95.9989 0l0.00472441 0 0.00472441 -0.00944883c0.00354331,-0.00944883 0.00826772,-0.0200788 0.0141732,-0.0141732 0.00590552,0.00590552 -0.00354331,0.0106299 -0.0141732,0.0141732l-0.00944883 0.00472441 0 0.00472441z"/><path class="fil1" d="M1270.86 1152l114.287 0c15.1181,0 28.8402,6.16182 38.7685,16.0902 9.92599,9.92599 16.089,23.6492 16.089,38.7674l0 402.287c0,15.0343 -6.163,28.715 -16.089,38.6433l-0.125197 0.125197c-9.92835,9.92599 -23.6091,16.089 -38.6433,16.089l-114.287 0c-15.1181,0 -28.8414,-6.163 -38.7674,-16.089 -9.92835,-9.92835 -16.0902,-23.6504 -16.0902,-38.7685l0 -402.287c0,-14.9717 6.15945,-28.6488 16.0914,-38.641l-0.0011811 -0.0011811 0.0625985 -0.0625985 0.0625985 -0.0625985 0.0011811 0.0011811c9.99213,-9.9319 23.6693,-16.0914 38.641,-16.0914zm105.143 64.0016l-95.9989 0 0 383.999 95.9989 0 0 -383.999z"/></g></svg>