<?xml version="1.0" ?><!DOCTYPE svg  PUBLIC '-//W3C//DTD SVG 1.1//EN'  'http://www.w3.org/Graphics/SVG/1.1/DTD/svg11.dtd'><svg height="2048px" style="shape-rendering:geometricPrecision; text-rendering:geometricPrecision; image-rendering:optimizeQuality; fill-rule:evenodd; clip-rule:evenodd" viewBox="0 0 2048 2048" width="2048px" xml:space="preserve" xmlns="http://www.w3.org/2000/svg" xmlns:xlink="http://www.w3.org/1999/xlink"><defs><style type="text/css">
   <![CDATA[
    .fil0 {fill:none}
    .fil1 {fill:#212121;fill-rule:nonzero}
   ]]>
  </style></defs><g id="Layer_x0020_1"><g id="_270953976"><rect class="fil0" height="2048" id="_270951000" width="2048"/><rect class="fil0" height="1536" id="_270952728" width="1536" x="255.999" y="255.999"/></g><path class="fil1" d="M352.001 319.997l1344 0 32.0008 0 0 32.0008 0 1344 0 32.0008 -32.0008 0 -1344 0 -32.0008 0 0 -32.0008 0 -1344 0 -32.0008 32.0008 0zm1312 64.0016l-1280 0 0 1280 1280 0 0 -1280z"/><g id="_270951384"><path class="fil1" d="M767.866 995.149c28.5225,-10.2685 52.8083,-24.2858 72.8564,-41.8878 20.048,-17.6032 35.3693,-37.6512 45.9638,-60.3071 10.7575,-22.6559 15.9721,-46.6158 16.1351,-71.8784 0,-21.352 -3.42166,-41.889 -10.4303,-62.1 -7.17166,-20.048 -18.0921,-38.3032 -33.0874,-54.6012 -14.9953,-16.1362 -34.2284,-29.1756 -58.0252,-38.7922 -23.6327,-9.45355 -51.9933,-14.5063 -85.2438,-14.6693 -22.6559,0.162992 -44.4969,2.93386 -65.6847,8.3126 -21.189,5.37874 -40.4221,12.3874 -58.0252,20.863 -17.4402,8.3126 -31.9465,17.2772 -43.5189,26.5677l21.515 44.0067c9.94253,-7.49764 22.004,-14.9953 36.1843,-22.4929 14.1803,-7.65945 29.6646,-14.0162 46.7788,-19.2319 16.95,-5.21575 34.5532,-7.98662 52.9713,-8.14961 23.9599,0.162992 44.3339,3.58583 61.4481,10.4315 16.95,7.00867 30.8044,16.298 41.5618,28.3595 10.5945,11.8984 18.5811,25.4268 23.4709,40.7481 5.05276,15.3213 7.49764,31.6205 7.49764,48.5717 -0.162992,19.7209 -3.74882,37.487 -10.5945,53.1343 -7.00867,15.8102 -16.4622,29.5016 -28.3607,41.237 -11.8984,11.5724 -25.2626,21.352 -40.2579,29.1756 -14.9953,7.66064 -30.4796,13.5272 -46.6158,17.439 -16.1362,3.74882 -31.7835,5.70473 -47.2678,5.70473l-46.9406 0 0 45.9638 45.9626 0c25.7528,0 50.5276,3.25985 74.4875,9.77954 24.1229,6.51969 45.6366,16.6252 64.8697,30.3166 19.2331,13.6913 34.5544,31.1303 45.8008,52.3193 11.2465,21.189 17.1142,46.4528 17.2772,75.7914 0.162992,13.6913 -1.62992,28.0335 -5.05276,43.0288 -3.42284,15.1583 -9.12757,29.8276 -17.1142,44.3339 -7.98662,14.3433 -18.7441,27.3827 -32.2725,39.1181 -13.5284,11.7354 -30.3166,21.1878 -50.3634,28.0335 -19.8851,7.00867 -43.6819,10.5945 -71.2276,10.7575 -22.3299,-0.162992 -43.3548,-2.77087 -62.9138,-7.82363 -19.7221,-4.88977 -36.9992,-10.7575 -52.1575,-17.602 -14.9953,-7.00867 -26.8937,-13.5284 -35.5323,-19.5591l-22.4917 46.9406c10.9205,7.98662 24.9366,15.6473 42.2138,22.8189 17.1142,7.33465 36.5103,13.2024 58.1882,17.9291 21.515,4.56378 44.4957,7.00867 68.7815,7.17166 41.074,-0.325985 76.7694,-6.3567 107.085,-18.0921 30.3166,-11.7354 55.4174,-27.8717 75.3024,-48.2457 19.8851,-20.2099 34.7162,-43.1918 44.4957,-68.9445 9.77954,-25.7528 14.6693,-52.6465 14.6693,-80.843 -0.162992,-26.7307 -4.56378,-51.0166 -13.0394,-72.8575 -8.4756,-21.841 -20.2099,-41.0729 -35.0422,-57.5351 -14.9953,-16.2992 -32.2725,-29.8276 -51.6685,-40.0961 -19.5591,-10.4315 -40.4221,-17.4402 -62.5878,-21.189l0 -1.95591z" id="_270951552"/><path class="fil1" d="M1528.53 1020.58l-223.949 0 0 49.8756 164.294 0 0 255.244c-12.5492,7.00749 -30.8044,13.0382 -54.7642,17.928 -23.7969,4.72678 -53.7874,7.33465 -89.9705,7.49764 -46.6158,0 -88.6678,-7.49764 -125.992,-22.1658 -37.4882,-14.6693 -69.5977,-36.1843 -96.3284,-64.5449 -26.5666,-28.1977 -47.1036,-62.7508 -61.2839,-103.499 -14.1803,-40.7481 -21.352,-87.1997 -21.515,-139.357 0.162992,-50.6906 7.49764,-96.3272 22.1669,-136.586 14.5063,-40.4221 35.6953,-74.6493 63.0768,-103.173 27.5457,-28.3607 60.7961,-50.2016 99.5883,-65.1957 38.791,-14.9953 82.4729,-22.4929 131.045,-22.6559 34.5532,0.162992 64.5438,3.25985 89.8075,8.96457 25.4268,5.86772 47.2666,13.3654 65.6847,22.3288l17.6032 -49.8744c-12.2244,-6.03071 -27.0567,-11.4095 -44.4957,-16.1362 -17.6032,-4.88977 -36.9992,-8.80158 -58.3512,-11.7354 -21.189,-2.93386 -43.6819,-4.40079 -67.3146,-4.40079 -48.5717,0.162992 -92.7426,6.51969 -132.838,19.0701 -39.9331,12.5504 -75.3024,30.4796 -106.108,53.6245 -30.9673,22.9807 -56.8831,50.3634 -78.0721,82.1469 -21.189,31.6205 -37.1622,66.6626 -47.9185,105.129 -10.9205,38.4662 -16.4622,79.2131 -16.4622,122.406 -0.162992,37.6512 3.91181,74.4863 12.0614,110.834 8.14843,36.1843 21.0248,70.2497 38.628,102.032 17.6032,31.7835 40.4221,59.9811 68.6197,84.267 28.1965,24.2847 62.2619,43.5177 102.195,57.2091 40.0961,13.8543 86.3847,20.863 139.357,21.189 32.4343,-0.162992 62.2619,-2.44488 89.4816,-6.68268 27.3827,-4.2378 51.3426,-9.29056 72.0414,-15.3213 20.7,-6.03071 37.1622,-11.7354 49.7126,-17.1142l0 -341.302z" id="_270950064"/></g></g></svg>