<?xml version="1.0" ?><!DOCTYPE svg  PUBLIC '-//W3C//DTD SVG 1.1//EN'  'http://www.w3.org/Graphics/SVG/1.1/DTD/svg11.dtd'><svg height="2048px" style="shape-rendering:geometricPrecision; text-rendering:geometricPrecision; image-rendering:optimizeQuality; fill-rule:evenodd; clip-rule:evenodd" viewBox="0 0 2048 2048" width="2048px" xml:space="preserve" xmlns="http://www.w3.org/2000/svg" xmlns:xlink="http://www.w3.org/1999/xlink"><defs><style type="text/css">
   <![CDATA[
    .fil0 {fill:none}
    .fil1 {fill:#212121;fill-rule:nonzero}
   ]]>
  </style></defs><g id="Layer_x0020_1"><g id="_269421904"><rect class="fil0" height="2048" id="_269423896" width="2048"/><rect class="fil0" height="1536" id="_269417752" width="1536" x="255.999" y="255.999"/></g><path class="fil1" d="M448 383.999l1152 0c17.6327,0 33.6402,7.19174 45.2256,18.7748 11.5831,11.5854 18.7748,27.5929 18.7748,45.2256l0 1152c0,17.6327 -7.19174,33.6402 -18.7748,45.2256 -11.5854,11.5831 -27.5929,18.7748 -45.2256,18.7748l-1152 0c-17.6327,0 -33.6402,-7.19174 -45.2256,-18.7748 -11.5831,-11.5854 -18.7748,-27.5929 -18.7748,-45.2256l0 -1152c0,-17.6327 7.19174,-33.6402 18.7748,-45.2256 11.5854,-11.5831 27.5929,-18.7748 45.2256,-18.7748zm1152 64.0016l-0.0011811 0 0 -0.0011811c0,-0.0141732 -0.0011811,-0.00826772 -0.00472441,0.0011811l-1151.99 0c-0.00354331,-0.00944883 -0.00472441,-0.0153543 -0.00472441,-0.0011811l0 0.0011811 -0.0011811 0c-0.0141732,0 -0.00826772,0.0011811 0.0011811,0.00472441l0 1151.99c-0.00826772,0.00236221 -0.0153543,0.00472441 -0.0011811,0.00472441l0.0011811 0 0 0.0011811c0,0.0141732 0.0011811,0.00826772 0.00472441,-0.0011811l1151.99 0c0.00236221,0.00826772 0.00472441,0.0153543 0.00472441,0.0011811l0 -0.0011811 0.0011811 0c0.0141732,0 0.00826772,-0.0011811 -0.0011811,-0.00472441l0 -1151.99c0.00826772,-0.00236221 0.0153543,-0.00472441 0.0011811,-0.00472441zm-0.0011811 0l-0.00472441 0 -0.00354331 0.00826772c-0.00354331,0.0106299 -0.00944883,0.0212599 -0.0153543,0.0153543 -0.00590552,-0.00590552 0.00354331,-0.011811 0.0153543,-0.0153543l0.00826772 -0.00354331 0 -0.00472441zm-1151.99 0l-0.00472441 0 0 0.00472441 0.00826772 0.00354331c0.0106299,0.00354331 0.0212599,0.00944883 0.0153543,0.0153543 -0.00590552,0.00590552 -0.011811,-0.00472441 -0.0153543,-0.0153543l-0.00354331 -0.00826772zm1151.99 1152l0 -0.00472441 -0.00826772 -0.00354331c-0.0106299,-0.00354331 -0.0212599,-0.00944883 -0.0153543,-0.0153543 0.00590552,-0.00590552 0.011811,0.00354331 0.0153543,0.0153543l0.00354331 0.00826772 0.00472441 0zm-1152 0l0.00472441 0 0.00354331 -0.00826772c0.00354331,-0.0106299 0.00944883,-0.0212599 0.0153543,-0.0153543 0.00590552,0.00590552 -0.00354331,0.011811 -0.0153543,0.0153543l-0.00826772 0.00354331 0 0.00472441z"/><polygon class="fil1" points="416,608 1632,608 1632,672.002 416,672.002 "/><path class="fil1" d="M1198.2 1148.68l-317.79 190.675 0.0519685 0.0862205c-15.1536,9.09213 -34.8118,4.17874 -43.904,-10.9748 -3.15118,-5.25237 -4.61811,-11.0457 -4.56142,-16.7528l0 -383.712c0,-17.6728 14.328,-32.0008 32.0008,-32.0008 6.94016,0 13.363,2.21103 18.6071,5.96457l317.768 190.661 -16.3748 27.3756 16.4646 -27.4394c15.1536,9.09213 20.0669,28.7504 10.9748,43.904 -3.2752,5.45906 -7.92284,9.5882 -13.2366,12.2138zm-302.202 106.921l225.998 -135.599 -225.998 -135.599 0 271.198z"/><polygon class="fil1" points="708.084,405.874 783.753,629.875 723.252,650.126 647.584,426.126 "/><polygon class="fil1" points="1016.42,405.874 1092.08,629.875 1031.58,650.126 955.915,426.126 "/><polygon class="fil1" points="1324.75,405.874 1400.42,629.875 1339.92,650.126 1264.25,426.126 "/></g></svg>