<?xml version="1.0" ?><!DOCTYPE svg  PUBLIC '-//W3C//DTD SVG 1.1//EN'  'http://www.w3.org/Graphics/SVG/1.1/DTD/svg11.dtd'><svg height="2048px" style="shape-rendering:geometricPrecision; text-rendering:geometricPrecision; image-rendering:optimizeQuality; fill-rule:evenodd; clip-rule:evenodd" viewBox="0 0 2048 2048" width="2048px" xml:space="preserve" xmlns="http://www.w3.org/2000/svg" xmlns:xlink="http://www.w3.org/1999/xlink"><defs><style type="text/css">
   <![CDATA[
    .fil0 {fill:none}
    .fil1 {fill:#212121;fill-rule:nonzero}
   ]]>
  </style></defs><g id="Layer_x0020_1"><g id="_189796152"><rect class="fil0" height="2048" id="_189797976" width="2048"/><rect class="fil0" height="1536" id="_189796296" width="1536" x="255.999" y="255.999"/></g><path class="fil1" d="M470.876 393.749c-12.287,-12.6331 -32.4922,-12.913 -45.1252,-0.625985 -12.6331,12.287 -12.913,32.4922 -0.625985,45.1252l1184 1216c12.287,12.6331 32.4922,12.913 45.1252,0.625985 12.6331,-12.287 12.913,-32.4922 0.625985,-45.1252l-1184 -1216z"/><path class="fil1" d="M1654.88 438.248c12.287,-12.6331 12.0071,-32.8382 -0.625985,-45.1252 -12.6331,-12.287 -32.8382,-12.0071 -45.1252,0.625985l-1184 1216c-12.287,12.6331 -12.0071,32.8382 0.625985,45.1252 12.6331,12.287 32.8382,12.0071 45.1252,-0.625985l1184 -1216z"/></g></svg>