<?xml version="1.0" ?><!DOCTYPE svg  PUBLIC '-//W3C//DTD SVG 1.1//EN'  'http://www.w3.org/Graphics/SVG/1.1/DTD/svg11.dtd'><svg height="2048px" style="shape-rendering:geometricPrecision; text-rendering:geometricPrecision; image-rendering:optimizeQuality; fill-rule:evenodd; clip-rule:evenodd" viewBox="0 0 2048 2048" width="2048px" xml:space="preserve" xmlns="http://www.w3.org/2000/svg" xmlns:xlink="http://www.w3.org/1999/xlink"><defs><style type="text/css">
   <![CDATA[
    .str0 {stroke:#212121;stroke-width:64.0004;stroke-linecap:round;stroke-linejoin:round}
    .fil0 {fill:none}
    .fil1 {fill:#212121;fill-rule:nonzero}
   ]]>
  </style></defs><g id="Layer_x0020_1"><g id="_192176280"><rect class="fil0" height="2048" id="_192177456" width="2048"/><rect class="fil0" height="1536" id="_192175992" width="1536" x="255.999" y="255.999"/></g><path class="fil1" d="M543.651 1317.69c13.5992,-11.2512 15.5008,-31.3984 4.24961,-44.9977 -11.2512,-13.5992 -31.3984,-15.5008 -44.9977,-4.24961 -66.2174,54.7288 -80.3339,128.949 -61.4563,195.617 7.80355,27.5599 21.3118,53.6859 39.1122,76.3784 17.8051,22.6973 40.0394,42.1429 65.289,56.3422 61.7044,34.6985 140.338,38.3516 215.814,-17.1366l-18.874 -25.7481 18.9532 25.7811c7.80001,-5.73426 12.2445,-14.3374 12.9473,-23.2855 2.01614,-17.1591 -10.024,-32.889 -27.2256,-35.3362 -11.1461,-1.58622 -21.7666,2.78858 -28.6382,10.7008 1.68543,-1.15276 3.37087,-2.34567 5.05394,-3.58229l-0.0437008 -0.0590552c14.2382,-10.4669 34.2673,-7.41024 44.7343,6.82796 4.73268,6.43819 6.7004,14.061 6.1193,21.4488l-0.102756 0.786615 -32.8146 -4.67008 -17.8571 -24.3603 -0.0354331 0.0259843 17.889 24.3343 -30.4276 -4.32992c0.89882,-6.31772 3.59055,-11.9374 7.48465,-16.4221 -50.393,34.474 -101.637,31.8236 -141.729,9.27875 -17.7614,-9.98741 -33.5315,-23.8311 -46.2898,-40.0949 -12.7618,-16.2697 -22.3878,-34.7894 -27.8634,-54.1288 -12.4441,-43.95 -3.07914,-92.9292 40.7091,-129.121z"/><path class="fil0 str0" d="M1460.52 440.64c-38.0067,0 -71.4308,13.8284 -99.1111,40.3689 -26.4921,26.4697 -40.3205,59.9292 -40.3205,99.0757 0,38.054 13.8165,71.478 40.3205,98.0304 27.6921,26.4579 61.0926,40.3205 99.1111,41.4485 38.113,-1.12795 71.4792,-14.9906 99.1583,-41.4485 26.4697,-26.5524 40.3217,-59.9646 40.3217,-98.0304 0,-39.1583 -13.852,-72.606 -40.3217,-99.0757 -27.6673,-26.5406 -61.0453,-40.3571 -99.1583,-40.3571l0 -0.011811z"/><path class="fil1" d="M1160.16 1652.99l0.340158 -0.670867 -0.0874016 -0.0496063c0.20315,-0.360236 0.414567,-0.713386 0.629528,-1.06299 7.51064,-15.5764 55.578,-120.209 111.983,-244.367l45.1406 54.7158c-49.4977,108.717 -90.5221,197.907 -99.8847,217.595 -0.578741,1.54961 -1.28386,3.07441 -2.12244,4.56024l-0.134646 -0.0755906c-15.9827,28.3335 -35.6433,48.9059 -58.3465,62.6268 -59.2831,35.8276 -134.562,23.7543 -216.277,-19.1528 -74.7249,-39.2386 -156.302,-105.093 -235.569,-182.646 -187.087,-183.043 -363.899,-434.863 -404.775,-552.322 -0.493701,-1.08543 -0.933072,-2.20748 -1.31102,-3.36733l30.4288 -9.90591 -30.3756 9.8752c-11.2701,-34.6193 -12.085,-65.5985 -2.44252,-92.9245 9.86457,-27.9591 30.0803,-50.5713 60.6437,-67.8272 51.7701,-29.2465 179.536,-94.1824 308.02,-156.914l41.7177 50.5666c-132.202,64.3406 -265.992,132.191 -318.488,161.848 -16.4799,9.30473 -27.0284,20.5004 -31.6429,33.5776 -4.83898,13.715 -3.85866,31.0217 2.93977,51.9119l0.056693 -0.0188977c0.253937,0.780709 0.475985,1.56378 0.667323,2.34921 37.9252,109.771 208.028,350.286 389.311,527.651 75.0686,73.4457 151.589,135.426 220.569,171.647 61.989,32.55 116.03,43.5615 153.527,20.9008 13.4315,-8.11772 25.3725,-20.7567 35.4992,-38.5122l-0.0165354 -0.00826772zm171.551 -375.782c18.1087,-40.1551 35.974,-79.9359 52.6335,-117.26 49.6867,-111.319 88.1528,-198.473 88.2827,-201.659l0.00944883 0 0.0011811 -0.0496063 -0.108662 -0.00472441c0.0295276,-0.71693 0.0838583,-1.42677 0.159449,-2.12953 0.39567,-19.2898 -0.747638,-38.0362 -3.42402,-56.354 -2.72008,-18.6154 -7.09489,-36.6142 -13.115,-54.1205l-0.0188977 0.00708662c-5.74843,-16.7114 3.13819,-34.9217 19.8496,-40.6701 3.15709,-1.08543 6.36733,-1.64882 9.53741,-1.73622 27.0697,-2.24292 52.1304,-8.74371 75.1855,-19.5036 23.5547,-10.9925 45.5504,-26.7107 65.9918,-47.152 22.4492,-22.4492 39.1642,-47.0103 50.1426,-73.669 11.0055,-26.7248 16.5083,-56.1685 16.5083,-88.3241 0,-32.8122 -5.50276,-62.5737 -16.5059,-89.4331 -11.0386,-26.9445 -27.7335,-51.5363 -50.0823,-73.9182l-0.00944883 -0.00944883 -0.0649607 0.0649607c-0.531496,-0.531496 -1.03701,-1.07835 -1.52362,-1.63701 -21.952,-21.5551 -46.0122,-37.728 -72.1784,-48.4996 -26.7201,-10.9996 -56.1685,-16.5071 -88.3394,-16.5071l0 -0.125197c-31.9654,-0.00354331 -61.4174,5.54882 -88.4764,16.6417 -26.9492,11.048 -51.8363,27.7477 -74.7816,50.0764l0.0578741 0.0578741c-20.7626,20.7614 -36.3674,43.1776 -47.0847,67.363 -10.8236,24.4288 -16.9004,50.8985 -18.4961,79.5142l-31.8756 -1.7504 31.95 1.7811c-0.982678,17.6445 -16.0866,31.1516 -33.7311,30.1689 -3.65315,-0.20315 -7.12678,-1.01457 -10.3335,-2.32559 -15.828,-4.94292 -32.302,-8.44961 -49.1941,-10.6394 -18.7725,-2.43425 -38.204,-3.30473 -57.9886,-2.77205l0 0.0129921 -0.479528 0.022441 0.00236221 0.0897638c-0.605906,0.0165354 -1.20709,0.0153543 -1.80473,-0.0011811 -10.6394,0.538583 -21.1795,1.36772 -31.8414,2.60906 -11.035,1.28386 -21.1736,2.89488 -30.4028,4.94292 -20.6445,4.59685 -98.5383,39.3933 -193.772,84.3886l-41.8311 -50.7036c105.708,-50.0918 195.468,-90.0627 221.853,-95.9363 12.4701,-2.76732 24.6851,-4.77048 36.9036,-6.19252 11.0752,-1.28858 23.0729,-2.19803 35.9717,-2.84292 1.02756,-0.129921 2.07166,-0.210236 3.12874,-0.239764l0.897638 31.9878 -0.875198 -31.8756c23.1142,-0.648426 45.978,0.373229 68.2394,3.25985 8.74016,1.13268 17.3681,2.54528 25.8626,4.24843 3.98622,-22.2106 10.3961,-43.3618 19.3169,-63.4973 13.9583,-31.5 33.8422,-60.2918 59.9835,-86.5099 0.20315,-0.210236 0.411024,-0.420473 0.622441,-0.625985l22.3536 22.898 -22.2496 -22.8756c28.8484,-28.161 60.5788,-49.3807 95.3481,-63.6343 34.7835,-14.2595 72.3083,-21.3969 112.727,-21.3921l0 -0.125197c40.2426,0 77.7733,7.1752 112.59,21.5079 34.0311,14.0091 64.9725,34.7315 92.8217,62.1426 0.651969,0.5563 1.2874,1.14213 1.90394,1.75866l-22.637 22.6181 22.6252 -22.5c28.304,28.3264 49.6028,59.8406 63.8953,94.7304 14.3374,34.9973 21.5067,72.8316 21.5067,113.684 0,40.2272 -7.1693,77.7544 -21.5091,112.574 -14.361,34.8756 -35.6611,66.4371 -63.893,94.669 -25.4197,25.4197 -53.4993,45.3048 -84.2422,59.6528 -19.3394,9.02481 -39.5292,15.7512 -60.5705,20.1756 2.16024,9.46064 3.95433,19.0725 5.38229,28.8461 3.12047,21.3579 4.43386,43.6784 3.93189,67.1044 0.0637796,1.06654 0.0744095,2.14725 0.0295276,3.2374l-0.102756 -0.00472441c-0.601182,12.5858 -41.3374,107.619 -93.7796,225.111 -20.6079,46.1705 -43.1044,96.1761 -65.6599,146.075l-45.2233 -54.8162z"/><path class="fil1" d="M536.625 363.749c-11.1827,-13.5992 -31.2756,-15.5575 -44.8748,-4.37481 -13.5992,11.1827 -15.5575,31.2756 -4.37481,44.8748l1056 1280c11.1827,13.5992 31.2756,15.5575 44.8748,4.37481 13.5992,-11.1827 15.5575,-31.2756 4.37481,-44.8748l-1056 -1280z"/></g></svg>