<?xml version="1.0" ?><!DOCTYPE svg  PUBLIC '-//W3C//DTD SVG 1.1//EN'  'http://www.w3.org/Graphics/SVG/1.1/DTD/svg11.dtd'><svg height="2048px" style="shape-rendering:geometricPrecision; text-rendering:geometricPrecision; image-rendering:optimizeQuality; fill-rule:evenodd; clip-rule:evenodd" viewBox="0 0 2048 2048" width="2048px" xml:space="preserve" xmlns="http://www.w3.org/2000/svg" xmlns:xlink="http://www.w3.org/1999/xlink"><defs><style type="text/css">
   <![CDATA[
    .fil0 {fill:none}
    .fil1 {fill:#212121;fill-rule:nonzero}
   ]]>
  </style></defs><g id="Layer_x0020_1"><rect class="fil0" height="2048" width="2048"/><rect class="fil0" height="1536" width="1536" x="255.999" y="255.999"/><path class="fil1" d="M1024 255.998c119.849,0 228.533,45.2953 307.366,118.524 79.428,73.7835 128.556,175.845 128.556,288.692 0,111.989 -195.913,590.933 -320.009,894.307 -37.7788,92.3576 -68.7331,168.03 -86.0375,213.73l-29.7296 78.5115 -30.0201 -78.3863c-10.7563,-28.0878 -32.7,-81.1276 -61.513,-150.776 -117.15,-283.177 -344.534,-832.811 -344.534,-957.386 0,-112.847 49.128,-214.909 128.556,-288.692 78.8327,-73.2284 187.517,-118.524 307.366,-118.524zm263.866 165.274c-67.3583,-62.5701 -160.637,-101.273 -263.866,-101.273 -103.228,0 -196.507,38.7024 -263.866,101.273 -66.7607,62.0162 -108.054,147.565 -108.054,241.942 0,112.413 224.082,654.069 339.533,933.135 11.9575,28.904 22.7835,55.0701 32.0658,77.6197 15.7973,-39.15 35.4142,-87.1087 57.2327,-140.449 122.158,-298.634 315.009,-770.091 315.009,-870.307 0,-94.3772 -41.2937,-179.926 -108.054,-241.942z"/><path class="fil1" d="M1024 383.998c79.526,0 151.526,32.237 203.646,84.3556 52.1185,52.1197 84.3556,124.12 84.3556,203.646 0,79.5249 -32.237,151.526 -84.3556,203.646 -52.1197,52.1185 -124.12,84.3556 -203.646,84.3556 -79.526,0 -151.526,-32.237 -203.646,-84.3556 -52.1185,-52.1197 -84.3556,-124.121 -84.3556,-203.646 0,-79.526 32.237,-151.526 84.3556,-203.646 52.1197,-52.1185 124.12,-84.3556 203.646,-84.3556zm158.395 129.606c-40.5343,-40.5331 -96.5351,-65.6044 -158.395,-65.6044 -61.8603,0 -117.861,25.0713 -158.395,65.6044 -40.5331,40.5343 -65.6044,96.5351 -65.6044,158.395 0,61.8591 25.0713,117.861 65.6044,158.395 40.5343,40.5331 96.5351,65.6044 158.395,65.6044 61.8603,0 117.861,-25.0713 158.395,-65.6044 40.5331,-40.5343 65.6044,-96.5363 65.6044,-158.395 0,-61.8603 -25.0713,-117.861 -65.6044,-158.395z"/></g></svg>