<?xml version="1.0" ?><!DOCTYPE svg  PUBLIC '-//W3C//DTD SVG 1.1//EN'  'http://www.w3.org/Graphics/SVG/1.1/DTD/svg11.dtd'><svg height="2048px" style="shape-rendering:geometricPrecision; text-rendering:geometricPrecision; image-rendering:optimizeQuality; fill-rule:evenodd; clip-rule:evenodd" viewBox="0 0 2048 2048" width="2048px" xml:space="preserve" xmlns="http://www.w3.org/2000/svg" xmlns:xlink="http://www.w3.org/1999/xlink"><defs><style type="text/css">
   <![CDATA[
    .fil0 {fill:none}
    .fil1 {fill:#212121;fill-rule:nonzero}
   ]]>
  </style></defs><g id="Layer_x0020_1"><g id="_272174384"><rect class="fil0" height="2048" id="_272175464" width="2048"/><rect class="fil0" height="1536" id="_272175272" width="1536" x="255.999" y="255.999"/></g><g id="_272175104"><path class="fil1" d="M1323.7 539.808l-0.129921 -0.12874 -0.0637796 0.0637796c-0.500788,-0.500788 -0.979135,-1.01457 -1.43976,-1.54016 -41.4237,-40.5591 -86.7851,-71.0705 -136.078,-91.4056 -49.6725,-20.491 -103.853,-30.7973 -162.54,-30.7973 -58.6973,0 -112.89,10.3228 -162.458,30.8433 -49.5792,20.524 -95.1154,51.5351 -136.488,92.9032l-22.6252 -22.6252 22.6264 22.6288c-0.603544,0.603544 -1.22717,1.17874 -1.86496,1.72323 -40.9205,40.7929 -71.5796,85.78 -91.8698,134.959 -20.5406,49.7859 -30.6213,104.146 -30.1394,163.084l0.124016 -0.0011811 -0.0011811 0.263386 0.00236221 0c0,39.4725 4.68071,76.702 13.9193,111.8 9.19135,34.9217 22.8992,68.0304 40.9937,99.4312l0.431103 0.623623 0.011811 -0.00708662 0.0720473 0.12874 0.623623 0.900001c2.37402,3.4252 5.2252,7.53426 7.48938,11.2913l0.0318898 -0.0188977c0.265748,0.440552 0.518504,0.885827 0.760631,1.33347l350.504 541.079 373.603 -549.969 0.809056 -1.35591 -0.0377953 -0.0248032 0.341339 -0.488977c18.6414,-31.4977 32.8051,-64.9819 42.3626,-100.453 9.68505,-35.9469 14.5925,-74.0363 14.5925,-114.269 0,-59.1934 -10.3122,-113.612 -30.7973,-163.265 -20.5642,-49.8426 -51.5327,-95.4095 -92.765,-136.706zm-113.462 -152.012c57.1111,23.5595 109.295,58.5685 156.552,104.881 0.679134,0.575197 1.34173,1.1811 1.98307,1.82244l-22.6335 22.6217 22.6252 -22.5c47.204,47.2288 82.8249,99.7725 106.701,157.642 23.811,57.7158 35.7981,120.219 35.7981,187.515 0,45.6839 -5.66457,89.2761 -16.8437,130.769 -11.0433,40.9878 -27.5173,79.8414 -49.2733,116.556 -0.648426,1.31575 -1.39488,2.60079 -2.24173,3.84803l-0.114567 -0.0779528 -399.798 588.528c-2.46496,4.49882 -6.04961,8.47087 -10.6571,11.4555 -14.8323,9.60828 -34.6465,5.37284 -44.2548,-9.45946l0.0862205 -0.0555119 -376.617 -581.391c-0.724016,-0.943702 -1.40551,-1.93701 -2.03386,-2.97992l2.77323 -1.67244 -0.00354331 -0.0011811 -2.74016 1.65118c-2.25118,-3.73347 -3.87992,-6.08268 -5.24056,-8.04449l-0.787796 -1.13858c-1.02402,-1.2685 -1.96181,-2.63268 -2.80394,-4.0878l0.0661418 -0.0377953c-21.1406,-36.5386 -37.1422,-75.104 -47.8571,-115.813 -10.7327,-40.7752 -16.1705,-83.4201 -16.1705,-128.049l0.124016 0c-0.52441,-67.513 11.1473,-130.044 34.891,-187.597 23.5866,-57.1678 58.9323,-109.166 105.911,-155.999 0.499607,-0.576378 1.02284,-1.14095 1.57205,-1.69016l0.00236221 0.00236221c47.1201,-47.1154 99.6615,-82.7138 157.487,-106.652 57.6059,-23.8477 119.89,-35.8441 186.709,-35.8441 66.7867,0 129.053,11.9799 186.79,35.7981z" id="_272171072"/><path class="fil1" d="M1020.21 667.153c-24.7843,-0.124016 -47.5855,4.15394 -68.4957,12.8256 -21.7087,9.00237 -41.6103,22.8425 -59.8063,41.5028l-22.8756 -22.2496 22.911 22.3406c-0.629528,0.644882 -1.28032,1.25787 -1.94882,1.8378 -17.5134,17.85 -30.6366,37.2674 -39.3697,58.3477 -8.9752,21.665 -13.461,45.587 -13.461,71.8713 0,26.289 4.48583,50.2111 13.461,71.9906 9.03898,21.9354 22.7835,42.2599 41.2276,61.1859l0.0271654 0.0271654 0.0625985 -0.0614174c0.431103,0.441733 0.843308,0.892914 1.2437,1.35236 17.9114,17.5382 37.3512,30.6697 58.4067,39.391 21.6721,8.97757 45.5965,13.4658 71.8819,13.4658l0 0.125197c26.0776,-0.00354331 50.002,-4.53189 71.9823,-13.5898 21.8256,-8.9941 42.0579,-22.6488 60.8941,-40.963l0.277559 -0.287008 -0.0531496 -0.0543308c0.340158,-0.33189 0.686221,-0.65315 1.03701,-0.966142 17.6929,-18.4866 30.9449,-38.2902 39.7418,-59.6162 8.98701,-21.7819 13.4835,-45.7063 13.4835,-72.0001 0,-26.1945 -4.49646,-50.0693 -13.4835,-71.7379 -8.9941,-21.6874 -22.6831,-41.6634 -41.0528,-60.0331l-0.00236221 0.00236221c-0.543308,-0.543308 -1.06063,-1.10315 -1.55788,-1.6748 -18.3603,-18.0449 -38.0587,-31.4481 -59.2796,-40.2012 -21.7736,-8.98111 -45.5115,-13.2461 -71.4166,-12.7913l0.00236221 0.120473c-1.29685,0.0236221 -2.57835,-0.0318898 -3.8374,-0.16063zm-92.9965 -46.1752c28.8874,-11.9799 60.1359,-17.8453 93.8729,-17.5819 0.787796,-0.0578741 1.58504,-0.0885827 2.38819,-0.0885827 0.849213,0 1.69134,0.034252 2.52402,0.0992127 33.5752,-0.237402 64.728,5.62087 93.7135,17.5772 29.0705,11.9906 55.6323,29.9528 79.9512,53.876 0.647245,0.551575 1.27677,1.1315 1.88858,1.74331l-0.0649607 0.0649607 0.0011811 0.0011811 0.0625985 -0.0625985c24.2221,24.2209 42.4937,51.0981 54.8044,80.7839 12.3201,29.7047 18.4843,61.7351 18.4843,96.2387 0,34.4044 -6.16418,66.3886 -18.4843,96.2505 -11.9528,28.9736 -29.5571,55.4363 -52.8083,79.6772 -0.7063,0.849213 -1.46339,1.67008 -2.27126,2.45788l-22.35 -22.9016 22.2496 22.8756c-24.7146,24.1193 -51.7748,42.2918 -81.4678,54.528 -29.6634,12.2244 -61.6477,18.3354 -96.2328,18.3402l0 0.125197c-34.415,0 -66.4111,-6.15473 -96.1324,-18.4665 -28.9713,-11.9988 -55.2733,-29.6776 -79.0477,-53.0327 -0.747638,-0.636615 -1.47284,-1.31102 -2.17205,-2.02795l22.9099 -22.3417 -22.8756 22.2496c-24.1205,-24.7335 -42.2965,-51.7985 -54.5327,-81.4926 -12.3095,-29.8713 -18.4618,-61.8544 -18.4618,-96.241 0,-34.4138 6.15237,-66.4087 18.4618,-96.1217 11.9799,-28.9205 29.661,-55.2154 53.041,-79.0158 0.465355,-0.544489 0.948426,-1.07953 1.4563,-1.60039l0.0637796 0.0625985c24.3874,-25.0028 51.3508,-43.6678 81.0284,-55.976z" id="_272170016"/></g></g></svg>