<?xml version="1.0" ?><!DOCTYPE svg  PUBLIC '-//W3C//DTD SVG 1.1//EN'  'http://www.w3.org/Graphics/SVG/1.1/DTD/svg11.dtd'><svg height="2048px" style="shape-rendering:geometricPrecision; text-rendering:geometricPrecision; image-rendering:optimizeQuality; fill-rule:evenodd; clip-rule:evenodd" viewBox="0 0 2048 2048" width="2048px" xml:space="preserve" xmlns="http://www.w3.org/2000/svg" xmlns:xlink="http://www.w3.org/1999/xlink"><defs><style type="text/css">
   <![CDATA[
    .fil0 {fill:none}
    .fil1 {fill:#212121;fill-rule:nonzero}
   ]]>
  </style></defs><g id="Layer_x0020_1"><g id="_271280608"><rect class="fil0" height="2048" id="_271277944" width="2048"/><rect class="fil0" height="1536" id="_271273072" width="1536" x="255.999" y="255.999"/></g><path class="fil1" d="M448 479.998l1152 0 32.0008 0 0 32.0008 0 1152 0 32.0008 -32.0008 0 -1152 0 -32.0008 0 0 -32.0008 0 -1152 0 -32.0008 32.0008 0zm1120 64.0016l-1088 0 0 1088 1088 0 0 -1088z"/><polygon class="fil1" points="448,768.001 1600,768.001 1600,832.002 448,832.002 "/><path class="fil1" d="M607.96 415.999c0,-17.6728 -14.328,-32.0008 -32.0008,-32.0008 -17.6728,0 -32.0008,14.328 -32.0008,32.0008l0 192c0,17.6728 14.328,32.0008 32.0008,32.0008 17.6728,0 32.0008,-14.328 32.0008,-32.0008l0 -192z"/><path class="fil1" d="M1504.04 415.999c0,-17.6728 -14.328,-32.0008 -32.0008,-32.0008 -17.6728,0 -32.0008,14.328 -32.0008,32.0008l0 192c0,17.6728 14.328,32.0008 32.0008,32.0008 17.6728,0 32.0008,-14.328 32.0008,-32.0008l0 -192z"/><path class="fil1" d="M831.98 415.999c0,-17.6728 -14.328,-32.0008 -32.0008,-32.0008 -17.6728,0 -32.0008,14.328 -32.0008,32.0008l0 192c0,17.6728 14.328,32.0008 32.0008,32.0008 17.6728,0 32.0008,-14.328 32.0008,-32.0008l0 -192z"/><path class="fil1" d="M1056 415.999c0,-17.6728 -14.328,-32.0008 -32.0008,-32.0008 -17.6728,0 -32.0008,14.328 -32.0008,32.0008l0 192c0,17.6728 14.328,32.0008 32.0008,32.0008 17.6728,0 32.0008,-14.328 32.0008,-32.0008l0 -192z"/><path class="fil1" d="M1280.02 415.999c0,-17.6728 -14.328,-32.0008 -32.0008,-32.0008 -17.6728,0 -32.0008,14.328 -32.0008,32.0008l0 192c0,17.6728 14.328,32.0008 32.0008,32.0008 17.6728,0 32.0008,-14.328 32.0008,-32.0008l0 -192z"/><path class="fil1" d="M708.482 1504.37c-0.226772,-2.3374 -0.464174,-4.77284 -0.582284,-7.45512 -0.11811,-2.79095 -0.11811,-6.87284 -0.11811,-12.3461 0,-34.3347 7.45512,-66.5894 22.4729,-96.8623 15.0177,-30.2634 38.0729,-59.2536 69.2717,-86.9635 5.93623,-5.23583 14.4366,-12.9272 25.6087,-22.9358 35.5099,-31.3181 59.0268,-53.6729 70.6725,-67.1717 9.54568,-11.0646 16.4185,-23.8736 20.7284,-38.191 4.29922,-14.3185 6.51733,-31.3181 6.51733,-51.1087 0,-30.2634 -6.75473,-53.4367 -20.1449,-69.6178 -13.3913,-16.1811 -32.4815,-24.2185 -57.2823,-24.2185 -25.4894,0 -44.5902,8.96339 -57.163,26.8914 -12.691,18.0449 -18.9721,45.1725 -18.9721,81.6178 0,0 0.11811,1.86378 0.344882,5.69882 0.237402,3.96496 0.355512,7.80001 0.355512,11.6457l-56.5819 0c0,-2.1 -0.11811,-5.12717 -0.354331,-9.42639 -0.226772,-4.19055 -0.346063,-7.33701 -0.346063,-9.3189 0,-50.9894 11.7543,-90.2257 35.2725,-117.816 23.5181,-27.5918 56.9363,-41.4461 100.127,-41.4461 42.4902,0 75.6721,12.5728 99.5351,37.7185 23.8736,25.1445 35.8642,60.1902 35.8642,105.245 0,22.9358 -2.32677,43.0819 -6.99095,60.5445 -4.65473,17.3457 -12.0992,33.528 -22.3453,48.5457 -10.2449,15.9449 -33.0638,38.1803 -68.5725,66.8268 -8.85473,7.09961 -15.5988,12.5728 -20.1449,16.4185 -35.628,29.5618 -60.8906,55.0619 -75.554,76.3713 -14.6728,21.4181 -22.2366,42.6095 -22.9358,63.7997l220.97 0 0 53.8996 -279.652 -0.344882zm352.081 0c-0.226772,-2.3374 -0.464174,-4.77284 -0.582284,-7.45512 -0.11811,-2.79095 -0.11811,-6.87284 -0.11811,-12.3461 0,-34.3347 7.45512,-66.5894 22.4729,-96.8623 15.0177,-30.2634 38.0729,-59.2536 69.2717,-86.9635 5.93623,-5.23583 14.4366,-12.9272 25.6087,-22.9358 35.5087,-31.3181 59.0268,-53.6729 70.6725,-67.1717 9.54568,-11.0646 16.4185,-23.8736 20.7284,-38.191 4.29922,-14.3185 6.51733,-31.3181 6.51733,-51.1087 0,-30.2634 -6.75473,-53.4367 -20.1461,-69.6178 -13.3902,-16.1811 -32.4815,-24.2185 -57.2811,-24.2185 -25.4906,0 -44.5902,8.96339 -57.163,26.8914 -12.691,18.0449 -18.9721,45.1725 -18.9721,81.6178 0,0 0.11811,1.86378 0.344882,5.69882 0.236221,3.96496 0.355512,7.80001 0.355512,11.6457l-56.5819 0c0,-2.1 -0.11811,-5.12717 -0.355512,-9.42639 -0.226772,-4.19055 -0.344882,-7.33701 -0.344882,-9.3189 0,-50.9894 11.7543,-90.2257 35.2725,-117.816 23.5181,-27.5918 56.9363,-41.4461 100.127,-41.4461 42.4902,0 75.6721,12.5728 99.5351,37.7185 23.8736,25.1445 35.8642,60.1902 35.8642,105.245 0,22.9358 -2.32795,43.0819 -6.99213,60.5445 -4.65355,17.3457 -12.0992,33.528 -22.3441,48.5457 -10.2449,15.9449 -33.0638,38.1803 -68.5725,66.8268 -8.85473,7.09961 -15.6,12.5728 -20.1449,16.4185 -35.628,29.5618 -60.8906,55.0619 -75.554,76.3713 -14.6728,21.4181 -22.2366,42.6095 -22.9358,63.7997l220.97 0 0 53.8996 -279.652 -0.344882z"/></g></svg>