<?xml version="1.0" ?><!DOCTYPE svg  PUBLIC '-//W3C//DTD SVG 1.1//EN'  'http://www.w3.org/Graphics/SVG/1.1/DTD/svg11.dtd'><svg height="2048px" style="shape-rendering:geometricPrecision; text-rendering:geometricPrecision; image-rendering:optimizeQuality; fill-rule:evenodd; clip-rule:evenodd" viewBox="0 0 2048 2048" width="2048px" xml:space="preserve" xmlns="http://www.w3.org/2000/svg" xmlns:xlink="http://www.w3.org/1999/xlink"><defs><style type="text/css">
   <![CDATA[
    .fil0 {fill:none}
    .fil1 {fill:#212121;fill-rule:nonzero}
   ]]>
  </style></defs><g id="Layer_x0020_1"><g id="_269420584"><rect class="fil0" height="2048" id="_269422528" width="2048"/><rect class="fil0" height="1536" id="_269423680" width="1536" x="255.999" y="255.999"/></g><g id="_269418088"><path class="fil1" d="M378.871 656.535c32.5134,-56.315 71.8938,-107.596 116.972,-152.674 45.0532,-45.0532 96.3024,-84.4146 152.582,-116.917l-0.0318898 -0.0543308c176.186,-101.721 376.872,-122.414 558.904,-73.6394 182.007,48.7678 345.456,167.051 447.205,343.285 48.8339,84.5859 79.8674,177.121 92.3682,272.077 12.5173,95.0705 6.51615,192.484 -18.7299,286.702l-61.7504 -16.5c23.1189,-86.2796 28.6406,-175.28 17.2299,-261.951 -11.4248,-86.7875 -39.7701,-171.332 -84.3674,-248.577 -92.8158,-160.762 -242.112,-268.714 -408.455,-313.285 -166.316,-44.5642 -349.594,-25.7055 -510.403,67.1386l-0.125197 0c-50.7945,29.3256 -97.545,65.3422 -139.175,106.973 -41.6292,41.6292 -77.6469,88.3796 -106.973,139.174l-55.2496 -31.7504z" id="_269422648"/><polygon class="fil1" id="_269423200" points="368.359,435.534 421.89,654.5 634.295,645.794 636.794,709.545 398.359,719.318 372.33,720.386 366.109,694.942 306.358,450.534 "/><path class="fil1" d="M1669.13 1391.59c-32.4,56.1189 -71.7827,107.359 -116.974,152.55 -45.1914,45.1914 -96.4312,84.5705 -152.549,116.971 -176.186,101.721 -376.871,122.414 -558.903,73.6394 -182.058,-48.7819 -345.513,-167.025 -447.205,-343.16 -48.8209,-84.5611 -79.8556,-177.142 -92.3694,-272.202 -12.5162,-95.0705 -6.51497,-192.484 18.7299,-286.703l61.7504 16.5c-23.1177,86.2808 -28.6394,175.282 -17.2299,261.952 11.4106,86.68 39.7571,171.182 84.3686,248.452 92.8737,160.862 242.165,268.853 408.455,313.41 166.316,44.5642 349.592,25.7044 510.402,-67.1386 50.9918,-29.4402 97.7835,-65.4556 139.299,-106.971 41.5181,-41.5181 77.5347,-88.3099 106.975,-139.301l55.2496 32.0008z" id="_269418736"/><polygon class="fil1" id="_269417488" points="1679.64,1612.46 1626.11,1393.5 1413.71,1402.21 1411.21,1338.45 1649.64,1328.68 1675.67,1327.61 1681.89,1353.06 1741.64,1597.46 "/></g></g></svg>