<?xml version="1.0" ?><!DOCTYPE svg  PUBLIC '-//W3C//DTD SVG 1.1//EN'  'http://www.w3.org/Graphics/SVG/1.1/DTD/svg11.dtd'><svg height="2048px" style="shape-rendering:geometricPrecision; text-rendering:geometricPrecision; image-rendering:optimizeQuality; fill-rule:evenodd; clip-rule:evenodd" viewBox="0 0 2048 2048" width="2048px" xml:space="preserve" xmlns="http://www.w3.org/2000/svg" xmlns:xlink="http://www.w3.org/1999/xlink"><defs><style type="text/css">
   <![CDATA[
    .fil0 {fill:none}
    .fil1 {fill:#212121;fill-rule:nonzero}
   ]]>
  </style></defs><g id="Layer_x0020_1"><g id="_189717088"><rect class="fil0" height="2048" id="_189720664" width="2048"/><rect class="fil0" height="1536" id="_189717040" width="1536" x="255.999" y="255.999"/></g><g id="_189719032"><path class="fil1" d="M566.567 1526.37c101.958,-41.1012 195.01,-104.026 282.965,-169.23 -1.76339,22.4516 -5.10473,44.8512 -9.47717,66.7571 -94.5497,67.0831 -196.162,128.539 -307.44,163.057l-54.3756 16.8662 18.0213 -44.387c35.517,-87.4808 62.2453,-191.185 60.6957,-286.158 -720.766,-375.969 90.6024,-1094.93 739.33,-741.71 7.98426,4.34764 15.8291,8.82875 23.5311,13.4327 -38.2961,-5.71063 -76.9394,-8.55591 -115.303,-8.55591 -2.21339,0 -4.42914,0.0129921 -6.64371,0.0307087 -592.974,-240.864 -1245.33,382.108 -598.928,705.785l12.5256 6.27048 0.497244 11.7874c3.72402,88.1812 -16.6228,182.858 -45.3992,266.054z" id="_189725704"/><path class="fil1" d="M891.466 1542.08c47.6162,-19.1965 93.3485,-43.9489 136.977,-71.2028 58.7811,-36.7217 114.22,-78.365 165.35,-117.19l16.5059 -5.43662c104.283,-2.10236 206.472,-25.4823 292.282,-68.4367 79.9064,-39.9981 145.494,-97.0359 185.047,-169.697 24.7016,-45.3674 36.0071,-90.4938 36.0071,-134.015 0,-58.6087 -20.5795,-114.328 -56.5902,-163.81 -36.2764,-49.8461 -88.239,-93.4572 -150.683,-127.458 -88.0572,-47.9469 -196.846,-76.6288 -311.847,-76.6288 -171.517,0 -313.018,57.1158 -404.624,140.882 -49.6028,45.3579 -84.5835,98.4839 -101.75,154.501 -17.0894,55.767 -16.5177,114.487 4.88032,171.318 29.6008,78.6166 99.2635,153.827 217.409,212.986l11.2063 5.61024 0.445276 10.5461c1.81417,42.9603 -2.8937,88.6642 -12.0402,133.948 -7.16575,35.478 -17.0244,70.6784 -28.5768,104.084zm167.464 -39.9792c-61.6123,38.4898 -127.604,72.3957 -197.84,94.1824l-48.6473 15.0898 16.1221 -39.7111c17.6728,-43.5307 32.7945,-91.604 42.5445,-139.878 7.9441,-39.3284 12.3662,-78.8245 11.7579,-116.141 -122.478,-63.8882 -195.519,-144.667 -227.42,-229.395 -23.9764,-63.6768 -24.6142,-129.481 -5.46142,-191.98 19.076,-62.2465 57.7937,-121.14 112.623,-171.278 100.493,-91.8934 255.101,-154.552 441.906,-154.552 125.165,0 243.718,31.2981 339.808,83.6186 68.4473,37.2697 125.563,85.2875 165.636,140.351 40.3359,55.4245 63.3863,117.901 63.3863,183.695 0,48.652 -12.6461,99.1123 -40.278,149.861 -43.7811,80.4296 -116.173,143.46 -204.273,187.56 -90.5575,45.3296 -197.85,70.591 -307.655,74.0859 -49.8981,37.8366 -103.873,78.0497 -162.209,114.493z" id="_189715528"/></g></g></svg>