<?xml version="1.0" ?><!DOCTYPE svg  PUBLIC '-//W3C//DTD SVG 1.1//EN'  'http://www.w3.org/Graphics/SVG/1.1/DTD/svg11.dtd'><svg height="2048px" style="shape-rendering:geometricPrecision; text-rendering:geometricPrecision; image-rendering:optimizeQuality; fill-rule:evenodd; clip-rule:evenodd" viewBox="0 0 2048 2048" width="2048px" xml:space="preserve" xmlns="http://www.w3.org/2000/svg" xmlns:xlink="http://www.w3.org/1999/xlink"><defs><style type="text/css">
   <![CDATA[
    .fil0 {fill:none}
    .fil1 {fill:#212121;fill-rule:nonzero}
   ]]>
  </style></defs><g id="Layer_x0020_1"><g id="_272169272"><rect class="fil0" height="2048" id="_272168744" width="2048"/><rect class="fil0" height="1536" id="_272176256" width="1536" x="255.999" y="255.999"/></g><path class="fil1" d="M1760 886.838l0 274.321c0,24.8965 -11.452,47.139 -30,62.9847 -17.1933,14.687 -40.5674,23.7626 -66.0863,23.7626l-31.8827 0 0 77.8607c0,32.387 -15.0957,61.5166 -39.4607,82.3595 -22.9937,19.6736 -54.3804,31.8744 -88.6642,31.8744l-1087.99 0c-34.2744,0 -65.5985,-12.1961 -88.5331,-31.8579 -24.3331,-20.8595 -39.391,-49.9985 -39.391,-82.376l0 -603.544c0,-32.4331 15.0425,-61.5473 39.3532,-82.3879 22.9441,-19.6677 54.2859,-31.8378 88.5709,-31.8378l1087.99 0c34.3028,0 65.7024,12.176 88.7044,31.8508 24.3449,20.824 39.4205,49.9323 39.4205,82.3749l0 77.6882 31.8827 0c25.5425,0 48.9213,9.08741 66.0981,23.8099 18.541,15.8917 29.9882,38.1733 29.9882,63.117zm-64.0016 274.321l0 -274.321c0,-5.46615 -2.85827,-10.65 -7.48583,-14.6162 -5.9941,-5.1378 -14.6646,-8.30906 -24.5988,-8.30906l-63.8835 0 -32.0008 0 0 -32.0008 0 -109.689c0,-12.9366 -6.47008,-24.9378 -16.9181,-33.874 -11.8063,-10.0996 -28.4835,-16.35 -47.2052,-16.35l-1087.99 0c-18.6756,0 -35.2985,6.24449 -47.0717,16.337 -10.4091,8.92324 -16.8508,20.9268 -16.8508,33.887l0 603.544c0,12.9201 6.45709,24.9331 16.8886,33.8752 11.7756,10.0949 28.3843,16.3571 47.0339,16.3571l1087.99 0c18.691,0 35.3528,-6.26812 47.165,-16.3736 10.4705,-8.95749 16.9583,-20.9634 16.9583,-33.8587l0 -109.862 0 -32.0008 32.0008 0 63.8835 0c9.94607,0 18.6095,-3.15591 24.587,-8.26182 4.63465,-3.95906 7.49764,-9.1004 7.49764,-14.4839z"/><path class="fil1" d="M476.135 1150.5c-12.4949,12.4949 -12.4949,32.7555 0,45.2504 12.4949,12.4949 32.7555,12.4949 45.2504,0l235.994 -235.994 23.876 191 31.7504 -3.8752 -31.7528 3.96969c2.19213,17.5358 18.1866,29.9752 35.7225,27.7831 7.48347,-0.935434 14.0374,-4.38544 18.9236,-9.39568l271.732 -271.732c12.4949,-12.4949 12.4949,-32.7555 0,-45.2504 -12.4949,-12.4949 -32.7555,-12.4949 -45.2504,0l-225.749 225.749 -23.7697 -190.149c-0.67441,-7.15394 -3.75118,-14.1248 -9.22914,-19.6028 -12.4961,-12.4961 -32.7591,-12.4961 -45.2552,0l0.00236221 0.00236221 -282.245 282.245z"/></g></svg>