<?xml version="1.0" ?><!DOCTYPE svg  PUBLIC '-//W3C//DTD SVG 1.1//EN'  'http://www.w3.org/Graphics/SVG/1.1/DTD/svg11.dtd'><svg height="2048px" style="shape-rendering:geometricPrecision; text-rendering:geometricPrecision; image-rendering:optimizeQuality; fill-rule:evenodd; clip-rule:evenodd" viewBox="0 0 2048 2048" width="2048px" xml:space="preserve" xmlns="http://www.w3.org/2000/svg" xmlns:xlink="http://www.w3.org/1999/xlink"><defs><style type="text/css">
   <![CDATA[
    .str0 {stroke:#212121;stroke-width:64.0004;stroke-linecap:round;stroke-linejoin:round}
    .fil0 {fill:none}
    .fil1 {fill:#212121;fill-rule:nonzero}
   ]]>
  </style></defs><g id="Layer_x0020_1"><g id="_192173832"><rect class="fil0" height="2048" id="_192177504" width="2048"/><rect class="fil0" height="1536" id="_192173736" width="1536" x="255.999" y="255.999"/></g><path class="fil1" d="M1600 960.108l-1151.99 0 0 735.892 1151.99 0 0 -735.892zm-1160.55 -64.0016l1169.1 0c15.1134,0 29.041,6.34252 39.0792,16.3807l0 0.125197c10.0181,10.0217 16.3713,23.8784 16.3713,38.9481l0 752.952c0,15.0638 -6.34961,28.9347 -16.3725,38.974 -10.1008,10.1173 -24.0307,16.5154 -39.078,16.5154l-1169.1 0c-15.5705,0 -29.3327,-6 -39.4441,-16.1339 -10.0559,-10.0736 -15.998,-23.8122 -15.998,-39.3555l0 -752.952c0,-15.548 5.94804,-29.2713 15.998,-39.3272 10.1268,-10.1315 23.8949,-16.1268 39.4441,-16.1268z"/><path class="fil1" d="M1023.9 288.136c-17.6043,0 -31.8756,14.2713 -31.8756,31.8756 0,17.6043 14.2713,31.8756 31.8756,31.8756l0 -63.7512zm0 0c105.637,0.270473 201.542,43.4563 270.976,112.867 69.5871,69.567 112.763,165.351 112.763,270.639l-64.0016 0c0,-87.782 -35.9008,-167.545 -93.7619,-225.389 -58.0524,-58.0347 -138.044,-94.1422 -225.976,-94.3666 17.6043,0 31.8756,-14.2713 31.8756,-31.8756 0,-17.6043 -14.2713,-31.8756 -31.8756,-31.8756l0 63.7512c-87.932,0.22441 -167.923,36.3319 -225.976,94.3666 -57.8611,57.8434 -93.7619,137.607 -93.7619,225.389l-64.0016 0c0,-105.288 43.1764,-201.072 112.763,-270.639 69.4335,-69.4111 165.339,-112.597 270.976,-112.867zm383.739 383.507l0 256.465 -64.0016 0 0 -256.465c0,-17.6728 14.328,-32.0008 32.0008,-32.0008 17.6728,0 32.0008,14.328 32.0008,32.0008zm-703.477 0l0 256.465 -64.0016 0 0 -256.465c0,-17.6728 14.328,-32.0008 32.0008,-32.0008 17.6728,0 32.0008,14.328 32.0008,32.0008z"/><path class="fil0 str0" d="M1024 320c0.303544,0 0.604725,0.0106299 0.908268,0.011811"/><path class="fil1" d="M1024 1088c35.341,0 67.3406,14.328 90.5056,37.4929 23.1638,23.1638 37.4918,55.1634 37.4918,90.5044 0,35.341 -14.328,67.3406 -37.4918,90.5056 -23.165,23.1638 -55.1646,37.4918 -90.5056,37.4918 -35.341,0 -67.3406,-14.328 -90.5056,-37.4918 -23.1638,-23.165 -37.4918,-55.1646 -37.4918,-90.5056 0,-35.341 14.328,-67.3406 37.4918,-90.5044 23.165,-23.165 55.1646,-37.4929 90.5056,-37.4929zm45.2552 82.7434c-11.5795,-11.5795 -27.5799,-18.7417 -45.2552,-18.7417 -17.6752,0 -33.6756,7.16221 -45.2552,18.7417 -11.5784,11.5784 -18.7406,27.5788 -18.7406,45.254 0,17.6752 7.16339,33.6768 18.7406,45.2552 11.5784,11.5772 27.5799,18.7406 45.2552,18.7406 17.6752,0 33.6768,-7.16339 45.2552,-18.7406 11.5772,-11.5784 18.7406,-27.5799 18.7406,-45.2552 0,-17.6752 -7.16221,-33.6756 -18.7406,-45.254z"/><path class="fil1" d="M1056 1311.99c0,-17.6728 -14.328,-32.0008 -32.0008,-32.0008 -17.6728,0 -32.0008,14.328 -32.0008,32.0008l0 224.007c0,17.6728 14.328,32.0008 32.0008,32.0008 17.6728,0 32.0008,-14.328 32.0008,-32.0008l0 -224.007z"/></g></svg>