<?xml version="1.0" ?><!DOCTYPE svg  PUBLIC '-//W3C//DTD SVG 1.1//EN'  'http://www.w3.org/Graphics/SVG/1.1/DTD/svg11.dtd'><svg height="2048px" style="shape-rendering:geometricPrecision; text-rendering:geometricPrecision; image-rendering:optimizeQuality; fill-rule:evenodd; clip-rule:evenodd" viewBox="0 0 2048 2048" width="2048px" xml:space="preserve" xmlns="http://www.w3.org/2000/svg" xmlns:xlink="http://www.w3.org/1999/xlink"><defs><style type="text/css">
   <![CDATA[
    .fil0 {fill:none}
    .fil1 {fill:#212121;fill-rule:nonzero}
   ]]>
  </style></defs><g id="Layer_x0020_1"><g id="_270948504"><rect class="fil0" height="2048" id="_270949680" width="2048"/><rect class="fil0" height="1536" id="_270951168" width="1536" x="255.999" y="255.999"/></g><path class="fil1" d="M1055.25 941.904l167.029 779.475 8.27599 38.6256 -39.5256 0 -334.059 0 -39.5256 0 8.27599 -38.6256 167.029 -779.475 31.2496 6.62481 31.2496 -6.62481zm96.2528 754.099l-127.502 -595.017 -127.502 595.017 255.005 0z"/><path class="fil1" d="M1024 673.629c43.4256,0 82.7446,17.6043 111.207,46.0666 28.4622,28.4622 46.0666,67.7812 46.0666,111.207 0,43.4256 -17.6043,82.7446 -46.0666,111.207 -28.4622,28.4599 -67.7812,46.0666 -111.207,46.0666 -43.4256,0 -82.7446,-17.6067 -111.207,-46.0666 -28.4622,-28.4622 -46.0666,-67.7812 -46.0666,-111.207 0,-43.4256 17.6043,-82.7446 46.0666,-111.207 28.4622,-28.4622 67.7812,-46.0666 111.207,-46.0666zm65.9563 91.317c-16.8768,-16.8768 -40.1965,-27.3154 -65.9563,-27.3154 -25.7599,0 -49.0796,10.4386 -65.9563,27.3154 -16.8768,16.8768 -27.3154,40.1965 -27.3154,65.9563 0,25.7599 10.4386,49.0796 27.3154,65.9563 16.8756,16.8756 40.1965,27.3154 65.9563,27.3154 25.7599,0 49.0807,-10.4398 65.9563,-27.3154 16.8768,-16.8768 27.3154,-40.1965 27.3154,-65.9563 0,-25.7599 -10.4386,-49.0796 -27.3154,-65.9563z"/><path class="fil1" d="M789.788 1139.58c-48.3591,-36.6933 -86.7095,-83.576 -112.938,-136.401 -26.2795,-52.93 -40.4764,-111.773 -40.4764,-172.275 0,-87.6379 29.465,-169.859 80.1142,-235.866 50.6811,-66.0485 122.518,-115.823 207.219,-138.516l16.5 61.7504c-70.7705,18.9614 -130.73,60.4678 -172.969,115.515 -42.2705,55.089 -66.8623,123.797 -66.8623,197.117 0,50.7343 11.8287,99.9249 33.7252,144.025 21.9496,44.2063 53.9351,83.3599 94.1871,113.901l-38.4992 50.7496z"/><path class="fil1" d="M709.319 1295.08c-77.0398,-52.2272 -138.601,-121.799 -180.877,-201.534 -42.3107,-79.8012 -65.3705,-169.745 -65.3705,-262.641 0,-126.859 42.6355,-245.853 115.926,-341.367 73.3229,-95.556 177.272,-167.568 299.855,-200.413l16.5 61.7504c-108.653,29.1118 -200.725,92.8583 -265.605,177.412 -64.9123,84.5953 -102.674,190.078 -102.674,302.618 0,82.4965 20.4142,162.248 57.8682,232.891 37.4894,70.7079 91.9902,132.343 160.127,178.533l-35.7496 52.7504z"/><path class="fil1" d="M1219.71 1088.83c40.252,-30.541 72.2375,-69.6945 94.1871,-113.901 21.8965,-44.1 33.7252,-93.2906 33.7252,-144.025 0,-73.3182 -24.5918,-142.026 -66.8623,-197.117 -42.2398,-55.0465 -102.2,-96.554 -172.97,-115.515l16.5 -61.7504c84.7016,22.6949 156.538,72.4666 207.22,138.516 50.6493,66.0095 80.1142,148.227 80.1142,235.866 0,60.502 -14.1969,119.345 -40.4764,172.275 -26.2288,52.8248 -64.5792,99.7076 -112.938,136.401l-38.4992 -50.7496z"/><path class="fil1" d="M1302.93 1242.33c68.1355,-46.1906 122.637,-107.824 160.127,-178.532 37.4551,-70.6441 57.8682,-150.396 57.8682,-232.892 0,-112.539 -37.7622,-218.022 -102.674,-302.618 -64.8804,-84.554 -156.952,-148.301 -265.605,-177.412l16.5 -61.7504c122.583,32.8453 226.532,104.857 299.855,200.413 73.291,95.5146 115.926,214.508 115.926,341.367 0,92.895 -23.0599,182.838 -65.3705,262.642 -42.2764,79.7351 -103.838,149.307 -180.877,201.533l-35.7496 -52.7504z"/></g></svg>