<?xml version="1.0" ?><!DOCTYPE svg  PUBLIC '-//W3C//DTD SVG 1.1//EN'  'http://www.w3.org/Graphics/SVG/1.1/DTD/svg11.dtd'><svg height="2048px" style="shape-rendering:geometricPrecision; text-rendering:geometricPrecision; image-rendering:optimizeQuality; fill-rule:evenodd; clip-rule:evenodd" viewBox="0 0 2048 2048" width="2048px" xml:space="preserve" xmlns="http://www.w3.org/2000/svg" xmlns:xlink="http://www.w3.org/1999/xlink"><defs><style type="text/css">
   <![CDATA[
    .fil2 {fill:none}
    .fil0 {fill:#424242}
    .fil1 {fill:#FFFFFE;fill-rule:nonzero}
   ]]>
  </style></defs><rect class="fil0" height="2048" width="2048"/><g id="Layer_x0020_1"><path class="fil1" d="M996 768l664 0c36,0 69,15 93,39 24,24 39,57 39,93l0 763c0,36 -15,68 -38,92 -24,23 -57,38 -93,38l-1272 0c-36,0 -69,-14 -94,-37 -24,-23 -39,-55 -39,-92l0 -713 0 -151 0 -92c0,-36 15,-69 39,-93 24,-24 57,-39 93,-39l440 0c68,0 93,49 120,101 4,7 7,14 8,16l39 75zm664 64l-684 0 -19 0 -9 -17 -48 -92c-5,-9 -7,-13 -9,-17 -17,-34 -34,-66 -63,-66l-440 0c-19,0 -36,8 -48,20 -12,12 -20,29 -20,48l0 92 0 151 0 713c0,18 7,34 19,46 13,12 30,19 49,19l1272 0c19,0 36,-7 48,-19 12,-12 19,-28 19,-46l0 -763c0,-19 -8,-36 -20,-48 -12,-12 -29,-20 -48,-20z"/><path class="fil1" d="M1728 750l0 -202c0,-19 -8,-36 -20,-48 -12,-12 -29,-20 -48,-20l-1272 0c-19,0 -36,8 -48,20 -12,12 -20,29 -20,48l0 10c-18,8 -34,19 -48,33 -6,6 -11,12 -16,19l0 -62c0,-36 15,-69 39,-93 24,-24 57,-39 93,-39l1272 0c36,0 69,15 93,39 24,24 39,57 39,93l0 254c-5,-7 -10,-13 -16,-19 -14,-14 -30,-25 -48,-33z"/><path class="fil1" d="M704 928l256 0 32 0 0 32 0 256 0 32 -32 0 -256 0 -32 0 0 -32 0 -256 0 -32 32 0zm224 64l-192 0 0 192 192 0 0 -192z"/><path class="fil1" d="M704 1312l256 0 32 0 0 32 0 256 0 32 -32 0 -256 0 -32 0 0 -32 0 -256 0 -32 32 0zm224 64l-192 0 0 192 192 0 0 -192z"/><path class="fil1" d="M1088 928l256 0 32 0 0 32 0 256 0 32 -32 0 -256 0 -32 0 0 -32 0 -256 0 -32 32 0zm224 64l-192 0 0 192 192 0 0 -192z"/><path class="fil1" d="M1088 1312l256 0 32 0 0 32 0 256 0 32 -32 0 -256 0 -32 0 0 -32 0 -256 0 -32 32 0zm224 64l-192 0 0 192 192 0 0 -192z"/><rect class="fil2" height="2048" width="2048"/></g></svg>