<?xml version="1.0" ?><!DOCTYPE svg  PUBLIC '-//W3C//DTD SVG 1.1//EN'  'http://www.w3.org/Graphics/SVG/1.1/DTD/svg11.dtd'><svg height="2048px" style="shape-rendering:geometricPrecision; text-rendering:geometricPrecision; image-rendering:optimizeQuality; fill-rule:evenodd; clip-rule:evenodd" viewBox="0 0 2048 2048" width="2048px" xml:space="preserve" xmlns="http://www.w3.org/2000/svg" xmlns:xlink="http://www.w3.org/1999/xlink"><defs><style type="text/css">
   <![CDATA[
    .fil2 {fill:none}
    .fil0 {fill:#424242}
    .fil1 {fill:#FFFFFE;fill-rule:nonzero}
   ]]>
  </style></defs><rect class="fil0" height="2048" width="2048"/><g id="Layer_x0020_1"><g id="_486788504"><path class="fil1" d="M818 320c-34,1 -62,4 -87,10 -23,5 -41,13 -57,22 -92,56 -70,216 -52,350 12,85 22,162 3,209 -14,35 -37,71 -74,98 -37,27 -87,45 -158,47l-2 -64c56,-2 95,-15 122,-35 26,-19 42,-44 53,-70 13,-32 4,-100 -7,-177 -21,-153 -46,-335 82,-413 21,-13 46,-23 76,-30 28,-7 61,-10 99,-12l2 64z"/><path class="fil1" d="M1230 320c34,1 62,4 87,10 23,5 41,13 57,22 92,56 70,216 52,350 -12,85 -22,162 -3,209 14,35 37,71 74,98 37,27 87,45 158,47l2 -64c-56,-2 -95,-15 -122,-35 -26,-19 -42,-44 -53,-70 -13,-32 -4,-100 7,-177 21,-153 46,-335 -82,-413 -21,-13 -46,-23 -76,-30 -28,-7 -61,-10 -99,-12l-2 64z"/><path class="fil1" d="M816 1792c-38,-1 -71,-5 -99,-12 -30,-7 -55,-17 -76,-30 -128,-78 -103,-260 -82,-413 11,-77 20,-145 7,-177 -10,-25 -26,-51 -53,-70 -27,-20 -66,-33 -122,-35l2 -64c71,2 122,20 158,47 38,27 60,63 74,98 19,48 9,124 -3,209 -18,134 -40,294 52,350 15,9 34,17 57,22 24,6 53,9 87,10l-2 64z"/><path class="fil1" d="M1232 1792c38,-1 71,-5 99,-12 30,-7 55,-17 76,-30 128,-78 103,-260 82,-413 -11,-77 -20,-145 -7,-177 10,-25 26,-51 53,-70 27,-20 66,-33 122,-35l-2 -64c-71,2 -122,20 -158,47 -38,27 -60,63 -74,98 -19,48 -9,124 3,209 18,134 40,294 -52,350 -15,9 -34,17 -57,22 -24,6 -53,9 -87,10l2 64z"/></g><rect class="fil2" height="2048" width="2048"/></g></svg>