<?xml version="1.0" ?><!DOCTYPE svg  PUBLIC '-//W3C//DTD SVG 1.1//EN'  'http://www.w3.org/Graphics/SVG/1.1/DTD/svg11.dtd'><svg height="2048px" style="shape-rendering:geometricPrecision; text-rendering:geometricPrecision; image-rendering:optimizeQuality; fill-rule:evenodd; clip-rule:evenodd" viewBox="0 0 2048 2048" width="2048px" xml:space="preserve" xmlns="http://www.w3.org/2000/svg" xmlns:xlink="http://www.w3.org/1999/xlink"><defs><style type="text/css">
   <![CDATA[
    .fil2 {fill:none}
    .fil0 {fill:#424242}
    .fil1 {fill:#FFFFFE;fill-rule:nonzero}
   ]]>
  </style></defs><rect class="fil0" height="2048" width="2048"/><g id="Layer_x0020_1"><path class="fil1" d="M306 751c57,-149 156,-272 282,-359 125,-86 277,-136 436,-136 212,0 404,86 543,225 139,139 225,331 225,543 0,212 -86,404 -225,543 -139,139 -331,225 -543,225 -199,0 -382,-76 -519,-202 -137,-126 -229,-301 -246,-500l64 -5c16,182 100,343 226,458 126,115 293,185 476,185 194,0 370,-79 498,-206 127,-127 206,-303 206,-498 0,-194 -79,-370 -206,-498 -127,-127 -303,-206 -498,-206 -146,0 -285,45 -400,124 -115,79 -206,193 -258,329l-60 -23z"/><path class="fil1" d="M1024 864c44,0 84,18 113,47 29,29 47,69 47,113 0,44 -18,84 -47,113 -29,29 -69,47 -113,47 -44,0 -84,-18 -113,-47 -29,-29 -47,-69 -47,-113 0,-44 18,-84 47,-113 29,-29 69,-47 113,-47zm68 92c-17,-17 -41,-28 -68,-28 -27,0 -51,11 -68,28 -17,17 -28,41 -28,68 0,27 11,51 28,68 17,17 41,28 68,28 27,0 51,-11 68,-28 17,-17 28,-41 28,-68 0,-27 -11,-51 -28,-68z"/><polygon class="fil1" points="245,478 337,750 607,659 627,720 327,821 296,831 286,801 185,498 "/><rect class="fil2" height="2048" width="2048"/></g></svg>