<?xml version="1.0" ?><!DOCTYPE svg  PUBLIC '-//W3C//DTD SVG 1.1//EN'  'http://www.w3.org/Graphics/SVG/1.1/DTD/svg11.dtd'><svg height="2048px" style="shape-rendering:geometricPrecision; text-rendering:geometricPrecision; image-rendering:optimizeQuality; fill-rule:evenodd; clip-rule:evenodd" viewBox="0 0 2048 2048" width="2048px" xml:space="preserve" xmlns="http://www.w3.org/2000/svg" xmlns:xlink="http://www.w3.org/1999/xlink"><defs><style type="text/css">
   <![CDATA[
    .fil1 {fill:none}
    .fil0 {fill:#424242}
    .fil2 {fill:#FFFFFE;fill-rule:nonzero}
   ]]>
  </style></defs><rect class="fil0" height="2048" width="2048"/><g id="Layer_x0020_1"><rect class="fil1" height="2048" width="2048"/><path class="fil2" d="M1024 256c212,0 404,86 543,225 94,94 163,211 199,343 1,3 1,5 2,8l-63 12c0,-1 -1,-3 -1,-4 -33,-120 -96,-228 -182,-313 -127,-127 -303,-206 -498,-206 -194,0 -370,79 -498,206 -127,127 -206,303 -206,498 0,194 79,370 206,498 127,127 303,206 498,206 156,0 299,-51 416,-136l0 78c-120,77 -263,122 -416,122 -212,0 -404,-86 -543,-225 -139,-139 -225,-331 -225,-543 0,-212 86,-404 225,-543 139,-139 331,-225 543,-225z"/><path class="fil2" d="M1006 608c6,0 12,0 19,1 83,6 156,51 207,121 49,68 79,159 79,261l0 0c0,12 0,25 -1,38 -8,114 -51,217 -114,292 -65,77 -151,125 -243,125 -6,0 -12,0 -19,-1 -83,-6 -156,-51 -207,-121 -49,-68 -79,-159 -79,-261l0 0c0,-12 0,-25 1,-38 8,-114 51,-217 114,-292 65,-77 151,-125 243,-125zm14 64c-4,0 -9,0 -14,0 -73,0 -142,39 -195,102 -55,65 -92,155 -99,255 -1,11 -1,22 -1,34l0 0c0,88 25,166 67,224 40,55 96,90 160,95 4,0 9,0 14,0 73,0 142,-39 195,-102 55,-65 92,-155 99,-255 1,-11 1,-22 1,-34l0 0c0,-88 -25,-166 -67,-224 -40,-55 -96,-90 -160,-95z"/><path class="fil2" d="M1334 615l-40 649c4,56 24,94 53,114 19,14 43,20 69,19 110,-4 206,-91 256,-201 53,-118 55,-261 31,-357l62 -16c27,110 25,262 -32,390 -59,134 -176,242 -315,247 -40,1 -77,-9 -108,-30 -45,-31 -75,-86 -80,-165l0 -4 40 -651 64 4z"/></g></svg>