<?xml version="1.0" ?><!DOCTYPE svg  PUBLIC '-//W3C//DTD SVG 1.1//EN'  'http://www.w3.org/Graphics/SVG/1.1/DTD/svg11.dtd'><svg height="2048px" style="shape-rendering:geometricPrecision; text-rendering:geometricPrecision; image-rendering:optimizeQuality; fill-rule:evenodd; clip-rule:evenodd" viewBox="0 0 2048 2048" width="2048px" xml:space="preserve" xmlns="http://www.w3.org/2000/svg" xmlns:xlink="http://www.w3.org/1999/xlink"><defs><style type="text/css">
   <![CDATA[
    .fil2 {fill:none}
    .fil0 {fill:#424242}
    .fil1 {fill:#FFFFFE;fill-rule:nonzero}
   ]]>
  </style></defs><rect class="fil0" height="2048" width="2048"/><g id="Layer_x0020_1"><path class="fil1" d="M1024 256c85,0 163,16 221,61 59,46 96,120 96,234 0,110 -35,211 -90,283 -58,75 -138,122 -227,122 -89,0 -170,-47 -227,-122 -56,-73 -90,-173 -90,-283 0,-114 37,-188 96,-234 58,-45 136,-61 221,-61zm182 112c-45,-35 -110,-48 -182,-48 -72,0 -137,13 -182,48 -44,34 -71,92 -71,184 0,96 29,182 77,245 46,60 108,97 177,97 68,0 131,-37 177,-97 48,-62 77,-149 77,-245 0,-92 -27,-150 -71,-184z"/><path class="fil1" d="M1024 981c159,0 303,65 407,169 104,104 169,249 169,407l0 102c0,36 -15,69 -39,93 -24,24 -57,39 -93,39l-889 0c-36,0 -69,-15 -93,-39 -24,-24 -39,-57 -39,-93l0 -102c0,-159 65,-303 169,-407 104,-104 249,-169 407,-169zm362 215c-93,-93 -221,-151 -362,-151 -141,0 -269,58 -362,151 -93,93 -151,221 -151,362l0 102c0,19 8,36 20,48 12,12 29,20 48,20l889 0c19,0 36,-8 48,-20 12,-12 20,-29 20,-48l0 -102c0,-141 -58,-269 -151,-362z"/><rect class="fil2" height="2048" width="2048"/></g></svg>