<?xml version="1.0" ?><!DOCTYPE svg  PUBLIC '-//W3C//DTD SVG 1.1//EN'  'http://www.w3.org/Graphics/SVG/1.1/DTD/svg11.dtd'><svg height="2048px" style="shape-rendering:geometricPrecision; text-rendering:geometricPrecision; image-rendering:optimizeQuality; fill-rule:evenodd; clip-rule:evenodd" viewBox="0 0 2048 2048" width="2048px" xml:space="preserve" xmlns="http://www.w3.org/2000/svg" xmlns:xlink="http://www.w3.org/1999/xlink"><defs><style type="text/css">
   <![CDATA[
    .fil0 {fill:none}
    .fil1 {fill:#212121;fill-rule:nonzero}
   ]]>
  </style></defs><g id="Layer_x0020_1"><g id="_271275280"><rect class="fil0" height="2048" id="_271276288" width="2048"/><rect class="fil0" height="1536" id="_271278064" width="1536" x="255.999" y="255.999"/></g><path class="fil1" d="M608.608 1569.51c-35.5359,0 -68.0564,-14.387 -91.6902,-37.7717 -23.4874,-23.2382 -38.1048,-55.3264 -38.1048,-90.9851 0,-35.6587 14.6162,-67.7457 38.1048,-90.9863 23.6339,-23.3847 56.1544,-37.7717 91.6902,-37.7717 35.5359,0 68.0552,14.387 91.6902,37.7717 23.4874,23.2406 38.1036,55.3276 38.1036,90.9863 0,35.6587 -14.6162,67.7469 -38.1036,90.9851 -23.6351,23.3847 -56.1544,37.7717 -91.6902,37.7717zm-46.6902 -83.0221c11.902,11.7756 28.4528,19.0205 46.6902,19.0205 18.2386,0 34.7882,-7.24489 46.6902,-19.0205 11.7744,-11.6492 19.102,-27.7784 19.102,-45.7347 0,-17.9575 -7.32875,-34.0866 -19.102,-45.7359 -11.9008,-11.7744 -28.4516,-19.0205 -46.6902,-19.0205 -18.2374,0 -34.7882,7.24489 -46.6902,19.0205 -11.7744,11.6504 -19.1032,27.7795 -19.1032,45.7359 0,17.9563 7.32756,34.0855 19.1032,45.7347z"/><path class="fil1" d="M1664 1696l-1280 0 -32.0008 0 0 -32.0008 0 -1280.05 0 -32.0008 32.0008 0 1280 0 32.0008 0 0 32.0008 0 1280.05 0 32.0008 -32.0008 0zm-1248 -64.0016l1216 0 0 -1216.05 -1216 0 0 1216.05z"/><path class="fil1" d="M1023.41 1569.51c-35.5359,0 -68.0564,-14.387 -91.6902,-37.7717 -23.4874,-23.2382 -38.1048,-55.3264 -38.1048,-90.9851 0,-35.6587 14.6162,-67.7457 38.1048,-90.9863 23.6339,-23.3847 56.1544,-37.7717 91.6902,-37.7717 35.5359,0 68.0564,14.387 91.6902,37.7717 23.4874,23.2406 38.1036,55.3276 38.1036,90.9863 0,35.6587 -14.6162,67.7469 -38.1036,90.9851 -23.6351,23.3847 -56.1544,37.7717 -91.6902,37.7717zm-46.6902 -83.0221c11.902,11.7756 28.4528,19.0205 46.6902,19.0205 18.2386,0 34.7882,-7.24489 46.6902,-19.0205 11.7744,-11.6492 19.102,-27.7784 19.102,-45.7347 0,-17.9575 -7.32875,-34.0866 -19.102,-45.7359 -11.902,-11.7756 -28.4528,-19.0205 -46.6902,-19.0205 -18.2374,0 -34.7882,7.24489 -46.6902,19.0205 -11.7744,11.6504 -19.1032,27.7795 -19.1032,45.7359 0,17.9563 7.32756,34.0855 19.1032,45.7347z"/><path class="fil1" d="M1438.21 1569.51c-35.5359,0 -68.0552,-14.387 -91.6902,-37.7717 -23.4874,-23.2382 -38.1048,-55.3264 -38.1048,-90.9851 0,-35.6587 14.6162,-67.7457 38.1048,-90.9863 23.6351,-23.3847 56.1544,-37.7717 91.6902,-37.7717 35.5359,0 68.0564,14.387 91.6902,37.7717 23.4874,23.2406 38.1036,55.3276 38.1036,90.9863 0,35.6587 -14.6162,67.7469 -38.1036,90.9851 -23.6351,23.3847 -56.1544,37.7717 -91.6902,37.7717zm-46.6902 -83.0221c11.9008,11.7744 28.4516,19.0205 46.6902,19.0205 18.2386,0 34.7882,-7.24489 46.6902,-19.0205 11.7744,-11.6492 19.102,-27.7784 19.102,-45.7347 0,-17.9575 -7.32875,-34.0866 -19.102,-45.7359 -11.902,-11.7756 -28.4528,-19.0205 -46.6902,-19.0205 -18.2386,0 -34.7894,7.24607 -46.6902,19.0205 -11.7744,11.6504 -19.1032,27.7795 -19.1032,45.7359 0,17.9563 7.32756,34.0855 19.1032,45.7347z"/><polygon class="fil1" points="694.626,969.374 833.807,1108.56 1451.38,583.623 1492.63,632.375 852.625,1176.38 830.193,1195.44 809.375,1174.62 649.375,1014.62 "/></g></svg>