<?xml version="1.0" ?><!DOCTYPE svg  PUBLIC '-//W3C//DTD SVG 1.1//EN'  'http://www.w3.org/Graphics/SVG/1.1/DTD/svg11.dtd'><svg height="2048px" style="shape-rendering:geometricPrecision; text-rendering:geometricPrecision; image-rendering:optimizeQuality; fill-rule:evenodd; clip-rule:evenodd" viewBox="0 0 2048 2048" width="2048px" xml:space="preserve" xmlns="http://www.w3.org/2000/svg" xmlns:xlink="http://www.w3.org/1999/xlink"><defs><style type="text/css">
   <![CDATA[
    .fil0 {fill:none}
    .fil1 {fill:#212121;fill-rule:nonzero}
   ]]>
  </style></defs><g id="Layer_x0020_1"><g id="_271281088"><rect class="fil0" height="2048" id="_271282216" width="2048"/><rect class="fil0" height="1536" id="_271283344" width="1536" x="255.999" y="255.999"/></g><path class="fil1" d="M1008 906.369c-50.3528,0 -96.0213,-20.2417 -129.136,-52.9583 -33.2729,-32.8736 -53.8619,-78.2197 -53.8619,-128.229 0,-50.0103 20.589,-95.3528 53.8619,-128.228 33.1146,-32.7142 78.7843,-52.9571 129.136,-52.9571 50.3528,0 96.0225,20.2417 129.136,52.9571 33.274,32.8748 53.863,78.2174 53.863,128.228 0,50.0103 -20.589,95.3552 -53.8619,128.229 -33.1146,32.7166 -78.7843,52.9583 -129.137,52.9583zm-84.3863 -98.4591c21.5457,21.287 51.3815,34.4575 84.3863,34.4575 33.0047,0 62.8418,-13.1705 84.3875,-34.4575 21.3803,-21.1229 34.6099,-50.3705 34.6099,-82.728 0,-32.3563 -13.2307,-61.6028 -34.6111,-82.7268 -21.5445,-21.2858 -51.3815,-34.4563 -84.3863,-34.4563 -33.0036,0 -62.8406,13.1705 -84.3863,34.4563 -21.3792,21.124 -34.6099,50.3705 -34.6099,82.7268 0,32.3563 13.2295,61.6052 34.6099,82.728z"/><path class="fil1" d="M1008.19 1352.1c15.2433,-21.4264 31.9914,-44.4059 49.6075,-68.5749 115.781,-158.856 270.207,-370.732 270.207,-518.998 0,-97.2367 -36.1607,-184.41 -94.304,-247.268 -57.9957,-62.6953 -138.012,-101.262 -225.696,-101.262 -87.4453,0 -167.621,38.3327 -225.786,100.846 -58.0205,62.3563 -94.2142,148.776 -94.2142,245.469 0,146.3 155.588,361.564 271.057,521.321 17.4862,24.1937 34.0831,47.1544 49.128,68.4662zm101.108 -31.0748c-28.0831,38.5311 -53.9292,73.9902 -74.8536,104.847l-26.4981 39.0744 -26.3776 -39.1996c-20.6929,-30.7536 -46.3181,-66.2056 -74.2583,-104.863 -120.687,-166.978 -283.308,-391.972 -283.308,-558.571 0,-113.427 42.8209,-215.193 111.465,-288.969 69.9886,-75.2209 166.751,-121.348 272.536,-121.348 105.983,0 202.565,46.4705 272.446,122.014 68.7804,74.3564 111.555,176.819 111.555,290.517 0,168.617 -161.569,390.292 -282.708,556.498z"/><path class="fil1" d="M576 1152l174.259 0c14.2311,21.9177 28.6583,43.3205 42.9331,64.0016l-193.332 0 -141.176 479.999 1098.63 0 -141.176 -479.999 -191.956 0c14.3776,-20.6965 28.8839,-42.0969 43.1681,-64.0016l172.648 0 23.8595 0 6.76536 23.0008 160.001 544.001 12.0591 41.0008 -42.6839 0 -1184 0 -42.6839 0 12.0591 -41.0008 160.001 -544.001 6.76536 -23.0008 23.8595 0z"/></g></svg>