<?xml version="1.0" ?><!DOCTYPE svg  PUBLIC '-//W3C//DTD SVG 1.1//EN'  'http://www.w3.org/Graphics/SVG/1.1/DTD/svg11.dtd'><svg height="2048px" style="shape-rendering:geometricPrecision; text-rendering:geometricPrecision; image-rendering:optimizeQuality; fill-rule:evenodd; clip-rule:evenodd" viewBox="0 0 2048 2048" width="2048px" xml:space="preserve" xmlns="http://www.w3.org/2000/svg" xmlns:xlink="http://www.w3.org/1999/xlink"><defs><style type="text/css">
   <![CDATA[
    .fil0 {fill:none}
    .fil1 {fill:#212121;fill-rule:nonzero}
   ]]>
  </style></defs><g id="Layer_x0020_1"><g id="_271275256"><rect class="fil0" height="2048" id="_271274368" width="2048"/><rect class="fil0" height="1536" id="_271275880" width="1536" x="255.999" y="255.999"/></g><path class="fil1" d="M320.001 671.998l0 799.999 1408 0 0 -799.999 -1408 0zm-64.0016 832l0 -864.001 0 -32.0008 32.0008 0 1472 0 32.0008 0 0 32.0008 0 864.001 0 32.0008 -32.0008 0 -1472 0 -32.0008 0 0 -32.0008z"/><polygon class="fil1" points="304.25,612.498 1021.65,1037.23 1739.04,612.498 1771.54,667.497 1037.9,1101.85 1021.65,1111.47 1005.4,1101.85 271.751,667.497 "/></g></svg>