<?xml version="1.0" ?><!DOCTYPE svg  PUBLIC '-//W3C//DTD SVG 1.1//EN'  'http://www.w3.org/Graphics/SVG/1.1/DTD/svg11.dtd'><svg height="2048px" style="shape-rendering:geometricPrecision; text-rendering:geometricPrecision; image-rendering:optimizeQuality; fill-rule:evenodd; clip-rule:evenodd" viewBox="0 0 2048 2048" width="2048px" xml:space="preserve" xmlns="http://www.w3.org/2000/svg" xmlns:xlink="http://www.w3.org/1999/xlink"><defs><style type="text/css">
   <![CDATA[
    .fil0 {fill:none}
    .fil1 {fill:#212121;fill-rule:nonzero}
   ]]>
  </style></defs><g id="Layer_x0020_1"><g id="_272170520"><rect class="fil0" height="2048" id="_272168408" width="2048"/><rect class="fil0" height="1536" id="_272173664" width="1536" x="255.999" y="255.999"/></g><path class="fil1" d="M671.024 678.988c0,98.0186 17.2087,188.738 51.4748,272 34.363,83.491 85.9855,160.008 154.714,229.384l0.112205 0.111024 0.068504 -0.068504c0.517323,0.522048 1.01102,1.05709 1.48819,1.60276 69.4997,68.4449 145.704,119.818 228.761,154.071 83.628,34.4906 174.736,51.7559 273.47,51.7559 60.4477,0 117.67,-6.36733 171.949,-19.1114 54.0532,-12.6921 105.461,-31.7729 154.5,-57.2493l15.9803 30.7429 -15.9839 -30.7654c16.9902,-8.82757 37.9217,-2.20866 46.7492,14.7815 6.21615,11.9634 4.77166,25.8815 -2.55827,36.1512 -17.5925,29.7685 -36.9343,58.7067 -58.3052,86.6268 -22.1469,28.9347 -46.689,57.1205 -73.963,84.3993l-0.0696851 0.0708662 0.0696851 0.0696851c-0.608268,0.608268 -1.23543,1.18819 -1.87677,1.74213 -74.6044,74.8075 -157.461,131.075 -248.414,168.953 -91.8367,38.2441 -191.816,57.6154 -299.777,58.2756l0.0011811 0.135827c-1.21417,0.00708662 -2.41299,-0.0484252 -3.59528,-0.162992 -106.567,-1.02284 -205.348,-20.3221 -296.338,-58.0654 -92.1579,-38.2276 -176.114,-95.1343 -251.863,-170.884l24.5126 -24.5126 -24.5162 24.515c-0.651969,-0.651969 -1.27087,-1.32284 -1.86024,-2.01142 -74.7745,-75.2481 -131.039,-158.539 -168.787,-249.715 -38.1189,-92.0729 -57.1784,-191.643 -57.1784,-298.552 0,-107.505 19.0417,-207.37 57.1241,-299.749 38.0339,-92.2583 94.9347,-176.523 170.705,-252.95 29.3693,-29.3918 60.0048,-55.7115 91.9099,-79.141 31.9453,-23.4579 65.2796,-44.1142 100.008,-62.1378l-0.0389764 -0.0744095c16.9949,-8.81812 37.924,-2.18977 46.7422,14.8051 5.87599,11.3244 4.89095,24.3933 -1.44567,34.4646 -27.9933,50.3398 -48.8587,103.573 -62.7402,159.702 -14.0705,56.8973 -21.0284,117.163 -21.0284,180.789zm-12.4488 298.272c-37.8721,-92.0221 -56.8914,-191.506 -56.8914,-298.272 0,-68.7863 7.67481,-134.555 23.1945,-197.313 6.02126,-24.3473 13.2177,-48.1855 21.5941,-71.5123 -27.7654,20.6894 -54.3756,43.6996 -79.8296,69.1737 -69.3485,69.9485 -121.284,146.724 -155.806,230.466 -34.4717,83.6197 -51.7075,174.731 -51.7075,273.476 0,98.1202 17.2536,188.93 51.7619,272.28 34.1882,82.5757 85.4918,158.374 153.908,227.251 0.63189,0.54567 1.24725,1.11732 1.84725,1.71732l-0.00236221 0.00236221c69.391,69.3922 145.852,121.338 229.381,155.986 82.9465,34.4067 173.086,51.9981 270.412,52.9241 0.844489,-0.0673229 1.69725,-0.105118 2.55827,-0.109843l0.0011811 0.131102 0.207874 0.00236221c98.5371,-0.609449 189.735,-18.2728 273.441,-53.1307 82.5355,-34.3725 157.908,-85.6028 225.973,-153.826 0.581103,-0.679134 1.1941,-1.34055 1.83662,-1.98307l24.5126 24.5185 -24.378 -24.5126c21.0284,-21.0236 40.3713,-42.7654 58.2036,-65.1237 -19.6595,6.4004 -39.6626,11.9906 -60.0213,16.7705 -59.6658,14.0091 -122.118,21.0083 -187.66,21.0083 -107.502,0 -207.363,-19.0725 -299.743,-57.1725 -91.4646,-37.7221 -175.078,-93.9827 -251.003,-168.734 -0.764174,-0.648426 -1.50827,-1.33347 -2.22756,-2.05866l0.0708662 -0.0696851c-75.1725,-75.8753 -131.773,-159.898 -169.635,-251.89z"/></g></svg>