<?xml version="1.0" ?><!DOCTYPE svg  PUBLIC '-//W3C//DTD SVG 1.1//EN'  'http://www.w3.org/Graphics/SVG/1.1/DTD/svg11.dtd'><svg height="2048px" style="shape-rendering:geometricPrecision; text-rendering:geometricPrecision; image-rendering:optimizeQuality; fill-rule:evenodd; clip-rule:evenodd" viewBox="0 0 2048 2048" width="2048px" xml:space="preserve" xmlns="http://www.w3.org/2000/svg" xmlns:xlink="http://www.w3.org/1999/xlink"><defs><style type="text/css">
   <![CDATA[
    .fil0 {fill:none}
    .fil1 {fill:#212121;fill-rule:nonzero}
   ]]>
  </style></defs><g id="Layer_x0020_1"><g id="_189724840"><rect class="fil0" height="2048" id="_189712312" width="2048"/><rect class="fil0" height="1536" id="_189719584" width="1536" x="255.999" y="255.999"/></g><path class="fil1" d="M1005.01 1182.87l37.989 0c48.0544,0 91.5969,-20.0823 123.098,-52.5319 31.4126,-32.3587 50.8689,-77.139 50.8689,-126.651l0 -472.688c0,-49.4634 -19.4681,-94.252 -50.8985,-126.628 -31.5,-32.4461 -75.0308,-52.5461 -123.069,-52.5461l-37.989 0c-48.0378,0 -91.5686,20.1 -123.069,52.5461 -31.4303,32.3764 -50.8985,77.165 -50.8985,126.628l0 472.82c0,49.4504 19.4622,94.2024 50.8831,126.549 31.4965,32.426 75.0331,52.5012 123.084,52.5012zm37.989 63.9969l-37.989 0c-65.0056,0 -123.989,-27.2445 -166.733,-71.2501 -42.802,-44.0634 -69.3107,-104.825 -69.3107,-171.797l0 -472.82c0,-66.9745 26.5158,-127.778 69.326,-171.877 42.7406,-44.0244 101.714,-71.2949 166.717,-71.2949l37.989 0c65.0032,0 123.977,27.2705 166.717,71.2949 42.8103,44.0989 69.326,104.902 69.326,171.877l0 472.688c0,67.0264 -26.5028,127.817 -69.2965,171.899 -42.7441,44.0327 -101.731,71.2808 -166.747,71.2808z"/><path class="fil0" d="M704 767.999l0 250.655c0,189.864 131.035,293.366 292.18,293.366 78.9095,0 -16.9925,0 40.8803,0 161.017,0 306.94,-103.635 306.94,-293.366l0 -250.128"/><path class="fil1" d="M736 767.999c0,-17.1425 -14.3268,-31.0394 -31.9996,-31.0394 -17.6728,0 -31.9996,13.8969 -31.9996,31.0394l0 250.655c0,99.7359 33.6319,178.275 88.454,233.32 59.5843,59.8252 143.382,91.0855 235.726,91.0855l40.8803 0c92.8076,0 181.384,-31.741 244.846,-92.3953 57.5504,-55.0052 94.0938,-133.091 94.0938,-232.01l0 -250.128c0,-17.1425 -14.3268,-31.0394 -31.9996,-31.0394 -17.6728,0 -31.9996,13.8969 -31.9996,31.0394l0 250.128c0,80.9989 -29.067,144.123 -74.8442,187.875 -51.137,48.8752 -123.559,74.452 -200.097,74.452l-40.8803 0c-75.1997,0 -142.675,-24.6862 -189.727,-71.928 -43.6654,-43.8437 -70.454,-107.813 -70.454,-190.399l0 -250.655z"/><line class="fil0" x1="832" x2="1216" y1="1728" y2="1728"/><path class="fil1" d="M832 1696c-15.9047,0 -28.8,14.328 -28.8,32.0008 0,17.6728 12.8953,32.0008 28.8,32.0008l384 0c15.9047,0 28.8,-14.328 28.8,-32.0008 0,-17.6728 -12.8953,-32.0008 -28.8,-32.0008l-384 0z"/><polygon class="fil1" points="799.999,735.353 1248,735.353 1248,799.349 799.999,799.349 "/><polygon class="fil1" points="1056,1312.02 1056,1728 991.999,1728 991.999,1312.02 "/></g></svg>