<?xml version="1.0" ?><!DOCTYPE svg  PUBLIC '-//W3C//DTD SVG 1.1//EN'  'http://www.w3.org/Graphics/SVG/1.1/DTD/svg11.dtd'><svg height="2048px" style="shape-rendering:geometricPrecision; text-rendering:geometricPrecision; image-rendering:optimizeQuality; fill-rule:evenodd; clip-rule:evenodd" viewBox="0 0 2048 2048" width="2048px" xml:space="preserve" xmlns="http://www.w3.org/2000/svg" xmlns:xlink="http://www.w3.org/1999/xlink"><defs><style type="text/css">
   <![CDATA[
    .fil0 {fill:none}
    .fil1 {fill:#212121;fill-rule:nonzero}
   ]]>
  </style></defs><g id="Layer_x0020_1"><g id="_269419456"><rect class="fil0" height="2048" id="_269422576" width="2048"/><rect class="fil0" height="1536" id="_269418280" width="1536" x="255.999" y="255.999"/></g><path class="fil1" d="M1186.53 1376.49c-25.7292,11.8937 -52.2189,20.8134 -79.2721,26.7555 -27.2209,5.97756 -54.9827,8.96812 -83.0883,8.96812 -75.4406,0 -147.834,-22.1941 -209.333,-61.5426 -61.5189,-39.3603 -111.996,-95.8194 -143.577,-164.329 -44.7827,-97.33 -45.8457,-203.727 -11.4154,-296.951 34.4693,-93.3261 104.45,-173.523 201.697,-218.319 25.8166,-11.9315 52.2685,-20.8642 79.1575,-26.7815 27.1819,-5.98347 54.9331,-8.98111 83.0505,-8.98111 75.4678,0 147.885,22.1776 209.412,61.5355 61.5119,39.3508 111.996,95.8064 143.621,164.375 44.8004,97.3111 45.8729,203.713 11.4449,296.945 -34.4634,93.3284 -104.441,173.53 -201.697,218.325zm-92.7721 -35.7437c22.6075,-4.96536 44.6717,-12.3862 66.0225,-22.2555 81.2233,-37.4103 139.668,-104.389 168.447,-182.325 28.8095,-78.0166 27.9555,-166.958 -9.4441,-248.196 -26.4744,-57.4016 -68.6067,-104.581 -119.871,-137.375 -51.2764,-32.8004 -111.841,-51.2835 -175.162,-51.2835 -23.5075,0 -46.6654,2.49567 -69.3001,7.47875 -22.7516,5.0067 -44.863,12.4394 -66.1583,22.2815 -81.2186,37.4126 -139.662,104.385 -168.447,182.319 -28.8118,78.0142 -27.9697,166.952 9.41457,248.202 26.4366,57.3485 68.5619,104.529 119.828,137.329 51.254,32.7933 111.795,51.2906 175.083,51.2906 23.6752,0 46.9264,-2.48858 69.5882,-7.46575z"/><path class="fil1" d="M1657.92 1142.07l-74.9422 -27.6 -23.4378 -8.6315 2.68701 -24.7441c2.83819,-26.1496 3.80788,-52.3961 2.82874,-78.5729 -0.966142,-25.8603 -3.82559,-51.8682 -8.64686,-77.8725l-4.52008 -24.3744 22.5201 -10.3748 72.2115 -33.267 0.0791339 -0.0366142c14.5571,-6.69804 25.011,-18.6791 30.1512,-32.6233 5.17796,-14.0421 5.04449,-30.0142 -1.60512,-44.5784l-0.0472441 0.0212599 -0.0366142 -0.0791339 -42.2091 -91.5461 -0.12874 -0.277559c-6.69449,-14.4449 -18.6272,-24.8481 -32.504,-29.9799 -13.9677,-5.16615 -29.8193,-5.06457 -44.2536,1.53425l0.0212599 0.0472441 -0.276378 0.127559 -0.125197 0 -72.3567 33.2764 -22.5 10.3476 -15.6248 -19.3477c-16.526,-20.4638 -34.4209,-39.5481 -53.5335,-57.2008 -19.3358,-17.8583 -39.8374,-34.1693 -61.35,-48.8788l-20.6091 -14.0906 8.60906 -23.2843 27.6071 -74.6646c5.60079,-15.176 4.53662,-31.1587 -1.69488,-44.7166 -6.19371,-13.4764 -17.5477,-24.6 -32.5642,-30.1559l-94.6749 -34.9843c-14.328,-5.26182 -30.3272,-3.8315 -44.2004,2.55355 -13.8662,6.3815 -25.3087,17.5323 -30.5398,31.715l-27.6071 74.817 -8.62087 23.361 -24.6295 -2.61024c-26.0551,-2.76024 -52.2579,-3.66378 -78.4465,-2.66811 -26.0646,0.990946 -52.1953,3.84331 -78.2386,8.59016l-24.2882 4.42796 -10.337 -22.428 -33.2575 -72.163 -0.0389764 -0.0838583c-6.70276,-14.5606 -18.6839,-25.0134 -32.6138,-30.1547 -14.0315,-5.17914 -29.9658,-5.05748 -44.4662,1.56378l0.0212599 0.0472441 -0.0838583 0.0389764 -0.125197 0 -91.5674 42.0378 0.022441 0.0472441c-14.5217,6.73583 -24.9921,18.7795 -30.163,32.7862 -5.18741,14.0539 -5.06457,30.0107 1.61221,44.5181l33.2681 72.2115 10.3618 22.4917 -19.2366 15.6331c-20.4555,16.6252 -39.6307,34.6595 -57.4264,53.9504 -17.8122,19.311 -34.1008,39.7618 -48.7701,61.2036l-14.1024 20.6138 -23.2725 -8.61379 -74.6741 -27.6366 -0.125197 -0.125197 -0.132284 -0.0496063 -0.0248032 0.0696851c-14.3102,-5.28071 -30.2421,-3.88583 -44.0563,2.46496 -13.7929,6.34134 -25.2154,17.4839 -30.5362,31.7008l0.109843 0.0401575 -0.105118 0.283465 -0.0401575 -0.0153543 -34.8024 94.5863 -0.125197 0.125197c-1.16221,3.12756 -2.04803,6.34252 -2.65748,9.61536 -0.618898,3.32244 -0.951969,6.54449 -0.998032,9.63426l0.122835 0 0 2.18622 -0.119291 0c0.0814961,3.73111 0.575197,7.59213 1.47047,11.5228 0.891733,3.9189 2.19095,7.76575 3.88347,11.4815l0.0472441 -0.0212599c3.27402,7.05355 7.81064,13.2662 13.3276,18.3638 5.52638,5.10709 12.0555,9.13111 19.3075,11.8004l74.9705 27.6473 23.5087 8.6693 -2.75788 24.8303c-2.89252,26.054 -3.87166,52.1906 -2.90433,78.2068 0.966142,25.963 3.85276,52.0689 8.69292,78.1146l4.52244 24.3331 -22.6477 10.4161 -72.2138 33.2114 0.022441 0.0472441c-14.5264,6.68859 -24.9685,18.6626 -30.1193,32.5914 -5.21103,14.0917 -5.1189,30.0803 1.48583,44.5996l0.046063 -0.0212599 42.3614 91.6335 0 0.125197 0.00590552 0.0129921 0.0472441 -0.022441c6.7004,14.5488 18.6414,24.9898 32.5229,30.1205 14.0256,5.18386 29.9622,5.05158 44.4697,-1.60512l0.115748 -0.0531496 72.443 -33.2575 22.4977 -10.3287 15.6272 19.3288c16.5095,20.4189 34.3996,39.4819 53.4957,57.1241 19.3559,17.8831 39.8516,34.2071 61.3016,48.9071l20.6055 14.1201 -8.60552 23.2547 -27.6461 74.7119 -0.125197 0.125197c-2.69292,7.23662 -3.87284,14.7969 -3.57166,22.3087 0.297638,7.43032 2.13189,14.9209 5.46378,22.102l0 0.125197c3.21024,7.04528 7.74804,13.2898 13.3347,18.4701 5.44489,5.04922 11.9728,9.04725 19.311,11.7413l94.6855 34.9843c7.40552,2.72717 15.0343,3.93898 22.5272,3.64961 7.46812,-0.288189 14.9315,-2.04803 22.0288,-5.26418l-0.0212599 -0.0472441c7.03229,-3.25276 13.2047,-7.76457 18.2799,-13.265 5.18268,-5.61615 9.25158,-12.1866 11.9728,-19.441l-0.068504 -0.0248032 27.6083 -74.8465 8.64686 -23.4414 24.7288 2.69055c26.0421,2.8311 52.1788,3.77362 78.2445,2.79921 25.9866,-0.972048 52.1032,-3.83504 78.1914,-8.61615l24.3874 -4.47048 10.3618 22.4705 33.2492 72.1087 0.0472441 -0.022441 0.0401575 0.0862205 0 0.125197c6.69213,14.5004 18.6697,24.9473 32.5996,30.0981 13.9843,5.16969 29.8666,5.06575 44.3115,-1.54606l-0.0212599 -0.0472441 0.0862205 -0.0401575 0.125197 0 91.5686 -42.1429 -0.022441 -0.0472441 0.13937 -0.0649607 0.125197 0c14.4591,-6.69686 24.8811,-18.6673 30.0201,-32.5914 5.16142,-13.9854 5.02678,-29.8855 -1.65118,-44.3658l0 -0.125197 -0.0165354 -0.0354331 -0.0472441 0.0212599 -33.2953 -72.3556 -10.3973 -22.5945 19.3973 -15.6555c20.4402,-16.4977 39.5055,-34.3796 57.143,-53.4804 17.8713,-19.3547 34.1941,-39.8811 48.9166,-61.4126l14.1024 -20.6268 23.2725 8.62678 74.8371 27.7418c7.45394,2.72953 15.1004,3.94725 22.5839,3.64843 7.39725,-0.296457 14.8417,-2.08465 21.9921,-5.36811l-0.022441 -0.0472441c7.11733,-3.31654 13.3429,-7.85552 18.3933,-13.3335 5.08465,-5.51575 9.10276,-12.0425 11.7732,-19.2933l35.0032 -94.6761c5.56536,-15.0579 4.49055,-30.9614 -1.72914,-44.4721 -6.23977,-13.552 -17.5937,-24.7229 -32.5583,-30.2658zm-30.013 -79.1552l52.0122 19.1551c31.5922,11.7024 55.493,35.139 68.5583,63.5162 13.0748,28.4008 15.3662,61.7386 3.72992,93.2209l-35.0032 94.6761c-5.59961,15.202 -14.0528,28.9146 -24.7725,40.5437 -10.8083,11.7236 -23.8063,21.2858 -38.3941,28.0831l-0.125197 0c-14.7591,6.81024 -30.4524,10.5307 -46.3453,11.1673 -15.9366,0.637796 -31.8768,-1.83071 -47.0823,-7.39961l-52.0678 -19.3016c-12.4866,16.7315 -25.8461,32.8276 -40.0607,48.2221 -14.1095,15.2811 -29.1059,29.9162 -44.9705,43.8414l23.1213 50.2453 0 0.125197 0.0165354 0.0354331 0.0472441 -0.0212599c14.087,30.5445 14.4354,63.9 3.65197,93.1146 -10.7929,29.2418 -32.7177,54.404 -63.1678,68.543l0.022441 0.0484252 -0.13937 0.0649607 -0.125197 0 -91.5686 42.1429 0.022441 0.0472441 -0.0862205 0.0401575 -0.125197 0c-30.5587,14.0622 -63.9426,14.3976 -93.1642,3.5941 -29.276,-10.8248 -54.4559,-32.7733 -68.5512,-63.2457l-0.0484252 0.022441 -0.0401575 -0.0862205 0 -0.125197 -23.1532 -50.2134c-20.9339,2.96811 -41.9008,4.8378 -62.8335,5.61969 -20.9256,0.78189 -41.7225,0.485433 -62.328,-0.875198l-19.1516 51.9213 -0.125197 0.125197c-5.70355,15.3295 -14.126,29.0469 -24.7784,40.591 -10.7563,11.6563 -23.765,21.1843 -38.5311,28.0146l-0.125197 0c-14.8347,6.75355 -30.5481,10.4539 -46.3807,11.0634 -15.8445,0.611811 -31.6914,-1.84488 -46.7776,-7.40079l-94.6855 -34.9843c-15.2976,-5.61733 -29.0953,-14.1272 -40.8118,-24.991 -11.5476,-10.7091 -21,-23.7603 -27.7866,-38.6185l-0.0472441 0.022441c-6.81142,-14.6776 -10.5744,-30.3898 -11.2158,-46.3524 -0.630709,-15.7335 1.85079,-31.6229 7.51772,-46.9063l-0.0696851 -0.0259843 19.226 -51.9591c-16.6902,-12.4795 -32.7591,-25.8331 -48.1311,-40.0347 -15.2858,-14.1225 -29.9386,-29.1378 -43.8898,-45.0178l-50.4248 23.1496 -0.115748 0.0531496c-30.5339,14.0102 -63.8315,14.3752 -92.9682,3.60591 -29.2784,-10.8224 -54.4394,-32.7886 -68.5229,-63.3709l0 -0.125197 -0.00590552 -0.0129921 -0.0472441 0.022441 -42.3614 -91.6335 0 -0.125197c-13.9937,-30.6036 -14.3303,-64.004 -3.53268,-93.202 10.8437,-29.3221 32.8122,-54.5221 63.3697,-68.5914l0.125197 0 50.152 -23.0646c-2.99528,-20.8984 -4.87559,-41.863 -5.65512,-62.8075 -0.780709,-20.9823 -0.467717,-41.8205 0.923623,-62.4331l-51.9886 -19.1717c-15.2209,-5.60315 -28.9335,-14.0575 -40.5579,-24.7996 -11.6634,-10.7764 -21.2185,-23.837 -28.0772,-38.615l0 -0.125197c-3.58465,-7.82717 -6.3189,-15.8953 -8.18268,-24.0839 -1.85433,-8.14016 -2.85118,-16.5638 -2.97638,-25.1481l-0.125197 -0.375591 0 -2.18622 0.125197 -0.250394c0.0708662,-7.11142 0.737008,-14.0953 2.00197,-20.8831 1.2626,-6.77835 3.12874,-13.5354 5.60197,-20.2146l-0.0696851 -0.0259843 34.8425 -94.6961 0 -0.125197 0.105118 -0.283465 0.125197 0c11.4602,-30.7016 35.3008,-54.3863 63.802,-67.4906 28.4953,-13.1008 61.9182,-15.7725 92.5548,-4.46575l0.125197 0.125197 0.132284 0.0496063 0.0248032 -0.0696851 51.9071 19.2106c12.4429,-16.6559 25.761,-32.6847 39.9118,-48.0272 14.1508,-15.3402 29.2146,-30.0614 45.1548,-44.1036l-23.1201 -50.1839c-14.0776,-30.5847 -14.4165,-63.9981 -3.61299,-93.267 10.8319,-29.3445 32.8406,-54.6059 63.4134,-68.7863l0.125197 0 91.5674 -42.0378 -0.022441 -0.0472441 0.0838583 -0.0389764 0.125197 0c30.5362,-14.0197 63.8835,-14.3847 93.0686,-3.61181 29.3209,10.8213 54.5256,32.7992 68.6138,63.4052l0.0389764 0.0838583 23.1343 50.1981c20.9398,-2.96221 41.8737,-4.83307 62.7367,-5.62678 20.9209,-0.794883 41.7366,-0.520867 62.3835,0.807875l19.1717 -51.9556c11.3622,-30.8055 35.2264,-54.5693 63.7902,-67.715 28.5733,-13.1504 62.1591,-15.8622 92.9493,-4.55433l94.6749 34.9843c31.5591,11.6752 55.467,35.1591 68.5642,63.6567 13.0465,28.3819 15.3236,61.7079 3.69567,93.215l-19.1847 51.8847c16.7173,12.4772 32.7981,25.8295 48.1772,40.0335 15.3095,14.139 29.9729,29.1721 43.93,45.0756l50.2335 -23.1024 -0.022441 -0.0472441 0.276378 -0.127559 0.125197 0c30.4949,-14.0126 63.75,-14.348 92.856,-3.58229 29.2311,10.8106 54.3768,32.7508 68.504,63.2304l0.12874 0.277559 42.2091 91.5461 0.0366142 0.0791339 0 0.125197c14.0433,30.5977 14.4189,63.978 3.65315,93.1808 -10.8154,29.3386 -32.7969,54.5422 -63.4016,68.6233l-0.0791339 0.0366142 -50.1768 23.1154c2.97402,20.8252 4.83544,41.6882 5.61378,62.5229 0.786615,21.0366 0.474804,41.9398 -0.900001,62.6445z"/></g></svg>