<?xml version="1.0" ?><!DOCTYPE svg  PUBLIC '-//W3C//DTD SVG 1.1//EN'  'http://www.w3.org/Graphics/SVG/1.1/DTD/svg11.dtd'><svg height="2048px" style="shape-rendering:geometricPrecision; text-rendering:geometricPrecision; image-rendering:optimizeQuality; fill-rule:evenodd; clip-rule:evenodd" viewBox="0 0 2048 2048" width="2048px" xml:space="preserve" xmlns="http://www.w3.org/2000/svg" xmlns:xlink="http://www.w3.org/1999/xlink"><defs><style type="text/css">
   <![CDATA[
    .fil0 {fill:none}
    .fil2 {fill:none;fill-rule:nonzero}
    .fil1 {fill:#212121;fill-rule:nonzero}
   ]]>
  </style></defs><g id="Layer_x0020_1"><g id="_270952848"><rect class="fil0" height="2048" id="_270949776" width="2048"/><rect class="fil0" height="1536" id="_270946632" width="1536" x="255.999" y="255.999"/></g><g id="_269418928"><path class="fil1" d="M891.649 1529.2c0,19.2898 3.13819,36.5504 9.41221,51.8882 6.20197,15.1654 15.8232,29.2134 28.8544,42.2433l-0.0625985 0.0625985c13.3937,13.376 28.0878,23.2701 44.0847,29.9008 15.9969,6.63189 33.4559,10.1091 52.3713,10.6394 18.9378,-0.530315 36.0839,-3.96614 51.5398,-10.5142 15.3402,-6.49725 29.3764,-16.2886 42.2315,-29.589l0.874016 -0.874016c13.2024,-12.7441 22.9429,-26.7508 29.3362,-42.1193 6.39686,-15.3803 9.53859,-32.5607 9.53859,-51.6378 0,-19.1599 -3.18307,-36.7075 -9.66379,-52.63 -6.47835,-15.913 -16.3004,-30.5055 -29.5855,-43.7776l-0.125197 -0.125197c-3.86103,-3.86221 -7.96182,-7.48583 -12.3047,-10.865 -3.91536,-3.04725 -7.60158,-5.52993 -11.0551,-7.43977l-0.37441 -0.250394c-10.5591,-5.9752 -21.6685,-10.5886 -33.4453,-13.7303 -11.5323,-3.07677 -23.8134,-4.67008 -36.9662,-4.67008l-0.750001 -0.125197c-17.8323,-0.478347 -34.4327,2.21457 -49.6796,7.94646 -15.2965,5.75079 -29.4402,14.6622 -42.3059,26.5996l-3.63425 2.5252 -0.0425197 0.0448819 0.0543308 0.0543308 -0.0354331 0.0354331 -0.0543308 -0.0543308c-12.7937,13.3417 -22.3571,27.9118 -28.6831,43.7067 -6.11221,15.2634 -9.28938,32.0977 -9.52914,50.5028l0 2.25236zm-49.5886 75.8882c-5.72481,-13.9937 -9.74292,-28.6122 -12.0579,-43.8874l-2.37047 0 0 -32.0008c0,-27.2126 4.76811,-52.715 14.2949,-76.5048 9.49253,-23.7024 23.6173,-45.2528 42.3638,-64.6536l0.37441 -0.499607 0.0354331 -0.0354331 0.125197 0c2.19213,-2.18032 4.34292,-4.31929 8.0315,-6.66142 18.2823,-16.3736 38.5063,-28.7858 60.5221,-37.0618 22.6618,-8.5193 47.0327,-12.5705 72.9296,-11.9658l0 -0.10748c18.6012,0 36.3756,2.36103 53.4662,6.92127 16.7067,4.45748 32.6764,11.0976 48.0544,19.7599l0.0165354 -0.0295276c6.75709,3.73583 13.2732,8.05276 19.5543,12.9413 5.81575,4.52599 11.8772,9.94253 18.1795,16.239l0.0543308 0.0543308 0.0708662 0.0708662c19.5473,19.5591 34.0595,41.1933 43.7115,64.9028 9.66733,23.7496 14.4142,49.2922 14.4142,76.63 0,27.3721 -4.78819,52.6949 -14.5394,76.1386 -9.68505,23.2784 -24.1736,44.2878 -43.6406,63.1855 -18.7878,19.3299 -39.7465,33.7772 -63.0508,43.6465 -23.1579,9.81024 -48.2752,14.8819 -75.541,15.5351l-1.5 0c-27.2906,-0.654331 -52.663,-5.68465 -76.1221,-15.4099 -23.6457,-9.80079 -45.1961,-24.2681 -64.6465,-43.7138l-0.125197 0c-18.7252,-18.724 -32.928,-39.8327 -42.6048,-63.4937z" id="_270954240"/><path class="fil2" d="M1336.26 1141.97c-45.9674,-41.217 -95.9115,-72.2835 -149.767,-93.0284 -53.9103,-20.7673 -111.478,-31.2213 -172.657,-31.2213 -121.762,0 -229.87,40.141 -320.256,122.08" id="_270949176"/><path class="fil1" d="M1315.01 1165.72c13.1162,11.7354 33.2646,10.6169 45,-2.49921 11.7354,-13.1162 10.6169,-33.2646 -2.49921,-45 -24.5929,-22.0524 -50.054,-41.2642 -76.3642,-57.6071 -26.5075,-16.4634 -54.2292,-30.2811 -83.1532,-41.4213 -28.8154,-11.1 -58.6737,-19.454 -89.5642,-25.0394 -31.0547,-5.61496 -62.5914,-8.43308 -94.5934,-8.43308 -65.0693,0 -126.65,10.8555 -184.184,32.7862 -56.7402,21.6295 -109.403,54.1146 -157.448,97.669 -13.0476,11.8051 -14.0551,31.9536 -2.25,45.0012 11.8051,13.0476 31.9536,14.0551 45.0012,2.25 41.8252,-37.9158 87.7997,-66.2445 137.447,-85.1705 50.0741,-19.0866 104.049,-28.5343 161.433,-28.5343 29.1142,0 56.8985,2.4 83.3422,7.18111 26.7248,4.83189 52.6678,12.1028 77.8146,21.789 24.8835,9.58465 49.0229,21.6508 72.4028,36.1725 23.6599,14.6965 46.2036,31.6559 67.6146,50.8559z" id="_270949056"/><path class="fil2" d="M1508.57 907.385c-289.686,-259.068 -732.338,-258.006 -1022.16,-3.61063" id="_270953472"/><path class="fil1" d="M1487.32 931.135c13.1162,11.7354 33.2646,10.6169 45,-2.49921 11.7354,-13.1162 10.6169,-33.2646 -2.49921,-45 -150.513,-134.604 -340.644,-201.806 -530.875,-202.477 -191.047,-0.67441 -382.258,65.83 -533.537,198.616 -13.2543,11.5973 -14.5973,31.7457 -3,45 11.5973,13.2543 31.7457,14.5973 45,3 139.284,-122.257 315.447,-183.486 491.537,-182.864 175.031,0.617717 349.943,62.4249 488.374,186.225z" id="_270950304"/><path class="fil2" d="M361.14 598.257c376.553,-329.763 951.452,-327.927 1325.72,4.44095" id="_269421736"/><path class="fil1" d="M340.14 574.257c-13.2543,11.5973 -14.5973,31.7457 -3,45 11.5973,13.2543 31.7457,14.5973 45,3 182.263,-159.615 412.627,-238.973 642.766,-238.203 229.982,0.768898 459.684,81.6532 640.828,242.518 13.1847,11.6669 33.3331,10.435 45,-2.74961 11.6669,-13.1847 10.435,-33.3331 -2.74961,-45 -193.096,-171.478 -437.942,-257.7 -683.078,-258.52 -245.046,-0.820867 -490.452,83.7851 -684.766,253.954z" id="_269416312"/></g></g></svg>