<?xml version="1.0" ?><!DOCTYPE svg  PUBLIC '-//W3C//DTD SVG 1.1//EN'  'http://www.w3.org/Graphics/SVG/1.1/DTD/svg11.dtd'><svg height="2048px" style="shape-rendering:geometricPrecision; text-rendering:geometricPrecision; image-rendering:optimizeQuality; fill-rule:evenodd; clip-rule:evenodd" viewBox="0 0 2048 2048" width="2048px" xml:space="preserve" xmlns="http://www.w3.org/2000/svg" xmlns:xlink="http://www.w3.org/1999/xlink"><defs><style type="text/css">
   <![CDATA[
    .fil0 {fill:none}
    .fil1 {fill:#212121;fill-rule:nonzero}
   ]]>
  </style></defs><g id="Layer_x0020_1"><g id="_269418760"><rect class="fil0" height="2048" id="_269421256" width="2048"/><rect class="fil0" height="1536" id="_269420008" width="1536" x="255.999" y="255.999"/></g><path class="fil1" d="M575.999 479.999l608.001 0c79.2638,0 151.271,32.3764 203.449,84.5516 52.1752,52.1776 84.5516,124.185 84.5516,203.449l0 96.0013c0,10.8118 -0.607087,21.4878 -1.77992,31.9984l-64.5201 0c1.51181,-10.4575 2.29843,-21.1406 2.29843,-31.9984l0 -96.0013c0,-61.5981 -25.1953,-117.593 -65.8004,-158.198 -40.6051,-40.6051 -96.6001,-65.8004 -158.198,-65.8004l-608.001 0c-61.5981,0 -117.593,25.1953 -158.198,65.8004 -40.6051,40.6051 -65.8004,96.6001 -65.8004,158.198l0 96.0013c0,61.5969 25.1953,117.593 65.8004,158.198 40.6051,40.6051 96.6001,65.8004 158.198,65.8004l16.5378 0c-7.31812,20.5878 -12.2941,42.0437 -14.7532,64.0016l-1.78465 0c-79.2638,0 -151.271,-32.3764 -203.449,-84.5516 -52.1752,-52.1776 -84.5516,-124.186 -84.5516,-203.449l0 -96.0013c0,-79.2638 32.374,-151.273 84.5516,-203.449 52.1752,-52.1776 124.185,-84.5516 203.449,-84.5516zm847.203 544.001c-10.5,15.6272 -22.4847,30.1807 -35.7532,43.4492 -52.1776,52.1752 -124.185,84.5516 -203.449,84.5516l-476.746 0c4.77284,-23.2016 14.6917,-45.0237 29.0398,-64.0016l447.707 0c60.6815,0 115.926,-24.4512 156.376,-63.9993l82.826 0z"/><path class="fil1" d="M863.999 927.999l608.001 0c70.4327,0 134.441,28.7918 180.826,75.1749 46.3831,46.3843 75.1749,110.393 75.1749,180.826l0 96.0013c0,70.4327 -28.7918,134.441 -75.176,180.825 -46.3831,46.3843 -110.392,75.176 -180.825,75.176l-608.001 0c-70.4327,0 -134.441,-28.7918 -180.826,-75.1749 -46.3831,-46.3843 -75.1749,-110.393 -75.1749,-180.826l0 -96.0013c0,-70.4327 28.7918,-134.441 75.1749,-180.826 46.3843,-46.3831 110.393,-75.1749 180.826,-75.1749zm608.001 64.0016l-608.001 0c-52.767,0 -100.761,21.6095 -135.575,56.4237 -34.8142,34.8142 -56.4237,82.8083 -56.4237,135.575l0 96.0013c0,52.767 21.6095,100.761 56.4237,135.575 34.8142,34.8142 82.8083,56.4237 135.575,56.4237l608.001 0c52.767,0 100.76,-21.6106 135.574,-56.4248 34.8142,-34.8142 56.4248,-82.8072 56.4248,-135.574l0 -96.0013c0,-52.767 -21.6095,-100.761 -56.4237,-135.575 -34.8142,-34.8142 -82.8083,-56.4237 -135.575,-56.4237z"/></g></svg>