<?xml version="1.0" ?><!DOCTYPE svg  PUBLIC '-//W3C//DTD SVG 1.1//EN'  'http://www.w3.org/Graphics/SVG/1.1/DTD/svg11.dtd'><svg height="2048px" style="shape-rendering:geometricPrecision; text-rendering:geometricPrecision; image-rendering:optimizeQuality; fill-rule:evenodd; clip-rule:evenodd" viewBox="0 0 2048 2048" width="2048px" xml:space="preserve" xmlns="http://www.w3.org/2000/svg" xmlns:xlink="http://www.w3.org/1999/xlink"><defs><style type="text/css">
   <![CDATA[
    .fil0 {fill:none}
    .fil1 {fill:#212121;fill-rule:nonzero}
   ]]>
  </style></defs><g id="Layer_x0020_1"><rect class="fil0" height="2048" width="2048"/><rect class="fil0" height="1536" width="1536" x="255.999" y="255.999"/><path class="fil1" d="M645.883 1625.19l369.709 -222.499 7.16221 -4.31103 8.71182 -0.188977 11.048 -0.240945c129.124,-2.75788 256.856,-36.313 364.497,-95.7331 101.395,-55.9725 184.54,-134.759 233.388,-232.075 14.3162,-28.5118 25.2225,-58.043 32.5394,-88.2449 7.14095,-29.4803 10.7988,-59.8678 10.7988,-90.8363 0,-34.7528 -4.57323,-68.993 -13.5142,-102.275 -9.12048,-33.9485 -22.6134,-66.8032 -40.2674,-98.1107 -53.3056,-94.5154 -138.806,-169.469 -241.221,-221.678 -108.765,-55.4457 -236.328,-85.0005 -364.759,-85.0005 -128.386,0 -255.887,29.5181 -364.609,84.9083 -102.378,52.1587 -187.858,127.048 -241.188,221.495 -17.7012,31.3524 -31.2284,64.2508 -40.3689,98.2394 -8.96339,33.3307 -13.5484,67.6205 -13.5484,102.422 0,83.406 26.3811,162.135 72.7406,231.357 49.0772,73.2792 120.477,136.148 206.802,183.046l16.5106 8.96575 15.9154 8.64095 0.708662 18.2327 0.655512 16.839c2.07992,53.8193 -2.30433,114.924 -12.3732,176.006 -5.03741,30.5587 -11.5169,61.2083 -19.337,91.0418zm395.546 -163.442l-434.724 261.626 -78.4701 47.2252 32.0988 -85.7233c18.5032,-49.415 32.6953,-105.193 41.8914,-160.977 9.3319,-56.6174 13.4599,-112.86 11.6728,-162.116l-0.592914 -0.322441c-95.3139,-51.7819 -174.476,-121.687 -229.299,-203.545 -53.3717,-79.6902 -83.7414,-170.49 -83.7414,-266.854 0,-40.2378 5.34685,-80.0516 15.7996,-118.922 10.3984,-38.6622 26.0197,-76.5001 46.6193,-112.987 59.954,-106.178 154.765,-189.712 267.685,-247.243 117.689,-59.9587 255.327,-91.9099 393.607,-91.9099 138.331,0 276.032,31.989 393.757,92.002 112.971,57.5882 207.802,141.19 267.718,247.426 20.5583,36.4583 36.1465,74.2524 46.5178,112.858 10.4303,38.8264 15.7654,78.5906 15.7654,118.775 0,35.4815 -4.33583,70.8945 -12.7996,105.836 -8.42127,34.7611 -21.0047,68.8087 -37.5402,101.743 -55.004,109.579 -147.445,197.642 -259.635,259.573 -116.355,64.2308 -254.425,100.502 -393.996,103.484l-2.33504 0.0507874z"/><path class="fil1" d="M1384.72 831.035c-20.0079,0 -38.1366,7.01221 -51.2327,18.3189 -13.1492,11.3528 -21.3036,27.0673 -21.3036,44.4166 0,17.348 8.15197,33.0544 21.2977,44.4 13.0961,11.3032 31.226,18.3095 51.2386,18.3095 20.0658,0 38.237,-7.0004 51.3508,-18.3036 13.1575,-11.3433 21.3201,-27.0449 21.3201,-44.4059 0,-17.3622 -8.16379,-33.0721 -21.3272,-44.4213 -13.115,-11.3091 -31.2851,-18.3142 -51.3437,-18.3142zm-96.4808 -20.3788c24.7795,-21.3933 58.9252,-34.6583 96.4808,-34.6583 37.5839,0 71.7745,13.2543 96.5918,34.6536 24.7347,21.3272 40.076,50.7296 40.076,83.119 0,32.3929 -15.339,61.7847 -40.0689,83.1036 -24.8209,21.3945 -59.015,34.6429 -96.5989,34.6429 -37.5555,0 -71.7048,-13.2591 -96.4867,-34.6488 -24.7193,-21.3354 -40.0465,-50.739 -40.0465,-83.0977 0,-32.3575 15.3319,-61.7693 40.0524,-83.1142z"/><path class="fil1" d="M1023.98 831.035c-19.9996,0 -38.1118,7.00985 -51.1985,18.3142 -13.1433,11.3528 -21.2894,27.0709 -21.2894,44.4213 0,17.348 8.14489,33.0603 21.2835,44.4059 13.0854,11.2984 31.1988,18.3036 51.2044,18.3036 20.0126,0 38.1425,-7.0063 51.2374,-18.3083 13.1457,-11.3457 21.2977,-27.0532 21.2977,-44.4012 0,-17.3492 -8.15434,-33.0638 -21.3036,-44.4166 -13.0961,-11.3067 -31.2236,-18.3189 -51.2315,-18.3189zm-96.4465 -20.3835c24.7618,-21.3898 58.8886,-34.6536 96.4465,-34.6536 37.5555,0 71.7001,13.265 96.4796,34.6583 24.7217,21.3449 40.0524,50.7556 40.0524,83.1142 0,32.3587 -15.3272,61.7634 -40.0465,83.0989 -24.7819,21.3898 -58.93,34.6477 -96.4855,34.6477 -37.5579,0 -71.6871,-13.2579 -96.4524,-34.6429 -24.7146,-21.3414 -40.0323,-50.7508 -40.0323,-83.1036 0,-32.3492 15.3213,-61.7682 40.0382,-83.119z"/><path class="fil1" d="M669.98 831.035c-19.9973,0 -38.1107,7.01103 -51.1973,18.3154 -13.1433,11.3528 -21.2906,27.0697 -21.2906,44.4201 0,17.348 8.14607,33.0579 21.2847,44.4036 13.0854,11.2996 31.2012,18.3059 51.2032,18.3059 20.0504,0 38.1815,-6.99331 51.2634,-18.2847 13.135,-11.3374 21.2717,-27.0473 21.2717,-44.4248 0,-17.3788 -8.13898,-33.0969 -21.2776,-44.4402 -13.0843,-11.2961 -31.213,-18.2953 -51.2575,-18.2953zm-96.4453 -20.3823c24.763,-21.3898 58.891,-34.6548 96.4453,-34.6548 37.5922,0 71.7343,13.2473 96.5056,34.6347 24.7158,21.3402 40.0264,50.7508 40.0264,83.1379 0,32.3894 -15.3083,61.7918 -40.0205,83.1225 -24.7725,21.3827 -58.9193,34.624 -96.5115,34.624 -37.5544,0 -71.6847,-13.2591 -96.4513,-34.6453 -24.7134,-21.3402 -40.0335,-50.7496 -40.0335,-83.1012 0,-32.3492 15.3225,-61.767 40.0394,-83.1178z"/></g></svg>