<?xml version="1.0" ?><!DOCTYPE svg  PUBLIC '-//W3C//DTD SVG 1.1//EN'  'http://www.w3.org/Graphics/SVG/1.1/DTD/svg11.dtd'><svg height="2048px" style="shape-rendering:geometricPrecision; text-rendering:geometricPrecision; image-rendering:optimizeQuality; fill-rule:evenodd; clip-rule:evenodd" viewBox="0 0 2048 2048" width="2048px" xml:space="preserve" xmlns="http://www.w3.org/2000/svg" xmlns:xlink="http://www.w3.org/1999/xlink"><defs><style type="text/css">
   <![CDATA[
    .fil0 {fill:none}
    .fil1 {fill:#212121;fill-rule:nonzero}
   ]]>
  </style></defs><g id="Layer_x0020_1"><g id="_270947424"><rect class="fil0" height="2048" id="_270948000" width="2048"/><rect class="fil0" height="1536" id="_270953856" width="1536" x="255.999" y="255.999"/></g><line class="fil0" x1="734.258" x2="607.994" y1="1470.99" y2="1695.99"/><path class="fil1" d="M762.133 1486.61c8.62914,-15.3945 3.1441,-34.8709 -12.2504,-43.5 -15.3945,-8.62914 -34.8709,-3.1441 -43.5,12.2504l-126.263 225.007c-8.62914,15.3945 -3.1441,34.8709 12.2504,43.5 15.3945,8.62914 34.8709,3.1441 43.5,-12.2504l126.263 -225.007z"/><path class="fil1" d="M1027.1 418.285c159.054,0 303.056,64.4741 407.292,168.71 104.236,104.236 168.71,248.237 168.71,407.292 0,159.054 -64.4741,303.056 -168.71,407.292 -104.236,104.236 -248.237,168.71 -407.292,168.71 -159.054,0 -303.056,-64.4741 -407.292,-168.71 -104.236,-104.236 -168.71,-248.237 -168.71,-407.292 0,-159.054 64.4741,-303.056 168.71,-407.292 104.236,-104.236 248.237,-168.71 407.292,-168.71zm362.041 213.96c-92.6516,-92.6516 -220.653,-149.959 -362.041,-149.959 -141.389,0 -269.39,57.3071 -362.041,149.959 -92.6516,92.6516 -149.959,220.653 -149.959,362.041 0,141.389 57.3071,269.39 149.959,362.041 92.6516,92.6516 220.653,149.959 362.041,149.959 141.389,0 269.39,-57.3071 362.041,-149.959 92.6516,-92.6516 149.959,-220.653 149.959,-362.041 0,-141.389 -57.3071,-269.39 -149.959,-362.041z"/><path class="fil1" d="M1059.1 610.287c0,-17.6728 -14.328,-32.0008 -32.0008,-32.0008 -17.6728,0 -32.0008,14.328 -32.0008,32.0008l0 416c0,8.93741 3.66496,17.0162 9.57284,22.8225l223.803 223.803c12.4949,12.4949 32.7555,12.4949 45.2504,0 12.4949,-12.4949 12.4949,-32.7555 0,-45.2504l-214.624 -214.624 0 -402.75z"/><line class="fil0" x1="1311.51" x2="1471.99" y1="1472.5" y2="1695.99"/><path class="fil1" d="M1337.39 1453.87c-10.285,-14.2902 -30.2103,-17.5358 -44.5004,-7.25079 -14.2902,10.285 -17.5358,30.2103 -7.25079,44.5004l160.485 223.498c10.285,14.2902 30.2103,17.5358 44.5004,7.25079 14.2902,-10.285 17.5358,-30.2103 7.25079,-44.5004l-160.485 -223.498z"/><path class="fil1" d="M1241.07 425.037c9.05434,-17.2122 20.6421,-32.8831 34.2721,-46.513 34.7469,-34.7445 82.7481,-56.2382 135.763,-56.2382 53.015,0 101.015,21.4937 135.762,56.2382 34.7445,34.7469 56.2382,82.7481 56.2382,135.763 0,43.3666 -14.5973,84.0757 -39.6898,116.776 -8.25709,10.7599 -17.6433,20.6504 -28.0146,29.4756 -11.7047,-17.7921 -24.3756,-35.0256 -37.9902,-51.6178 5.57481,-5.08583 10.6807,-10.6453 15.2551,-16.6075 16.7138,-21.7819 26.4378,-48.978 26.4378,-78.026 0,-35.3492 -14.3268,-67.3524 -37.487,-90.5127 -23.1603,-23.1603 -55.1622,-37.487 -90.5115,-37.487 -35.3492,0 -67.3524,14.3268 -90.5127,37.487 -8.02087,8.02087 -14.9811,17.1024 -20.6551,27.0166 -19.1587,-9.62717 -38.8087,-18.2185 -58.8674,-25.754zm-491.625 28.2142c-5.90906,-10.8744 -13.3488,-20.7969 -22.0288,-29.4768 -23.1603,-23.1603 -55.1634,-37.487 -90.5127,-37.487 -35.3492,0 -67.3512,14.3268 -90.5115,37.487 -23.1603,23.1603 -37.487,55.1634 -37.487,90.5127 0,29.0481 9.72402,56.2441 26.4378,78.026 5.54764,7.22953 11.8736,13.8685 18.8764,19.787 -13.4788,16.6488 -26.0232,33.926 -37.5922,51.7619 -11.974,-9.64253 -22.7232,-20.6658 -32.0339,-32.7992 -25.0925,-32.7 -39.6898,-73.4091 -39.6898,-116.776 0,-53.015 21.4937,-101.016 56.2382,-135.763 34.7469,-34.7445 82.7469,-56.2382 135.762,-56.2382 53.015,0 101.016,21.4937 135.763,56.2382 14.1461,14.1473 26.0953,30.4914 35.2914,48.4772 -19.9477,7.70434 -39.476,16.4681 -58.513,26.25z"/></g></svg>