<?xml version="1.0" ?><!DOCTYPE svg  PUBLIC '-//W3C//DTD SVG 1.1//EN'  'http://www.w3.org/Graphics/SVG/1.1/DTD/svg11.dtd'><svg height="2048px" style="shape-rendering:geometricPrecision; text-rendering:geometricPrecision; image-rendering:optimizeQuality; fill-rule:evenodd; clip-rule:evenodd" viewBox="0 0 2048 2048" width="2048px" xml:space="preserve" xmlns="http://www.w3.org/2000/svg" xmlns:xlink="http://www.w3.org/1999/xlink"><defs><style type="text/css">
   <![CDATA[
    .fil0 {fill:none}
    .fil1 {fill:#212121;fill-rule:nonzero}
   ]]>
  </style></defs><g id="Layer_x0020_1"><g id="_272173496"><rect class="fil0" height="2048" id="_272169368" width="2048"/><rect class="fil0" height="1536" id="_272174984" width="1536" x="255.999" y="255.999"/></g><path class="fil1" d="M1513.01 572.152c-84.4501,-77.6587 -231.512,-115.617 -386.719,-122.851 -180.09,-8.3941 -369.013,24.6886 -484.931,85.3146 -66.052,34.5496 -121.171,104.628 -146.981,168.136 -9.29883,22.8792 -14.5217,44.2453 -14.7,61.8686 -0.131102,12.985 2.37402,23.0138 8.02678,28.4044 4.61693,4.40433 12.5362,6.92953 24.3059,6.93071l213.532 0.0531496 0 -0.126378 0.011811 0 0 0.126378c6.75119,0 12.8102,-3.12638 17.2571,-8.01024 4.963,-5.45079 7.94646,-12.8622 7.94883,-20.7012l-0.125197 0 0 -0.0141732 0.125197 0 0.0188977 -124.251 0.00472441 -23.948 22.7232 -6.7878c104.685,-31.2662 186.24,-46.578 268.563,-46.4363 82.2591,0.140551 163.713,15.7347 268.296,46.2768l22.8685 6.67914 -0.0165354 24.0567 -0.0625985 88.3902 0.011811 36.0201c0,8.00079 3.06969,15.5032 8.15316,20.9162 4.37244,4.65709 10.3654,7.61812 17.1272,7.61812l0 0.126378 213.571 0.00472441 0 -0.126378c8.22638,0 14.0788,-1.36299 17.9091,-3.80788 5.96457,-3.80788 9.06733,-12.6532 10.0122,-24.4429 1.40197,-17.504 -2.21693,-39.3803 -9.14174,-62.5276 -15.9449,-53.2996 -48.0343,-109.536 -77.7875,-136.891zm-383.986 -186.832c168.688,7.8626 330.423,50.8654 426.711,139.41 37.4268,34.4114 77.0032,102.513 95.9198,165.745 9.06497,30.3 13.6961,60.2386 11.6244,86.1119 -2.5311,31.5874 -14.6303,57.6981 -39.5705,73.6217 -13.9288,8.89135 -31.0264,13.8449 -51.691,13.8449l0 -0.126378 -213.571 -0.00472441 0 0.126378c-25.1386,0 -47.1839,-10.761 -63.0815,-27.6921 -15.926,-16.9618 -25.5355,-40.2992 -25.539,-65.0752l-0.011811 -36.0201 0.0448819 -64.1906c-88.0123,-24.5776 -158.226,-37.1126 -227.79,-37.2319 -69.5469,-0.119291 -139.795,12.1878 -227.954,37.2933l-0.0153543 100.149 0.125197 0 0 0.0141732 -0.125197 0c-0.00826772,24.2953 -9.23387,47.2441 -24.5906,64.1091 -15.8705,17.4295 -38.2488,28.5862 -63.9556,28.5827l0 0.126378 -0.011811 0 0 -0.126378 -213.532 -0.0531496c-29.2607,-0.00236221 -51.6213,-8.83465 -67.7752,-24.2433 -19.487,-18.5858 -28.2095,-44.928 -27.8977,-75.5729 0.264567,-26.0067 7.16221,-55.5461 19.4197,-85.7056 30.6626,-75.4477 96.7961,-159.043 176.54,-200.753 125.055,-65.4048 326.36,-101.212 516.727,-92.3398z"/><path class="fil1" d="M512 959.998l211.2 0 32.0008 0 0 32.0008 0 211.2 0 32.0008 -32.0008 0 -211.2 0 -32.0008 0 0 -32.0008 0 -211.2 0 -32.0008 32.0008 0zm179.199 64.0016l-147.199 0 0 147.199 147.199 0 0 -147.199z"/><path class="fil1" d="M934.4 959.998l211.2 0 32.0008 0 0 32.0008 0 211.2 0 32.0008 -32.0008 0 -211.2 0 -32.0008 0 0 -32.0008 0 -211.2 0 -32.0008 32.0008 0zm179.199 64.0016l-147.199 0 0 147.199 147.199 0 0 -147.199z"/><path class="fil1" d="M1356.8 959.998l211.2 0 32.0008 0 0 32.0008 0 211.2 0 32.0008 -32.0008 0 -211.2 0 -32.0008 0 0 -32.0008 0 -211.2 0 -32.0008 32.0008 0zm179.199 64.0016l-147.199 0 0 147.199 147.199 0 0 -147.199z"/><path class="fil1" d="M512 1350.49l211.2 0 32.0008 0 0 32.0008 0 211.2 0 32.0008 -32.0008 0 -211.2 0 -32.0008 0 0 -32.0008 0 -211.2 0 -32.0008 32.0008 0zm179.199 64.0016l-147.199 0 0 147.199 147.199 0 0 -147.199z"/><path class="fil1" d="M934.4 1350.49l211.2 0 32.0008 0 0 32.0008 0 211.2 0 32.0008 -32.0008 0 -211.2 0 -32.0008 0 0 -32.0008 0 -211.2 0 -32.0008 32.0008 0zm179.199 64.0016l-147.199 0 0 147.199 147.199 0 0 -147.199z"/><path class="fil1" d="M1356.8 1350.49l211.2 0 32.0008 0 0 32.0008 0 211.2 0 32.0008 -32.0008 0 -211.2 0 -32.0008 0 0 -32.0008 0 -211.2 0 -32.0008 32.0008 0zm179.199 64.0016l-147.199 0 0 147.199 147.199 0 0 -147.199z"/></g></svg>