<?xml version="1.0" ?><!DOCTYPE svg  PUBLIC '-//W3C//DTD SVG 1.1//EN'  'http://www.w3.org/Graphics/SVG/1.1/DTD/svg11.dtd'><svg height="2048px" style="shape-rendering:geometricPrecision; text-rendering:geometricPrecision; image-rendering:optimizeQuality; fill-rule:evenodd; clip-rule:evenodd" viewBox="0 0 2048 2048" width="2048px" xml:space="preserve" xmlns="http://www.w3.org/2000/svg" xmlns:xlink="http://www.w3.org/1999/xlink"><defs><style type="text/css">
   <![CDATA[
    .fil0 {fill:none}
    .fil1 {fill:#212121;fill-rule:nonzero}
   ]]>
  </style></defs><g id="Layer_x0020_1"><g id="_189712072"><rect class="fil0" height="2048" id="_189725968" width="2048"/><rect class="fil0" height="1536" id="_189715792" width="1536" x="255.999" y="255.999"/></g><path class="fil1" d="M607.999 575.998l0.305906 0 831.696 0c17.6728,0 32.0008,14.328 32.0008,32.0008 0,1.37717 -0.0874016,2.73425 -0.256299,4.06536l-75.5056 1118.06 -31.8756 -2.1248 31.9276 2.15669c-1.14213,16.9099 -15.2244,29.8583 -31.9276,29.8429l0 0.0011811 -680.73 0c-17.5606,0 -31.8154,-14.1484 -31.9961,-31.6666l-75.5127 -1118.18 -0.0543308 0.00354331c-1.19055,-17.6327 12.1382,-32.8937 29.7709,-34.0843 0.724016,-0.0484252 1.44213,-0.0708662 2.15669,-0.0720473l0 -0.0011811zm797.822 64.0016l-763.642 0 71.3138 1056 621.013 0 71.315 -1056z"/><path class="fil1" d="M863.999 735.999c0,-17.6728 -14.328,-32.0008 -32.0008,-32.0008 -17.6728,0 -32.0008,14.328 -32.0008,32.0008l0 864.001c0,17.6728 14.328,32.0008 32.0008,32.0008 17.6728,0 32.0008,-14.328 32.0008,-32.0008l0 -864.001z"/><path class="fil1" d="M1056 735.999c0,-17.6728 -14.328,-32.0008 -32.0008,-32.0008 -17.6728,0 -32.0008,14.328 -32.0008,32.0008l0 864.001c0,17.6728 14.328,32.0008 32.0008,32.0008 17.6728,0 32.0008,-14.328 32.0008,-32.0008l0 -864.001z"/><path class="fil1" d="M1248 735.999c0,-17.6728 -14.328,-32.0008 -32.0008,-32.0008 -17.6728,0 -32.0008,14.328 -32.0008,32.0008l0 864.001c0,17.6728 14.328,32.0008 32.0008,32.0008 17.6728,0 32.0008,-14.328 32.0008,-32.0008l0 -864.001z"/><path class="fil1" d="M567.565 464.423c-17.6043,0.896457 -31.1469,15.8965 -30.2504,33.5008 0.896457,17.6043 15.8965,31.1469 33.5008,30.2504l922.44 -49.7044c17.6043,-0.896457 31.1469,-15.8965 30.2504,-33.5008 -0.896457,-17.6043 -15.8965,-31.1469 -33.5008,-30.2504l-922.44 49.7044z"/><polygon class="fil1" points="904.517,449.624 900.375,372.754 898.664,340.976 930.626,339.253 1122.8,328.898 1154.58,327.187 1156.3,359.149 1160.44,436.018 1096.69,439.269 1094.27,394.362 965.839,401.282 968.268,446.373 "/></g></svg>