<?xml version="1.0" ?><!DOCTYPE svg  PUBLIC '-//W3C//DTD SVG 1.1//EN'  'http://www.w3.org/Graphics/SVG/1.1/DTD/svg11.dtd'><svg height="2048px" style="shape-rendering:geometricPrecision; text-rendering:geometricPrecision; image-rendering:optimizeQuality; fill-rule:evenodd; clip-rule:evenodd" viewBox="0 0 2048 2048" width="2048px" xml:space="preserve" xmlns="http://www.w3.org/2000/svg" xmlns:xlink="http://www.w3.org/1999/xlink"><defs><style type="text/css">
   <![CDATA[
    .fil0 {fill:none}
    .fil1 {fill:#212121;fill-rule:nonzero}
   ]]>
  </style></defs><g id="Layer_x0020_1"><g id="_270951072"><rect class="fil0" height="2048" id="_270951408" width="2048"/><rect class="fil0" height="1536" id="_270950640" width="1536" x="255.999" y="255.999"/></g><path class="fil1" d="M678.609 1652.37c-1.07126,-7.28859 -0.640158,-14.7118 1.28386,-22.2603l0.750001 -2.1248 154.791 -465.317 -241.949 0c-5.31378,0 -9.57048,0.733465 -12.7677,2.2004 -2.66693,1.22362 -5.07166,3.20433 -7.20827,5.93268l-47.7992 64.7186 -0.375591 0.499607c-14.1201,18.3579 -59.4886,34.1138 -98.2926,36.2622 -14.0941,0.778347 -27.9862,0.0354331 -39.9981,-2.69764 -16.5874,-3.77244 -30.417,-11.4047 -39.124,-23.9185 -8.16615,-11.7449 -11.0209,-25.7516 -6.79489,-42.2363l0.250394 -1.24961 48.0343 -161.29 0.125197 -0.250394c1.6689,-5.42363 2.50394,-10.9724 2.50394,-16.6453 0,-5.66811 -0.83504,-11.2146 -2.50394,-16.6335l-0.125197 -0.250394 -48.0343 -161.312 -0.250394 -1.24961c-4.24252,-16.4847 -1.38543,-30.4949 6.79134,-42.241 8.70473,-12.5032 22.5295,-20.1343 39.104,-23.9079 12,-2.73071 25.8815,-3.47835 39.9697,-2.70236 38.765,2.13425 84.1583,17.9457 98.3446,36.4087l0.375591 0.37441 47.7992 64.7174c2.13543,2.72953 4.54016,4.71024 7.20591,5.93268 3.19725,1.46693 7.4563,2.20158 12.7701,2.20158l241.95 0 -154.792 -465.319 -0.750001 -2.1248c-1.92402,-7.54607 -2.35394,-14.9669 -1.28504,-22.2567 1.15276,-7.86497 4.01339,-15.1453 8.58544,-21.8327 5.00197,-7.31812 11.3563,-12.8551 19.0477,-16.598 7.11142,-3.46418 14.8973,-5.20276 23.3433,-5.20276l96.0591 0c14.2819,0 27.4122,3.28347 39.391,9.85158 11.5465,6.32835 21.4417,15.5162 29.6835,27.5563l0.875198 1.3748 296.194 486.512 0.499607 0.875198c1.42795,2.50512 3.08859,4.27796 4.97599,5.3126 2.25118,1.23425 5.57835,1.85197 9.97442,1.85197l333.559 0c79.1363,0 129.216,34.1551 151.823,78.3745 9.36733,18.3201 13.8732,38.2394 13.6831,58.1859 -0.190158,19.8839 -4.9689,39.7146 -14.1756,57.9296 -23.3906,46.2721 -74.902,82.8461 -151.33,82.8461l-333.559 0c-4.39607,0 -7.72323,0.617717 -9.97678,1.85315 -1.8874,1.03465 -3.54685,2.8063 -4.97363,5.31024l-0.499607 0.875198 -296.194 486.491 -0.875198 1.3748c-8.23583,12.0354 -18.1311,21.228 -29.6835,27.5705 -11.9717,6.57166 -25.1032,9.85985 -39.391,9.85985l-96.0591 0c-8.45079,0 -16.2378,-1.7374 -23.3469,-5.20512 -7.70788,-3.76181 -14.061,-9.30001 -19.0441,-16.611 -4.56496,-6.66024 -7.42796,-13.9394 -8.58426,-21.8162zm67.852 -20.3693l79.1823 0c3.50197,0 6.38386,-0.620079 8.63977,-1.85906 2.56181,-1.40669 5.02205,-3.78307 7.37363,-7.12205l295.629 -485.563 0.00472441 0.00354331c7.40906,-12.6744 17.152,-22.3217 29.2181,-28.9394 11.9823,-6.56812 25.5614,-9.85394 40.728,-9.85394l333.559 0c49.0689,0 80.8926,-21.013 94.33,-47.5949 4.82599,-9.54804 7.32993,-19.7055 7.42442,-29.6799 0.0944883,-9.91182 -2.10591,-19.7351 -6.6815,-28.6843 -12.5102,-24.4713 -43.4528,-43.3737 -95.0729,-43.3737l-333.559 0c-15.1677,0 -28.7457,-3.28347 -40.7256,-9.85276 -12.0685,-6.61536 -21.8103,-16.2662 -29.2205,-28.9418l-0.00472441 0.00354331 -295.629 -485.585c-2.34685,-3.32953 -4.80591,-5.70119 -7.37363,-7.10788 -2.24882,-1.23307 -5.12953,-1.85079 -8.63977,-1.85079l-79.1812 0 153.958 462.816c3.79961,8.12481 5.4,16.2957 4.80355,24.5008 -0.72756,10.0146 -4.49764,19.0051 -11.2961,26.9658 -5.27008,6.16063 -11.5488,10.8898 -18.8197,14.1756l0.0212599 0.0472441c-7.14922,3.21496 -14.7532,4.82835 -22.7953,4.82835l-258.849 0c-14.2606,0 -27.352,-2.73662 -39.2693,-8.20394 -12.3933,-5.68701 -22.8414,-14.0575 -31.3394,-25.1044l-0.375591 -0.499607 -48.0414 -65.0445 0.0283465 -0.0212599c-4.82008,-4.97126 -28.1492,-9.75355 -50.9989,-11.0114 -6.28465,-0.346063 -12.1772,-0.270473 -17.224,0.323622l44.3941 149.087 -0.0448819 0.0129921c3.61772,11.8276 5.42599,23.5358 5.42599,35.1213 0,11.5843 -1.80827,23.2961 -5.42599,35.1331l0.0448819 0.0129921 -44.3941 149.069c5.05748,0.595276 10.9701,0.669686 17.276,0.32126 23.2831,-1.28858 47.0953,-6.3 51.2339,-11.4378l47.726 -64.6193 0.375591 -0.499607c8.50276,-11.0469 18.9508,-19.4173 31.3418,-25.1044 11.9197,-5.46851 25.0075,-8.20276 39.267,-8.20276l258.849 0c8.61969,0 16.487,1.4811 23.5937,4.44803 8.97048,3.74292 16.1256,9.52678 21.45,17.3516 5.53465,8.07166 8.30552,16.891 8.30552,26.4567 0,7.39134 -1.75748,14.8158 -5.26654,22.2744l-153.956 462.804z"/></g></svg>