<?xml version="1.0" ?><!DOCTYPE svg  PUBLIC '-//W3C//DTD SVG 1.1//EN'  'http://www.w3.org/Graphics/SVG/1.1/DTD/svg11.dtd'><svg height="2048px" style="shape-rendering:geometricPrecision; text-rendering:geometricPrecision; image-rendering:optimizeQuality; fill-rule:evenodd; clip-rule:evenodd" viewBox="0 0 2048 2048" width="2048px" xml:space="preserve" xmlns="http://www.w3.org/2000/svg" xmlns:xlink="http://www.w3.org/1999/xlink"><defs><style type="text/css">
   <![CDATA[
    .fil0 {fill:none}
    .fil1 {fill:#212121;fill-rule:nonzero}
   ]]>
  </style></defs><g id="Layer_x0020_1"><g id="_192175560"><rect class="fil0" height="2048" id="_189798936" width="2048"/><rect class="fil0" height="1536" id="_189801936" width="1536" x="255.999" y="255.999"/></g><path class="fil1" d="M544 767.998l992.003 0c52.8331,0 100.841,21.5917 135.625,56.3752 34.7835,34.7835 56.3752,82.7918 56.3752,135.625l0 160.002c0,52.8331 -21.5917,100.841 -56.3752,135.625 -34.7835,34.7835 -82.7918,56.3752 -135.625,56.3752l-992.003 0c-52.8331,0 -100.841,-21.5917 -135.625,-56.3752 -34.7835,-34.7835 -56.3752,-82.7918 -56.3752,-135.625l0 -160.002c0,-52.8331 21.5917,-100.841 56.3752,-135.625 34.7835,-34.7835 82.7918,-56.3752 135.625,-56.3752zm992.003 64.0016l-992.003 0c-35.1673,0 -67.1611,14.4106 -90.3745,37.624 -23.2134,23.2134 -37.624,55.2071 -37.624,90.3745l0 160.002c0,35.1673 14.4106,67.1611 37.624,90.3745 23.2134,23.2134 55.2071,37.624 90.3745,37.624l992.003 0c35.1673,0 67.1611,-14.4106 90.3745,-37.624 23.2134,-23.2134 37.624,-55.2071 37.624,-90.3745l0 -160.002c0,-35.1673 -14.4106,-67.1611 -37.624,-90.3745 -23.2134,-23.2134 -55.2071,-37.624 -90.3745,-37.624z"/><g id="_192174744"><polygon class="fil1" id="_192174720" points="480,1008 800,1008 800,1072 480,1072 "/><polygon class="fil1" id="_192174696" points="726.625,921.375 822.624,1017.38 845.249,1040 822.624,1062.63 726.625,1158.62 681.375,1113.37 754.749,1040 681.375,966.626 "/></g><path class="fil1" d="M918.673 941.652l0 142.133c0,9.99922 1.6441,18.4441 4.93347,25.4209 3.28937,6.97796 8.17796,12.3118 14.6669,16.0004 6.4878,3.64488 14.5323,5.46615 24.1323,5.51103 9.60001,-0.0448819 17.6445,-1.86614 24.1335,-5.51103 6.48898,-3.68859 11.3776,-9.02245 14.6658,-16.0004 3.28937,-6.97678 4.93347,-15.4217 4.93347,-25.4209l0 -142.133 -27.7323 0 0 143.999c0,4.44449 -0.622441,7.95591 -1.86732,10.6217 -1.2437,2.66693 -2.97756,4.57796 -5.2441,5.77796 -2.26654,1.2 -4.97717,1.77756 -8.0882,1.73386 -3.11103,0.0437008 -5.82284,-0.533859 -8.08938,-1.73386 -2.26654,-1.2 -4.0004,-3.11103 -5.2441,-5.77796 -1.24488,-2.66575 -1.86732,-6.17717 -1.86732,-10.6217l0 -143.999 -29.3327 0zm170.131 186.665l30.1335 0 0 -186.665 -26.1331 0 0 111.732 -30.1335 -111.732 -36.7996 0 0 186.665 26.4 0 0 -135.199 36.5327 135.199zm51.1996 0l77.5997 0 0 -26.6669 -48.267 0 0 -159.998 -29.3327 0 0 186.665zm117.332 -143.732c0.0448819,-6.62126 1.42205,-11.3327 4.08898,-14.2217 2.71181,-2.8441 6.4004,-4.26615 11.1106,-4.17756 4.71142,-0.0885827 8.40001,1.33347 11.1118,4.17756 2.66575,2.88898 4.0441,7.6004 4.08898,14.2217l0 100.799c-0.0448819,6.62245 -1.42323,11.3339 -4.08898,14.2228 -2.71181,2.8441 -6.4004,4.26615 -11.1118,4.17756 -4.71024,0.0885827 -8.39883,-1.33347 -11.1106,-4.17756 -2.66693,-2.88898 -4.0441,-7.6004 -4.08898,-14.2228l0 -100.799zm-29.3327 98.9328c0,9.99922 1.73386,18.4441 5.15552,25.4221 3.42166,6.97678 8.40001,12.3106 15.0225,15.9992 6.62126,3.64488 14.7555,5.46733 24.3543,5.51103 9.60001,-0.0437008 17.7331,-1.86614 24.3555,-5.51103 6.62245,-3.68859 11.5996,-9.02245 15.0225,-15.9992 3.42166,-6.97796 5.15552,-15.4228 5.15552,-25.4221l0 -97.0654c0,-10.0004 -1.73386,-18.489 -5.15552,-25.4669 -3.42284,-6.97796 -8.40001,-12.2658 -15.0225,-15.9555 -6.62245,-3.6437 -14.7555,-5.46615 -24.3555,-5.51103 -9.59883,0.0448819 -17.7331,1.86732 -24.3543,5.51103 -6.62245,3.68977 -11.6008,8.97757 -15.0225,15.9555 -3.42166,6.97796 -5.15552,15.4665 -5.15552,25.4669l0 97.0654zm165.332 -24.7996l0 26.6658c0,4.44449 -0.622441,7.95591 -1.86732,10.6228 -1.2437,2.66575 -2.97756,4.57678 -5.2441,5.77678 -2.26654,1.2 -4.97835,1.77874 -8.08938,1.73386 -3.11103,0.0448819 -5.82166,-0.533859 -8.0882,-1.73386 -2.26654,-1.2 -4.0004,-3.11103 -5.2441,-5.77678 -1.24488,-2.66693 -1.86732,-6.17835 -1.86732,-10.6228l0 -100.799c0.0448819,-6.62126 1.42205,-11.3327 4.08898,-14.2217 2.71181,-2.8441 6.4004,-4.26615 11.1106,-4.17756 4.71142,-0.0885827 8.40001,1.33347 11.1118,4.17756 2.66575,2.88898 4.0441,7.6004 4.08898,14.2217l0 19.9996 27.7323 0 0 -18.1323c0,-10.0004 -1.6441,-18.489 -4.93347,-25.4669 -3.28819,-6.97796 -8.17678,-12.2658 -14.6658,-15.9555 -6.48898,-3.6437 -14.5335,-5.46615 -24.1335,-5.51103 -9.60001,0.0448819 -17.6445,1.86732 -24.1335,5.51103 -6.4878,3.68977 -11.3776,8.97757 -14.6658,15.9555 -3.28937,6.97796 -4.93347,15.4665 -4.93347,25.4669l0 97.0654c0,9.99922 1.6441,18.4441 4.93347,25.4221 3.28819,6.97678 8.17796,12.3106 14.6658,15.9992 6.48898,3.64488 14.5335,5.46733 24.1335,5.51103 9.60001,-0.0437008 17.6445,-1.86614 24.1335,-5.51103 6.48898,-3.68859 11.3776,-9.02245 14.6658,-15.9992 3.28937,-6.97796 4.93347,-15.4228 4.93347,-25.4221l0 -24.7996 -27.7323 0zm112.532 69.5989l30.1323 0 -40.7989 -103.466 40.7989 -83.1993 -29.3327 0 -38.4 81.3331 0 -81.3331 -29.3327 0 0 186.665 29.3327 0 0 -57.3331 9.06733 -17.0658 28.5331 74.3989z"/></g></svg>