<?xml version="1.0" ?><!DOCTYPE svg  PUBLIC '-//W3C//DTD SVG 1.1//EN'  'http://www.w3.org/Graphics/SVG/1.1/DTD/svg11.dtd'><svg height="2048px" style="shape-rendering:geometricPrecision; text-rendering:geometricPrecision; image-rendering:optimizeQuality; fill-rule:evenodd; clip-rule:evenodd" viewBox="0 0 2048 2048" width="2048px" xml:space="preserve" xmlns="http://www.w3.org/2000/svg" xmlns:xlink="http://www.w3.org/1999/xlink"><defs><style type="text/css">
   <![CDATA[
    .fil0 {fill:none}
    .fil1 {fill:#212121;fill-rule:nonzero}
   ]]>
  </style></defs><g id="Layer_x0020_1"><g id="_189726376"><rect class="fil0" height="2048" id="_189715120" width="2048"/><rect class="fil0" height="1536" id="_189724720" width="1536" x="255.999" y="255.999"/></g><path class="fil1" d="M1664.39 734.2c0,-43.9796 -14.1036,-85.9572 -39.2422,-115.768 -21.7866,-25.8355 -52.2638,-42.4276 -89.1485,-42.4276l-95.9965 0 -20.3752 -7.50119 -106.09 -88.5036 -275.974 0 -87.0579 86.6292 -22.5 9.3756 -160.002 0 -25.0689 0 -5.9315 -24.626c-2.67402,-11.1059 -9.0378,-21.815 -16.9831,-29.7886 -5.81693,-5.83819 -11.5961,-9.58583 -15.7854,-9.58583l-128.232 0c-4.3063,0 -10.2272,3.78898 -16.1728,9.73465 -7.83071,7.8319 -14.0941,18.3969 -16.6984,29.5146l-5.29134 22.5921 -23.0847 2.03386c-39.7264,3.49961 -71.2867,21.4311 -93.2788,47.7827 -24.5244,29.3847 -37.7103,69.4772 -37.7103,112.342l0 685.264c0,40.5626 16.3677,77.2819 42.7937,103.826 26.3788,26.4969 62.8595,42.9048 103.142,42.9048l988.744 0c40.2992,0 76.78,-16.4055 103.154,-42.8953 26.4272,-26.5429 42.7902,-63.267 42.7902,-103.836l0 -687.068zm9.50906 -157.019c34.9087,41.3977 54.4926,98.3221 54.4926,157.019l0 687.068c0,58.0122 -23.5335,110.661 -61.5414,148.836 -38.0575,38.2252 -90.5516,61.8969 -148.404,61.8969l-988.744 0c-57.8374,0 -110.333,-23.6752 -148.393,-61.9063 -38.0055,-38.1744 -61.5449,-90.8186 -61.5449,-148.826l0 -685.264c0,-57.5599 18.4323,-112.267 52.7126,-153.343 28.4811,-34.1256 67.5544,-58.6737 115.776,-67.6666 6.51969,-14.6185 15.7252,-27.9047 26.3256,-38.5063 17.3988,-17.4 39.3874,-28.4858 61.4233,-28.4858l128.232 0c21.8776,0 43.6878,11.1756 61.0359,28.5874 9.82324,9.85867 18.463,22.0465 24.8894,35.413l124.767 0 87.0579 -86.6292 22.5 -9.3756 300.436 0 20.3752 7.50119 106.09 88.5036 84.6131 0c57.3178,0 104.43,25.4894 137.9,65.178z"/><path class="fil1" d="M1180.33 736c-61.826,0 -117.882,25.1421 -158.466,65.7154 -40.513,40.5012 -65.6138,96.5009 -65.6138,158.299 0,61.8201 25.0914,117.804 65.5914,158.289 40.5851,40.5685 96.6497,65.6953 158.489,65.6953 61.7552,0 117.749,-25.1197 158.306,-65.6764 40.5603,-40.5603 65.6788,-96.5587 65.6788,-158.308 0,-61.7268 -25.1268,-117.739 -65.7012,-158.317 -40.5567,-40.5614 -96.541,-65.6965 -158.283,-65.6965zm-203.466 20.465c52.1634,-52.1504 124.142,-84.4666 203.466,-84.4666 79.4127,0 151.401,32.3091 203.534,84.4477 52.154,52.1599 84.4524,124.18 84.4524,203.568 0,79.415 -32.289,151.417 -84.43,203.558 -52.1363,52.1363 -124.135,84.4276 -203.556,84.4276 -79.3323,0 -151.321,-32.2985 -203.489,-84.4465 -52.2331,-52.213 -84.593,-124.214 -84.593,-203.54 0,-79.2993 32.3693,-151.318 84.6154,-203.549z"/><path class="fil1" d="M255.999 703.998c-17.6728,0 -32.0008,14.328 -32.0008,32.0008 0,17.6728 14.328,32.0008 32.0008,32.0008l95.7639 0c17.6728,0 32.0008,-14.328 32.0008,-32.0008 0,-17.6728 -14.328,-32.0008 -32.0008,-32.0008l-95.7639 0z"/><path class="fil1" d="M1792 767.999c17.6728,0 32.0008,-14.328 32.0008,-32.0008 0,-17.6728 -14.328,-32.0008 -32.0008,-32.0008l-95.7639 0c-17.6728,0 -32.0008,14.328 -32.0008,32.0008 0,17.6728 14.328,32.0008 32.0008,32.0008l95.7639 0z"/><path class="fil1" d="M1180.3 865.605c-26.0953,0 -49.7433,10.598 -66.8493,27.6992 -17.0327,17.028 -27.5858,40.6217 -27.5858,66.7028 0,26.0906 10.5496,49.6784 27.5752,66.6969 17.1047,17.0988 40.7563,27.6898 66.8599,27.6898 26.0173,0 49.6134,-10.5874 66.7064,-27.6792 17.0941,-17.0953 27.6815,-40.6926 27.6815,-66.7075 0,-26.0055 -10.591,-49.6099 -27.6921,-66.7123 -17.0941,-17.0953 -40.6855,-27.6898 -66.6957,-27.6898zm-111.849 -17.5512c28.6866,-28.6784 68.256,-46.4504 111.849,-46.4504 43.6831,0 83.276,17.7685 111.946,46.441 28.6807,28.6843 46.4433,68.2961 46.4433,111.963 0,43.6796 -17.7579,83.282 -46.4327,111.958 -28.6736,28.6713 -68.2725,46.4304 -111.957,46.4304 -43.5969,0 -83.1709,-17.7626 -111.86,-46.441 -28.7599,-28.7469 -46.5768,-68.3516 -46.5768,-111.947 0,-43.5815 17.8228,-83.1957 46.5874,-111.953z"/></g></svg>