<?xml version="1.0" ?><!DOCTYPE svg  PUBLIC '-//W3C//DTD SVG 1.1//EN'  'http://www.w3.org/Graphics/SVG/1.1/DTD/svg11.dtd'><svg height="2048px" style="shape-rendering:geometricPrecision; text-rendering:geometricPrecision; image-rendering:optimizeQuality; fill-rule:evenodd; clip-rule:evenodd" viewBox="0 0 2048 2048" width="2048px" xml:space="preserve" xmlns="http://www.w3.org/2000/svg" xmlns:xlink="http://www.w3.org/1999/xlink"><defs><style type="text/css">
   <![CDATA[
    .fil0 {fill:none}
    .fil1 {fill:#212121;fill-rule:nonzero}
   ]]>
  </style></defs><g id="Layer_x0020_1"><g id="_271277728"><rect class="fil0" height="2048" id="_271275808" width="2048"/><rect class="fil0" height="1536" id="_271276144" width="1536" x="255.999" y="255.999"/></g><path class="fil1" d="M1286.69 331.732l304.551 323.313 0.056693 -0.0531496c5.82284,6.18189 8.70591,14.0693 8.70473,21.9414l0.00236221 0 0 905.966c0,46.2945 -12.2386,81.9886 -36.7087,107.075 -24.7276,25.35 -59.9363,38.028 -105.619,38.028l-867.335 0c-45.6827,0 -80.8938,-12.678 -105.626,-38.028 -24.4725,-25.0831 -36.7134,-60.7737 -36.7134,-107.065l0 -1117.82c0,-98.0812 47.5689,-146.406 142.703,-144.945l0.114567 0 0.00236221 -0.120473c0.78189,0.011811 1.55669,0.0531496 2.32441,0.120473l668.79 -0.0106299 0 -0.124016c9.9756,0 18.8835,4.56496 24.7524,11.7189zm249.313 357.787l-287.895 -305.631 -654.934 0.0106299c-1.09724,0.0968505 -2.20984,0.138189 -3.33425,0.120473l0.00236221 -0.121654c-51.8894,-0.757087 -77.8382,26.3126 -77.8382,81.1949l0 1117.82c0,29.0941 6.15591,49.9524 18.463,62.5654 12.0484,12.3496 32.0079,18.5256 59.8748,18.5256l867.335 0c27.8646,0 47.8229,-6.17717 59.8678,-18.5256 12.3047,-12.6142 18.4583,-33.4748 18.4583,-62.576l0 -893.381zm-945.297 -369.371l0.0011811 0"/><polyline class="fil0" points="1254.17,351.998 1266.37,351.998 1568,665.795 1568,676.919 "/><path class="fil1" d="M1254.17 320c-17.6717,0 -31.9984,14.3268 -31.9984,31.9984 0,17.2228 13.6087,31.2662 30.6591,31.9689l-9.463 -9.8445 10.8024 -10.3913 0 20.2654c-0.448819,0 -0.895276,-0.011811 -1.33937,-0.0295276l283.216 294.634c0.875198,16.8898 14.8476,30.3154 31.9547,30.3154 17.6717,0 31.9984,-14.3268 31.9984,-31.9984l0 -11.1236 -0.0011811 0c0.00236221,-7.97835 -2.96221,-15.9685 -8.92796,-22.1752l-23.0693 22.1752 22.9984 -22.1244 -300.011 -312.108c-5.87008,-7.06418 -14.7201,-11.563 -24.6225,-11.563l-12.1961 0zm302.268 356.919l-11.4354 11.0008 -0.00826772 -0.00944883 11.4343 -10.9913 -20.426 0c0,0.564567 0.0141732,1.12559 0.0437008,1.68307l8.94804 9.30827 -0.0625985 0.0602363c12.2469,12.7406 32.504,13.141 45.2445,0.894095 3.59882,-3.45945 6.21142,-7.55788 7.83426,-11.9457l-41.5725 0z"/><path class="fil1" d="M1280.37 832.096c17.1933,0 31.1327,-14.3705 31.1327,-32.0965 0,-17.726 -13.9394,-32.0965 -31.1327,-32.0965l-515.848 0c-17.1933,0 -31.1327,14.3705 -31.1327,32.0965 0,17.726 13.9394,32.0965 31.1327,32.0965l515.848 0z"/><path class="fil1" d="M1561.86 703.372c17.6717,0 31.9984,-14.0398 31.9984,-31.3583 0,-17.3185 -14.3268,-31.3583 -31.9984,-31.3583l-200.705 0c-6.13937,0 1.18701,0.161811 -3.10984,0.0968505 -27.7973,-0.419292 -47.7992,-6.65788 -60.0036,-18.7016 -12.0248,-11.8677 -18.039,-31.2922 -18.039,-58.2556 0,-6.15827 -0.164173,1.37362 -0.101575,-2.71654l0.122835 0.00236221 0.0011811 -0.474804 0.00236221 0 0 -208.608c0,-17.3185 -14.3268,-31.3583 -31.9984,-31.3583 -17.6717,0 -31.9984,14.0398 -31.9984,31.3583l0 208.608 0.119291 0c-0.0956694,5.82638 -0.144095,-0.830316 -0.144095,3.18898 0,44.0244 12.2622,78.1489 36.7878,102.353 24.3461,24.0248 59.1827,36.3922 104.503,37.0748 6.60355,0.100394 0.0602363,0.148819 3.85866,0.148819l200.705 0z"/><path class="fil1" d="M1280.37 1056.09c17.1933,0 31.1327,-14.3705 31.1327,-32.0965 0,-17.726 -13.9394,-32.0965 -31.1327,-32.0965l-515.848 0c-17.1933,0 -31.1327,14.3705 -31.1327,32.0965 0,17.726 13.9394,32.0965 31.1327,32.0965l515.848 0z"/><path class="fil1" d="M1280.37 1280.09c17.1933,0 31.1327,-14.3705 31.1327,-32.0965 0,-17.726 -13.9394,-32.0965 -31.1327,-32.0965l-515.848 0c-17.1933,0 -31.1327,14.3705 -31.1327,32.0965 0,17.726 13.9394,32.0965 31.1327,32.0965l515.848 0z"/><path class="fil1" d="M1280.37 1504.09c17.1933,0 31.1327,-14.3705 31.1327,-32.0965 0,-17.726 -13.9394,-32.0965 -31.1327,-32.0965l-515.848 0c-17.1933,0 -31.1327,14.3705 -31.1327,32.0965 0,17.726 13.9394,32.0965 31.1327,32.0965l515.848 0z"/></g></svg>