<?xml version="1.0" ?><!DOCTYPE svg  PUBLIC '-//W3C//DTD SVG 1.1//EN'  'http://www.w3.org/Graphics/SVG/1.1/DTD/svg11.dtd'><svg height="2048px" style="shape-rendering:geometricPrecision; text-rendering:geometricPrecision; image-rendering:optimizeQuality; fill-rule:evenodd; clip-rule:evenodd" viewBox="0 0 2048 2048" width="2048px" xml:space="preserve" xmlns="http://www.w3.org/2000/svg" xmlns:xlink="http://www.w3.org/1999/xlink"><defs><style type="text/css">
   <![CDATA[
    .fil0 {fill:none}
    .fil1 {fill:#212121;fill-rule:nonzero}
   ]]>
  </style></defs><g id="Layer_x0020_1"><g id="_189711256"><rect class="fil0" height="2048" id="_189714448" width="2048"/><rect class="fil0" height="1536" id="_189714040" width="1536" x="255.999" y="255.999"/></g><path class="fil1" d="M338.802 686.686c8.63623,177.36 128.459,379.563 290.277,556.979 186.742,204.744 427.866,374.716 619.356,435.863 111.543,35.6138 249.753,20.0858 348.059,-20.8524 35.9811,-14.9847 65.9611,-33.1288 86.4048,-53.0622 17.1177,-16.689 26.9138,-34.0122 26.5595,-50.6528 -0.291733,-13.7138 -7.66654,-28.7906 -23.7732,-44.902l-229.708 -229.818 -0.0625985 0.0625985 -0.0141732 -0.0141732 0 -0.125197c-10.7339,-10.7374 -24.9768,-15.4736 -39.2563,-14.9032 -14.9469,0.598819 -29.8949,6.91182 -41.2217,18.1996l0.0625985 0.0625985 -0.0153543 0.0153543 -0.125197 0 -131.941 131.899 -16.7965 16.7906 -20.9516 -11.4154c-144.696,-78.8375 -247.664,-149.551 -334.777,-236.961 -87.1489,-87.4453 -157.46,-190.559 -236.853,-334.204l-11.5724 -20.9386 17.0728 -17.0599 132.082 -131.973 -0.0625985 -0.0625985c11.5583,-11.5606 17.8984,-26.7945 18.2705,-41.9079 0.343701,-13.9417 -4.50591,-27.8705 -15.1713,-38.5359l-229.864 -229.872c-11.2193,-11.2193 -21.7902,-17.4791 -31.6559,-19.6158 -16.1634,-3.50197 -33.5918,4.05709 -50.863,18.8079 -21.6721,18.5091 -42.1548,47.1095 -60.0355,80.5571 -40.6323,76.0087 -66.5398,173.785 -63.4252,237.64zm243.029 599.976c-170.765,-187.226 -297.346,-403.338 -306.775,-596.976 -3.61181,-74.0339 25.3583,-185.399 70.9253,-270.638 21.4854,-40.1906 46.9075,-75.2481 74.7851,-99.058 32.2772,-27.5658 68.0564,-40.9961 105.86,-32.8063 21.7477,4.71142 43.063,16.5236 63.404,36.8646l229.864 229.872c23.6669,23.6669 34.428,54.4831 33.6697,85.2839 -0.770079,31.2579 -13.5295,62.4119 -36.7689,85.656l-0.125197 0 -115.005 114.911c71.8004,127.651 136.318,220.67 214.464,299.081 78.1949,78.4631 170.927,143.256 299.146,214.473l115.011 -114.973 -0.0625985 -0.0625985 0.0153543 -0.0153543 0.125197 0c22.7988,-22.7811 53.1957,-35.5359 83.7827,-36.7607 31.2555,-1.25079 62.7532,9.43111 86.941,33.5894l0.0625985 -0.0625985 0.0141732 0.0141732 0 0.125197 229.771 229.88c28.5083,28.5154 41.6292,58.5449 42.2717,88.6501 0.759449,35.6197 -16.1492,68.7331 -45.8091,97.6513 -26.3327,25.6748 -63.2079,48.3213 -106.403,66.3095 -110.014,45.8138 -265.462,62.9422 -391.807,22.6028 -201.685,-64.402 -453.704,-241.292 -647.356,-453.612z"/></g></svg>