<?xml version="1.0" ?><!DOCTYPE svg  PUBLIC '-//W3C//DTD SVG 1.1//EN'  'http://www.w3.org/Graphics/SVG/1.1/DTD/svg11.dtd'><svg height="2048px" style="shape-rendering:geometricPrecision; text-rendering:geometricPrecision; image-rendering:optimizeQuality; fill-rule:evenodd; clip-rule:evenodd" viewBox="0 0 2048 2048" width="2048px" xml:space="preserve" xmlns="http://www.w3.org/2000/svg" xmlns:xlink="http://www.w3.org/1999/xlink"><defs><style type="text/css">
   <![CDATA[
    .fil0 {fill:none}
    .fil1 {fill:#212121;fill-rule:nonzero}
   ]]>
  </style></defs><g id="Layer_x0020_1"><rect class="fil0" height="2048" width="2048"/><rect class="fil0" height="1536" width="1536" x="255.999" y="255.999"/><path class="fil1" d="M1662.2 1388.04c-32.0835,55.5685 -71.0776,106.306 -115.824,151.051 -44.7449,44.7461 -95.4839,83.7402 -151.05,115.821 -174.456,100.722 -373.172,121.212 -553.415,72.9166 -180.269,-48.3024 -342.12,-165.384 -442.812,-339.789 -100.722,-174.456 -121.212,-373.172 -72.9154,-553.415 48.3024,-180.269 165.384,-342.12 339.789,-442.812 174.456,-100.722 373.172,-121.212 553.415,-72.9154 180.217,48.2882 342.063,165.411 442.811,339.914 32.1036,55.6052 56.5512,114.737 72.9166,175.812 16.3665,61.0831 24.7618,124.525 24.763,188.74l-63.7512 0c0,-58.193 -7.71733,-116.092 -22.7622,-172.24 -15.0461,-56.1532 -37.3158,-110.158 -66.4158,-160.562 -91.8154,-159.032 -239.506,-265.823 -404.061,-309.914 -164.528,-44.0859 -345.834,-25.4303 -504.915,66.4146 -159.131,91.8745 -265.962,239.562 -310.04,404.063 -44.0859,164.528 -25.4303,345.834 66.4146,504.915 91.8745,159.131 239.562,265.962 404.063,310.04 164.528,44.0847 345.835,25.4292 504.915,-66.4158 50.4402,-29.1213 96.7288,-64.7493 137.8,-105.822 41.0729,-41.0717 76.702,-87.3615 105.824,-137.802l55.2496 32.0008z"/><polygon class="fil1" points="1672,1606.56 1619.08,1390.1 1409.13,1398.71 1406.63,1334.96 1642.61,1325.28 1668.64,1324.22 1674.86,1349.66 1734,1591.56 "/><path class="fil1" d="M828.236 799.999l423.531 0c25.3984,0 48.4666,10.3677 65.1662,27.0697 16.702,16.6996 27.0697,39.7677 27.0697,65.1662l0 391.529c0,25.3973 -10.3677,48.4654 -27.0697,65.1674 -16.6996,16.702 -39.7677,27.0697 -65.1662,27.0697l-423.531 0c-25.3984,0 -48.4666,-10.3677 -65.1662,-27.0697 -16.702,-16.702 -27.0697,-39.7701 -27.0697,-65.1674l0 -391.529c0,-25.3984 10.3677,-48.4666 27.0697,-65.1662 16.6996,-16.702 39.7677,-27.0697 65.1662,-27.0697zm423.531 64.0016l-423.531 0c-7.73032,0 -14.7851,3.18662 -19.9158,8.31851 -5.13189,5.13071 -8.31851,12.1854 -8.31851,19.9158l0 391.529c0,7.7315 3.18662,14.7851 8.31851,19.9169 5.13071,5.13189 12.1854,8.31851 19.9158,8.31851l423.531 0c7.73032,0 14.7851,-3.18662 19.9158,-8.31851 5.13189,-5.13189 8.31851,-12.1854 8.31851,-19.9169l0 -391.529c0,-7.73032 -3.18662,-14.7851 -8.31851,-19.9158 -5.13071,-5.13189 -12.1854,-8.31851 -19.9158,-8.31851z"/><path class="fil1" d="M863.999 705.332l0 -22.6666c0,-28.3382 10.1705,-54.3733 26.55,-73.4835 17.5488,-20.4732 42.1134,-33.1831 69.4512,-33.1831l160.001 0c27.3366,0 51.9012,12.7099 69.4501,33.1843 16.3795,19.1103 26.55,45.1429 26.55,73.4823l0 149.334 -64.0016 0 0 -149.334c0,-12.7276 -4.23307,-24.0307 -11.0492,-31.9831 -5.64804,-6.58938 -13.0878,-10.6819 -20.9492,-10.6819l-160.001 0c-7.8626,0 -15.3024,4.09252 -20.9504,10.6807 -6.81615,7.95237 -11.0492,19.2567 -11.0492,31.9843l0 22.6666 -64.0016 0z"/><path class="fil1" d="M1072 991.999c0,-17.6728 -14.328,-32.0008 -32.0008,-32.0008 -17.6728,0 -32.0008,14.328 -32.0008,32.0008l0 192c0,17.6728 14.328,32.0008 32.0008,32.0008 17.6728,0 32.0008,-14.328 32.0008,-32.0008l0 -192z"/></g></svg>