<?xml version="1.0" ?><!DOCTYPE svg  PUBLIC '-//W3C//DTD SVG 1.1//EN'  'http://www.w3.org/Graphics/SVG/1.1/DTD/svg11.dtd'><svg height="2048px" style="shape-rendering:geometricPrecision; text-rendering:geometricPrecision; image-rendering:optimizeQuality; fill-rule:evenodd; clip-rule:evenodd" viewBox="0 0 2048 2048" width="2048px" xml:space="preserve" xmlns="http://www.w3.org/2000/svg" xmlns:xlink="http://www.w3.org/1999/xlink"><defs><style type="text/css">
   <![CDATA[
    .fil0 {fill:none}
    .fil1 {fill:#212121;fill-rule:nonzero}
   ]]>
  </style></defs><g id="Layer_x0020_1"><g id="_192176112"><rect class="fil0" height="2048" id="_192175872" width="2048"/><rect class="fil0" height="1536" id="_192175368" width="1536" x="255.999" y="255.999"/></g><g id="_192176376"><path class="fil1" d="M1600 960.108l-1151.99 0 0 735.892 1151.99 0 0 -735.892zm-1160.55 -64.0016l1169.1 0c15.1134,0 29.041,6.34252 39.0792,16.3807l0 0.125197c10.0181,10.0217 16.3713,23.8784 16.3713,38.9481l0 752.952c0,15.0638 -6.34961,28.9347 -16.3725,38.974 -10.1008,10.1173 -24.0307,16.5154 -39.078,16.5154l-1169.1 0c-15.5705,0 -29.3327,-6 -39.4441,-16.1339 -10.0559,-10.0736 -15.998,-23.8122 -15.998,-39.3555l0 -752.952c0,-15.548 5.94804,-29.2713 15.998,-39.3272 10.1268,-10.1315 23.8949,-16.1268 39.4441,-16.1268z" id="_192176256"/><path class="fil1" d="M640.356 671.643c0,17.6728 14.328,32.0008 32.0008,32.0008 17.6728,0 32.0008,-14.328 32.0008,-32.0008 0,-87.8694 35.9693,-167.773 93.919,-225.723 57.9497,-57.9497 137.854,-93.919 225.723,-93.919 87.8682,0 167.772,35.9693 225.722,93.919 57.9497,57.9497 93.9202,137.855 93.9202,225.723l0 256.465c0,17.6728 14.328,32.0008 32.0008,32.0008 17.6728,0 32.0008,-14.328 32.0008,-32.0008l0 -256.465c0,-105.533 -43.1516,-201.454 -112.671,-270.973 -69.5186,-69.5186 -165.439,-112.67 -270.972,-112.67 -105.535,0 -201.455,43.1516 -270.973,112.67 -69.5186,69.5186 -112.67,165.438 -112.67,270.973z" id="_192176784"/><path class="fil1" d="M1024 1088c35.341,0 67.3406,14.328 90.5056,37.4929 23.1638,23.1638 37.4918,55.1634 37.4918,90.5044 0,35.341 -14.328,67.3406 -37.4918,90.5056 -23.165,23.1638 -55.1646,37.4918 -90.5056,37.4918 -35.341,0 -67.3406,-14.328 -90.5056,-37.4918 -23.1638,-23.165 -37.4918,-55.1646 -37.4918,-90.5056 0,-35.341 14.328,-67.3406 37.4918,-90.5044 23.165,-23.165 55.1646,-37.4929 90.5056,-37.4929zm45.2552 82.7434c-11.5795,-11.5795 -27.5799,-18.7417 -45.2552,-18.7417 -17.6752,0 -33.6756,7.16221 -45.2552,18.7417 -11.5784,11.5784 -18.7406,27.5788 -18.7406,45.254 0,17.6752 7.16339,33.6768 18.7406,45.2552 11.5784,11.5772 27.5799,18.7406 45.2552,18.7406 17.6752,0 33.6768,-7.16339 45.2552,-18.7406 11.5772,-11.5784 18.7406,-27.5799 18.7406,-45.2552 0,-17.6752 -7.16221,-33.6756 -18.7406,-45.254z" id="_192176952"/><path class="fil1" d="M1056 1311.99c0,-17.6728 -14.328,-32.0008 -32.0008,-32.0008 -17.6728,0 -32.0008,14.328 -32.0008,32.0008l0 224.007c0,17.6728 14.328,32.0008 32.0008,32.0008 17.6728,0 32.0008,-14.328 32.0008,-32.0008l0 -224.007z" id="_192177048"/></g></g></svg>