<?xml version="1.0" ?><!DOCTYPE svg  PUBLIC '-//W3C//DTD SVG 1.1//EN'  'http://www.w3.org/Graphics/SVG/1.1/DTD/svg11.dtd'><svg height="2048px" style="shape-rendering:geometricPrecision; text-rendering:geometricPrecision; image-rendering:optimizeQuality; fill-rule:evenodd; clip-rule:evenodd" viewBox="0 0 2048 2048" width="2048px" xml:space="preserve" xmlns="http://www.w3.org/2000/svg" xmlns:xlink="http://www.w3.org/1999/xlink"><defs><style type="text/css">
   <![CDATA[
    .fil0 {fill:none}
    .fil1 {fill:#212121;fill-rule:nonzero}
   ]]>
  </style></defs><g id="Layer_x0020_1"><g id="_271269064"><rect class="fil0" height="2048" id="_271273744" width="2048"/><rect class="fil0" height="1536" id="_271272856" width="1536" x="255.999" y="255.999"/></g><path class="fil1" d="M601.602 1248c43.8449,0 84.0225,13.0394 113.534,34.1185 32.6634,23.3303 52.8662,56.4697 52.8662,93.8824 0,37.4138 -20.2051,70.5508 -52.8662,93.8812 -29.511,21.0792 -69.6898,34.1185 -113.534,34.1185 -43.8437,0 -84.0225,-13.0394 -113.534,-34.1185 -32.661,-23.3303 -52.8662,-56.4674 -52.8662,-93.8812 0,-37.4126 20.2028,-70.552 52.8662,-93.8824 29.511,-21.0792 69.6886,-34.1185 113.534,-34.1185zm76.5343 86.1178c-19.1291,-13.663 -46.154,-22.1162 -76.5343,-22.1162 -30.3803,0 -57.4052,8.45316 -76.5343,22.1162 -15.9803,11.4142 -25.8638,26.2784 -25.8638,41.8831 0,15.6047 9.88583,30.4689 25.8638,41.8819 19.1291,13.6642 46.154,22.1162 76.5343,22.1162 30.3803,0 57.4052,-8.45198 76.5343,-22.1162 15.978,-11.413 25.8638,-26.2772 25.8638,-41.8819 0,-15.6047 -9.88347,-30.4689 -25.8638,-41.8831z"/><polygon class="fil1" points="1344,1312 1344,583.023 768.002,698.225 768.002,1376 704,1376 704,671.999 704,645.775 729.751,640.625 1369.75,512.624 1408,504.974 1408,543.998 1408,1312 "/><path class="fil1" d="M1241.6 1184c43.8449,0 84.0225,13.0394 113.534,34.1185 32.6634,23.3303 52.8662,56.4697 52.8662,93.8824 0,37.4138 -20.2051,70.5508 -52.8662,93.8812 -29.511,21.0792 -69.6898,34.1185 -113.534,34.1185 -43.8437,0 -84.0225,-13.0394 -113.534,-34.1185 -32.661,-23.3303 -52.8662,-56.4674 -52.8662,-93.8812 0,-37.4126 20.2028,-70.552 52.8662,-93.8824 29.511,-21.0792 69.6886,-34.1185 113.534,-34.1185zm76.5343 86.1178c-19.1291,-13.663 -46.154,-22.1162 -76.5343,-22.1162 -30.3803,0 -57.4052,8.45316 -76.5343,22.1162 -15.9803,11.4142 -25.8638,26.2784 -25.8638,41.8831 0,15.6047 9.88583,30.4689 25.8638,41.8819 19.1291,13.6642 46.154,22.1162 76.5343,22.1162 30.3803,0 57.4052,-8.45198 76.5343,-22.1162 15.978,-11.413 25.8638,-26.2772 25.8638,-41.8819 0,-15.6047 -9.88347,-30.4689 -25.8638,-41.8831z"/></g></svg>