<?xml version="1.0" ?><!DOCTYPE svg  PUBLIC '-//W3C//DTD SVG 1.1//EN'  'http://www.w3.org/Graphics/SVG/1.1/DTD/svg11.dtd'><svg height="2048px" style="shape-rendering:geometricPrecision; text-rendering:geometricPrecision; image-rendering:optimizeQuality; fill-rule:evenodd; clip-rule:evenodd" viewBox="0 0 2048 2048" width="2048px" xml:space="preserve" xmlns="http://www.w3.org/2000/svg" xmlns:xlink="http://www.w3.org/1999/xlink"><defs><style type="text/css">
   <![CDATA[
    .fil0 {fill:none}
    .fil1 {fill:#212121;fill-rule:nonzero}
   ]]>
  </style></defs><g id="Layer_x0020_1"><g id="_272169728"><rect class="fil0" height="2048" id="_272170472" width="2048"/><rect class="fil0" height="1536" id="_272172296" width="1536" x="255.999" y="255.999"/></g><path class="fil1" d="M352.001 319.997l1344 0 32.0008 0 0 32.0008 0 1344 0 32.0008 -32.0008 0 -1344 0 -32.0008 0 0 -32.0008 0 -1344 0 -32.0008 32.0008 0zm1312 64.0016l-1280 0 0 1280 1280 0 0 -1280z"/><g id="_272175512"><path class="fil1" d="M1584 1026.52c-5.12835,81.0508 -22.4303,143.94 -51.867,188.658 -57.9449,87.2044 -142.055,130.808 -252.34,130.808 -85.5142,0 -156.539,-27.9555 -213.082,-83.8489 -61.689,-60.9343 -92.5182,-140.313 -92.5182,-238.134 0,-96.1477 31.0725,-174.964 93.215,-236.451 57.4796,-57.0142 128.275,-85.532 212.385,-85.532 106.551,0 191.589,42.489 255.147,127.452l-42.0555 31.8662c-58.8815,-72.1111 -129.91,-108.167 -213.091,-108.167 -71.0268,0 -130.374,23.7555 -178.032,71.269 -52.3406,51.9933 -78.5079,118.51 -78.5079,199.563 0,80.491 23.5925,145.615 70.7965,195.373 47.1922,49.7481 109.115,74.6174 185.744,74.6174 65.889,0 120.099,-18.3095 162.627,-54.9154 42.5185,-36.6177 71.2583,-89.8595 86.2099,-159.735l-269.157 0 0 -52.8237 324.527 0z" id="_272171960"/><path class="fil1" d="M806.76 1148.09l0 -363.904 -298.015 363.904 298.015 0zm162.618 52.8237l-117.052 0 0 127.453 -45.5658 0 0 -127.453 -342.76 0 0 -52.8237 342.76 -426.793 45.5658 0 0 426.793 117.052 0 0 52.8237z" id="_272175440"/></g></g></svg>