<?xml version="1.0" ?><!DOCTYPE svg  PUBLIC '-//W3C//DTD SVG 1.1//EN'  'http://www.w3.org/Graphics/SVG/1.1/DTD/svg11.dtd'><svg height="2048px" style="shape-rendering:geometricPrecision; text-rendering:geometricPrecision; image-rendering:optimizeQuality; fill-rule:evenodd; clip-rule:evenodd" viewBox="0 0 2048 2048" width="2048px" xml:space="preserve" xmlns="http://www.w3.org/2000/svg" xmlns:xlink="http://www.w3.org/1999/xlink"><defs><style type="text/css">
   <![CDATA[
    .fil0 {fill:none}
    .fil1 {fill:#212121;fill-rule:nonzero}
   ]]>
  </style></defs><g id="Layer_x0020_1"><g id="_269418424"><rect class="fil0" height="2048" id="_269423488" width="2048"/><rect class="fil0" height="1536" id="_269423704" width="1536" x="255.999" y="255.999"/></g><g><path class="fil1" d="M744.781 1530.06l-31.5614 32.837 -0.0011811 -0.0011811 -19.6606 -20.0362 -19.4374 -21.7063 -19.1799 -23.2748 -18.8858 -24.7536 -18.5504 -26.1319 -18.1713 -27.417 -17.7473 -28.6075 -17.2748 -29.6988 -16.7551 -30.6981 -16.1847 -31.5981 -15.5634 -32.4024 -14.8914 -33.1099 -14.1662 -33.7205 -13.3913 -34.2343 -12.5587 -34.6512 -11.6776 -34.9725 -10.7398 -35.1957 -9.74765 -35.3244 -8.70237 -35.3575 -7.6004 -35.2949 -6.44174 -35.1366 -5.22638 -34.8862 -3.95551 -34.5425 -2.62087 -34.1044 -1.22717 -33.5752 0.230315 -32.9551 1.75394 -32.2429 3.34843 -31.4374 5.01378 -30.5398 6.75945 -29.5429 8.58544 -28.4469 10.4894 -27.2256 41.7733 18.3 -9.21379 23.9232 -7.63819 25.3217 -6.09095 26.6374 -4.57205 27.8563 -3.08386 28.9689 -1.62874 29.9729 -0.21378 30.8717 1.15866 31.6571 2.48622 32.3327 3.76654 32.8985 4.99961 33.3579 6.17953 33.7051 7.30985 33.9461 8.3882 34.0819 9.41457 34.1103 10.3831 34.0311 11.302 33.8481 12.1642 33.5575 12.9709 33.1642 13.7244 32.6646 14.4189 32.061 15.0602 31.3536 15.6414 30.5374 16.1669 29.6209 16.6323 28.5957 17.0386 27.4666 17.3847 26.2311 17.6669 24.8894 17.8866 23.4425 18.0343 21.8882 18.1122 20.2276 18.1181 18.4654 -0.0011811 -0.0011811zm338.96 30.5847l43.0914 -14.5843 -0.0011811 -0.00236221 4.26024 15.5032 2.08701 15.1181 -0.198425 14.6646 -2.57362 14.0209 -4.92048 13.0606 -7.07008 11.7709 -8.8819 10.2638 -10.3335 8.70709 -11.498 7.2319 -12.4665 5.89134 -13.3087 4.68426 -14.0717 3.58347 -14.765 2.56654 -15.4004 1.61221 -15.9768 0.700394 -16.4894 -0.179528 -16.9358 -1.03347 -17.3114 -1.87087 -17.615 -2.69173 -17.8417 -3.50197 -17.9917 -4.30158 -18.0626 -5.09528 -18.052 -5.88071 -17.9599 -6.6626 -17.7862 -7.44095 -17.5276 -8.21694 -17.1862 -8.99174 -16.7575 -9.76891 -16.2449 -10.5461 -15.6378 -11.3315 -14.9469 -12.1193 -14.1473 -12.9071 31.5614 -32.837 12.1252 11.0599 12.9461 10.4965 13.689 9.91418 14.3433 9.313 14.9102 8.68938 15.3791 8.04686 15.7583 7.38544 16.0406 6.70867 16.2284 6.02008 16.3158 5.31615 16.3075 4.59922 16.2012 3.87402 15.9921 3.13819 15.6851 2.39646 15.2705 1.65118 14.7508 0.901182 14.1201 0.155906 13.3784 -0.584646 12.5209 -1.30748 11.5429 -2.00197 10.441 -2.65512 9.2315 -3.23859 7.92166 -3.73229 6.5563 -4.10906 5.20985 -4.36772 3.97087 -4.56378 2.91024 -4.82363 2.01024 -5.31733 1.12795 -6.15709 0.0921261 -7.33229 -1.21063 -8.71182 -2.80512 -10.1764 -0.0011811 -0.00236221zm-32.765 -238.71l75.8564 224.126 -43.0914 14.5843 -75.8564 -224.126 -0.0011811 -0.00236221 43.0926 -14.5819zm-96.9509 -9.5752l-14.6693 -43.3276 0 0 4.1563 -1.29567 4.18583 -1.0878 4.21063 -0.883465 4.22835 -0.679134 4.22717 -0.477166 4.23071 -0.277559 4.22363 -0.080315 4.20945 0.114567 4.18583 0.308268 4.15985 0.498426 4.12323 0.689764 4.08189 0.876379 4.04055 1.06654 3.97914 1.25079 3.9189 1.43504 3.85512 1.62047 3.77599 1.80236 3.69685 1.98543 3.60709 2.16851 3.50906 2.3504 3.39803 2.52756 3.28819 2.71063 3.16063 2.8878 3.02481 3.06142 2.88071 3.23504 2.72481 3.40276 2.56299 3.57166 2.38347 3.72992 2.2004 3.88229 2.00433 4.03465 1.80118 4.17284 1.58622 4.30276 -43.0937 14.5795 -0.728741 -1.97835 -0.816142 -1.89095 -0.89882 -1.80709 -0.981497 -1.73268 -1.06063 -1.65827 -1.13622 -1.58268 -1.21772 -1.52008 -1.29095 -1.44921 -1.36654 -1.38189 -1.43622 -1.31221 -1.50709 -1.24134 -1.57914 -1.17402 -1.64291 -1.10079 -1.70551 -1.0252 -1.76457 -0.948426 -1.82244 -0.869292 -1.87087 -0.786615 -1.92284 -0.702756 -1.96417 -0.617717 -1.99488 -0.525591 -2.03386 -0.437008 -2.06103 -0.344882 -2.0811 -0.250394 -2.10236 -0.154725 -2.11181 -0.0578741 -2.1189 0.0401575 -2.12362 0.140551 -2.1248 0.238583 -2.11417 0.338977 -2.10591 0.441733 -2.09528 0.544489 -2.07756 0.648426 0 0zm-142.61 -0.0141732l127.941 -43.3134 14.6693 43.3276 -127.941 43.3134 -25.9264 -8.54174 11.2571 -34.7859zm14.6693 43.3276l-16.1102 5.45433 -9.81615 -13.9961 25.9264 8.54174zm-199.361 -588.087l14.6433 43.3347 15.411 -22.6831 1.11732 21.4169 1.28504 20.7484 1.46811 20.1083 1.65945 19.5059 1.86496 18.9366 2.07992 18.4028 2.30788 17.9043 2.54528 17.4402 2.79685 17.0138 3.05788 16.624 3.33307 16.2721 3.61772 15.9579 3.91536 15.6803 4.22599 15.4441 4.54961 15.2469 4.88622 15.0862 5.23819 14.9669 5.60079 14.8878 5.98347 14.8465 6.3756 14.8441 6.78544 14.8795 7.21064 14.9528 7.64882 15.0638 8.10355 15.2102 8.57363 15.3921 9.05788 15.613 9.55394 15.8658 10.0677 16.1551 10.591 16.4764 11.1319 16.8343 11.6823 17.224 12.248 17.648 -37.1835 26.2441 -12.515 -18.0331 -11.9728 -17.6516 -11.4437 -17.3067 -10.9264 -16.9984 -10.4221 -16.7244 -9.92954 -16.487 -9.44765 -16.2862 -8.97757 -16.1197 -8.51694 -15.9874 -8.0693 -15.8882 -7.62875 -15.8244 -7.20119 -15.7914 -6.78426 -15.7914 -6.3756 -15.8244 -5.97874 -15.887 -5.59252 -15.9803 -5.21693 -16.1091 -4.85197 -16.2626 -4.50237 -16.448 -4.16103 -16.6677 -3.83504 -16.9146 -3.52205 -17.1957 -3.22087 -17.5075 -2.93622 -17.8547 -2.66103 -18.2315 -2.40236 -18.6414 -2.15788 -19.0878 -1.92638 -19.5697 -1.70906 -20.0847 -1.50591 -20.6351 -1.31575 -21.2232 -1.13858 -21.8469 15.411 -22.6831zm-15.411 22.6831l-0.818505 -17.1992 16.2295 -5.48386 -15.411 22.6831zm121.089 -10.1091l-91.0347 30.7607 -14.6433 -43.3347 91.0347 -30.7607 14.6669 43.3276 -0.0236221 0.00708662zm0.0236221 -0.00708662l-0.0236221 0.00708662 0.764174 -0.258662 -0.740552 0.251575zm37.0831 -12.5752l-37.0831 12.5752 -14.6906 -43.3205 37.0831 -12.5752 0.00472441 -0.0011811 14.6858 43.3217zm13.3146 -95.2879l43.089 -14.5937 -0.0011811 -0.0011811 1.35354 4.37835 1.10433 4.40197 0.861024 4.41615 0.615355 4.41969 0.375591 4.40552 0.140551 4.38898 -0.090945 4.35945 -0.315355 4.31575 -0.53504 4.26733 -0.747638 4.21063 -0.954331 4.14685 -1.1563 4.08071 -1.35118 4.0004 -1.53662 3.91063 -1.72087 3.82677 -1.89803 3.73347 -2.07047 3.63425 -2.23583 3.52559 -2.39764 3.41811 -2.55355 3.3 -2.70473 3.18307 -2.85591 3.06024 -2.99646 2.92677 -3.13701 2.79331 -3.27284 2.65158 -3.40158 2.5063 -3.52914 2.35394 -3.65433 2.19567 -3.77362 2.03268 -3.88701 1.86142 -3.98977 1.68071 -4.09134 1.49764 -14.6811 -43.3229 2.0504 -0.751182 1.99843 -0.842127 1.94055 -0.928347 1.88386 -1.01457 1.82599 -1.09961 1.76929 -1.17992 1.70788 -1.25669 1.63819 -1.32874 1.56851 -1.39725 1.49882 -1.46457 1.41969 -1.52008 1.3441 -1.5815 1.26378 -1.63465 1.17874 -1.67953 1.09252 -1.72323 1.00276 -1.75866 0.912993 -1.7941 0.820867 -1.82599 0.728741 -1.85551 0.633071 -1.87205 0.53504 -1.88858 0.43937 -1.90748 0.341339 -1.92166 0.242126 -1.9311 0.142913 -1.94173 0.0413386 -1.94764 -0.0625985 -1.95591 -0.167717 -1.97008 -0.275197 -1.9748 -0.386221 -1.99016 -0.504331 -2.00669 -0.623623 -2.02087 -0.0011811 -0.0011811zm-32.8311 -238.745l75.9201 224.151 -43.089 14.5937 -75.9201 -224.151 43.0878 -14.5937 0.0011811 0zm-279.177 154.83l-41.7733 -18.3 -0.0011811 0.00236221 5.05748 -10.8012 5.85709 -10.9122 6.59646 -11.002 7.28504 -11.0669 7.92402 -11.0917 8.51103 -11.0752 9.05079 -11.0114 9.54331 -10.8933 9.98387 -10.7221 10.3784 -10.4965 10.7256 -10.2106 11.0256 -9.8693 11.2819 -9.46772 11.4933 -9.00591 11.6646 -8.48741 11.8004 -7.90394 11.8973 -7.25906 11.9717 -6.54922 12.0201 -5.76851 12.0579 -4.91457 12.0921 -3.96851 12.1252 -2.91733 12.163 -1.73032 12.1854 -0.37441 12.1429 1.1941 11.9492 2.97756 11.4921 4.93819 10.6819 6.94489 9.5445 8.84646 8.20276 10.5473 6.80315 12.0626 5.44252 13.4563 -43.0866 14.5937 -3.3874 -8.3941 -3.67559 -6.53032 -3.81851 -4.91811 -3.90827 -3.62126 -4.09134 -2.65276 -4.49292 -1.91693 -5.13898 -1.26496 -5.93504 -0.568111 -6.77835 0.220866 -7.57323 1.0878 -8.27245 1.99843 -8.86064 2.91496 -9.33662 3.80906 -9.70985 4.663 -9.98268 5.46496 -10.1705 6.20552 -10.2744 6.88347 -10.3039 7.49764 -10.2602 8.04213 -10.1457 8.51575 -9.96969 8.92442 -9.72639 9.25867 -9.4193 9.5256 -9.05079 9.72048 -8.61969 9.83977 -8.12717 9.88702 -7.5756 9.85631 -6.96024 9.74292 -6.28583 9.54804 -5.55473 9.25867 -4.76103 8.86654 -3.92126 8.36812 -0.0011811 0.00236221z"/></g><polygon class="fil1" points="1430.63,777.375 1654.63,1001.37 1677.25,1024 1654.63,1046.63 1430.63,1270.62 1385.38,1225.37 1554.75,1056 896,1056 896,991.999 1554.75,991.999 1385.38,822.625 "/></g></svg>