<?xml version="1.0" ?><!DOCTYPE svg  PUBLIC '-//W3C//DTD SVG 1.1//EN'  'http://www.w3.org/Graphics/SVG/1.1/DTD/svg11.dtd'><svg height="2048px" style="shape-rendering:geometricPrecision; text-rendering:geometricPrecision; image-rendering:optimizeQuality; fill-rule:evenodd; clip-rule:evenodd" viewBox="0 0 2048 2048" width="2048px" xml:space="preserve" xmlns="http://www.w3.org/2000/svg" xmlns:xlink="http://www.w3.org/1999/xlink"><defs><style type="text/css">
   <![CDATA[
    .fil0 {fill:none}
    .fil1 {fill:#212121;fill-rule:nonzero}
   ]]>
  </style></defs><g id="Layer_x0020_1"><g id="_189714904"><rect class="fil0" height="2048" id="_189715264" width="2048"/><rect class="fil0" height="1536" id="_189719872" width="1536" x="255.999" y="255.999"/></g><path class="fil1" d="M618.565 1617.79c61.5981,-24.8327 120.757,-56.8512 177.195,-92.1083 76.0453,-47.5063 147.758,-101.374 213.899,-151.598l21.3508 -7.03347c134.9,-2.71772 267.092,-32.9646 378.098,-88.5296 103.369,-51.743 188.214,-125.526 239.379,-219.52 31.9536,-58.6867 46.578,-117.063 46.578,-173.365 0,-75.8174 -26.6197,-147.895 -73.2048,-211.905 -46.9264,-64.48 -114.147,-120.895 -194.925,-164.878 -113.912,-62.0245 -254.64,-99.1288 -403.407,-99.1288 -221.876,0 -404.922,73.8851 -523.424,182.247 -64.1658,58.6748 -109.417,127.397 -131.625,199.864 -22.1079,72.143 -21.3685,148.104 6.31182,221.62 38.2925,101.7 128.41,198.99 281.243,275.52l14.4957 7.25788 0.575197 13.6406c2.34803,55.578 -3.7441,114.699 -15.574,173.277 -9.2693,45.8941 -22.0229,91.4292 -36.9674,134.641zm216.632 -51.717c-79.7044,49.793 -165.071,93.6532 -255.927,121.836l-62.9315 19.5201 20.8571 -51.3721c22.8626,-56.3115 42.424,-118.498 55.0371,-180.946 10.2744,-50.876 15.9969,-101.966 15.2091,-150.239 -158.439,-82.6465 -252.921,-187.142 -294.192,-296.749 -31.0158,-82.3725 -31.8414,-167.497 -7.06536,-248.346 24.6768,-80.5253 74.7638,-156.71 145.691,-221.568 129.999,-118.875 329.999,-199.93 571.653,-199.93 161.916,0 315.277,40.4894 439.579,108.171 88.5438,48.2115 162.429,110.33 214.266,181.558 52.18,71.6989 81.9969,152.519 81.9969,237.627 0,62.9351 -16.3595,128.21 -52.1056,193.862 -56.6374,104.045 -150.282,185.583 -264.246,242.629 -117.15,58.6406 -255.942,91.317 -397.988,95.8383 -64.5508,48.9485 -134.376,100.969 -209.835,148.108z"/></g></svg>